<svg id="Group_39535" data-name="Group 39535" xmlns="http://www.w3.org/2000/svg" xmlns:xlink="http://www.w3.org/1999/xlink" width="108.101" height="107.158" viewBox="0 0 108.101 107.158">
  <defs>
    <clipPath id="clip-path">
      <path id="Path_34511" data-name="Path 34511" d="M158.188,128.834c18.253-.066,28.772,17.484,21.09,45.054s-22,38.262-48.879,43.046c-8.546,1.521-43.136-5.874-51.958-28.825-9.97-25.939-3.623-50.554,13.983-51.3,0,0,3.723-16.019,29.826-19.162C147.053,114.663,158.188,128.834,158.188,128.834Z" transform="translate(-73.717 -117.236)" fill="none"/>
    </clipPath>
  </defs>
  <g id="Group_39522" data-name="Group 39522">
    <g id="Group_39521" data-name="Group 39521" clip-path="url(#clip-path)">
      <g id="Group_39482" data-name="Group 39482" transform="translate(13.223 1.33)">
        <g id="Group_39465" data-name="Group 39465" transform="translate(7.593)">
          <path id="Path_34352" data-name="Path 34352" d="M171.254,124.865s-5.835-3.426-12.513,2.491-8.236,19.82-5.537,27.3.415,14.642-6.644,22.324,4.251,19.829,28.442,17.648,31.873-7.163,28.966-17.752-11.835-15.892-9.759-22.22,3.609-20.8-5.566-29.032S171.254,124.865,171.254,124.865Z" transform="translate(-144.485 -121.757)" fill="#5b2526"/>
          <g id="Group_39464" data-name="Group 39464" transform="translate(4.959 4.527)" opacity="0.5" style="mix-blend-mode: multiply;isolation: isolate">
            <path id="Path_34353" data-name="Path 34353" d="M169.764,241.845a20.648,20.648,0,0,0-2.1-6.7c-.053-.089-.177,0-.133.085a25.262,25.262,0,0,1,1.735,6.063,14.854,14.854,0,0,1-.154,7.566c-1.217,4.018-3.9,8.491-7.753,10.392a.023.023,0,0,0,.02.042c4.1-1.772,6.826-6.193,8.083-10.342A14.553,14.553,0,0,0,169.764,241.845Z" transform="translate(-161.344 -206.291)" fill="#5b2526"/>
            <path id="Path_34354" data-name="Path 34354" d="M199.209,256.153c-.059-.15-.315-.072-.272.086a31.851,31.851,0,0,1,1.628,9.1c-.058,2.659-.8,6.094-2.848,7.989-.017.016.006.044.024.028,1.948-1.666,2.824-4.661,3.1-7.131A21.812,21.812,0,0,0,199.209,256.153Z" transform="translate(-187.013 -221.091)" fill="#5b2526"/>
            <path id="Path_34355" data-name="Path 34355" d="M309.327,258.063c-.917-1.628-2.12-3.068-3.061-4.68a27.14,27.14,0,0,1-2.557-5.918c-1.255-4.225-.794-8.457.393-12.631.027-.1-.127-.148-.166-.056a19.208,19.208,0,0,0-.635,12.506,25.3,25.3,0,0,0,2.448,5.737c1.038,1.792,2.443,3.311,3.544,5.058C309.306,258.1,309.339,258.084,309.327,258.063Z" transform="translate(-261.015 -206.026)" fill="#5b2526"/>
            <path id="Path_34356" data-name="Path 34356" d="M292.706,255.752a16.363,16.363,0,0,1,.554-5.725,12.7,12.7,0,0,0,.735-3.909c0-.092-.156-.109-.165-.013a52.986,52.986,0,0,1-1.2,5.235,16.5,16.5,0,0,0-.231,4.194c.234,3.517,1.809,6.269,3.476,9.28.009.016.033,0,.025-.011C294.483,261.825,292.973,259.116,292.706,255.752Z" transform="translate(-253.817 -214.01)" fill="#5b2526"/>
            <path id="Path_34357" data-name="Path 34357" d="M278.7,277.545a17.291,17.291,0,0,1-1.565-13.128c.048-.152-.181-.246-.233-.092-1.356,3.976-.671,9.81,1.76,13.245C278.675,277.591,278.712,277.567,278.7,277.545Z" transform="translate(-242.424 -226.86)" fill="#5b2526"/>
            <path id="Path_34358" data-name="Path 34358" d="M188.806,137.154a13.594,13.594,0,0,0-8.763,7.316c-1.929,3.935-3.042,9.518-1.724,13.791.009.028.054.021.046-.009-1.055-3.915-.093-8.928,1.444-12.605a13.753,13.753,0,0,1,9.039-8.228C189.012,137.373,188.974,137.108,188.806,137.154Z" transform="translate(-172.921 -137.148)" fill="#5b2526"/>
          </g>
        </g>
        <path id="Path_34359" data-name="Path 34359" d="M186.037,267.284c-2.353-1.73-16.382-6.543-17.074-7.581s-.3-5.915-.3-5.915H157.523s1.177,5.952,0,6.99-13.427,5.26-15.641,6.99-11.7,17.51-13.565,26.3c-.812,3.818,2.622,8.954,8.352,13.725,10.3,7.219,21.662,11.487,28.185,12.844.533.081,1.065.154,1.6.214a23.683,23.683,0,0,0,3.219.146,74.087,74.087,0,0,0,15.384-5.769c8.388-6.4,13.354-16.258,13.787-19.5C199.532,290.538,188.389,269.014,186.037,267.284Z" transform="translate(-125.396 -214.951)" fill="#ffaf8e"/>
        <path id="Path_34360" data-name="Path 34360" d="M179.311,288.806c-1.3-.955-6.15-2.847-10.355-4.526a13.527,13.527,0,0,1-10.061,4.319,26.532,26.532,0,0,1-14.048-3.657c-3.881,1.557-8.425,3.36-9.691,4.349-2.215,1.73-15.384,14.322-16.409,23.842-.845,7.844,5.466,11.411,11.2,16.182,10.3,7.219,21.662,11.487,28.185,12.844.533.081,1.065.154,1.6.214a23.688,23.688,0,0,0,3.219.146,74.092,74.092,0,0,0,15.384-5.769c8.388-6.4,15.756-11.258,15.339-18.261C193.051,308.141,181.664,290.537,179.311,288.806Z" transform="translate(-118.67 -236.474)" fill="#5a3082"/>
        <path id="Path_34361" data-name="Path 34361" d="M200.154,288.257s15.022,12.175,28.853-.538" transform="translate(-176.185 -238.901)" fill="none" stroke="#fff" stroke-miterlimit="10" stroke-width="1.01" opacity="0.3" style="mix-blend-mode: overlay;isolation: isolate"/>
        <g id="Group_39466" data-name="Group 39466" transform="translate(26.645 55.52)" opacity="0.4" style="mix-blend-mode: overlay;isolation: isolate">
          <path id="Path_34362" data-name="Path 34362" d="M240.962,382.883a1.465,1.465,0,0,1-.695-1.118c-.06-.77.77-.831,1.133-.362a1.434,1.434,0,0,1,.2,1.118,1.342,1.342,0,0,1,1-1c.891-.272,1.133,1.012,0,1.511a1.374,1.374,0,0,1,1.193.6c.378.65-.74,1.269-1.465.257,0,0,.043,1.356-.921,1.284-1.012-.075-.3-1.48-.3-1.48s-.831.891-1.345.211C239.28,383.283,240.071,382.671,240.962,382.883Z" transform="translate(-230.681 -360.338)" fill="#fff"/>
          <path id="Path_34363" data-name="Path 34363" d="M210.84,312.034a1.466,1.466,0,0,1,.3-1.281c.5-.586,1.132-.038,1.055.549a1.434,1.434,0,0,1-.655.927,1.341,1.341,0,0,1,1.41.005c.821.441.08,1.517-1.072,1.064a1.374,1.374,0,0,1,.412,1.273c-.2.726-1.422.369-1.215-.859,0,0-.932.986-1.56.25-.659-.772.838-1.257.838-1.257s-1.218.038-1.1-.805C209.371,311.122,210.363,311.253,210.84,312.034Z" transform="translate(-209.251 -310.503)" fill="#fff"/>
          <path id="Path_34364" data-name="Path 34364" d="M250.966,451.73a1.466,1.466,0,0,1,.3-1.281c.5-.586,1.132-.039,1.056.549a1.434,1.434,0,0,1-.655.927,1.342,1.342,0,0,1,1.41.005c.821.441.08,1.517-1.072,1.064a1.374,1.374,0,0,1,.412,1.273c-.2.725-1.422.368-1.215-.859,0,0-.932.986-1.56.25-.659-.772.838-1.257.838-1.257s-1.218.038-1.1-.805C249.5,450.818,250.488,450.948,250.966,451.73Z" transform="translate(-237.574 -409.107)" fill="#fff"/>
          <path id="Path_34365" data-name="Path 34365" d="M262.371,342.659a1.466,1.466,0,0,1,1.3-.192c.731.252.455,1.038-.119,1.184a1.434,1.434,0,0,1-1.1-.265,1.341,1.341,0,0,1,.517,1.312c-.106.926-1.38.636-1.385-.6a1.374,1.374,0,0,1-1.03.854c-.746.088-.869-1.185.349-1.446,0,0-1.261-.5-.811-1.357.472-.9,1.478.313,1.478.313s-.486-1.117.342-1.318C262.674,340.956,262.92,341.925,262.371,342.659Z" transform="translate(-245.064 -332.112)" fill="#fff"/>
          <path id="Path_34366" data-name="Path 34366" d="M258.646,424.4a1.466,1.466,0,0,1,1.3-.192c.731.251.455,1.038-.119,1.184a1.434,1.434,0,0,1-1.1-.265,1.342,1.342,0,0,1,.517,1.312c-.106.926-1.38.636-1.385-.6a1.374,1.374,0,0,1-1.03.854c-.746.087-.869-1.185.348-1.446,0,0-1.261-.5-.811-1.357.473-.9,1.478.313,1.478.313s-.487-1.117.342-1.317C258.95,422.7,259.2,423.667,258.646,424.4Z" transform="translate(-242.435 -389.81)" fill="#fff"/>
          <path id="Path_34367" data-name="Path 34367" d="M216.089,414.947a1.466,1.466,0,0,1,1.3-.192c.731.251.455,1.038-.119,1.184a1.435,1.435,0,0,1-1.1-.265,1.342,1.342,0,0,1,.517,1.312c-.106.926-1.38.636-1.386-.6a1.373,1.373,0,0,1-1.03.854c-.746.087-.869-1.185.348-1.446,0,0-1.261-.5-.811-1.357.473-.9,1.478.313,1.478.313s-.487-1.117.342-1.317C216.392,413.244,216.639,414.213,216.089,414.947Z" transform="translate(-212.396 -383.137)" fill="#fff"/>
          <path id="Path_34368" data-name="Path 34368" d="M290.908,377.824a1.466,1.466,0,0,1,1.3-.192c.731.251.455,1.038-.119,1.184a1.434,1.434,0,0,1-1.1-.265,1.341,1.341,0,0,1,.517,1.312c-.106.926-1.38.636-1.385-.6a1.374,1.374,0,0,1-1.03.854c-.746.087-.869-1.185.348-1.446,0,0-1.261-.5-.81-1.357.472-.9,1.478.313,1.478.313s-.487-1.117.342-1.317C291.211,376.121,291.457,377.091,290.908,377.824Z" transform="translate(-265.206 -356.934)" fill="#fff"/>
        </g>
        <g id="Group_39467" data-name="Group 39467" transform="translate(21.272 52.239)" opacity="0.2" style="mix-blend-mode: multiply;isolation: isolate">
          <path id="Path_34369" data-name="Path 34369" d="M231.527,327.432s-1.315,2.561,1.177,3.253A2.272,2.272,0,0,0,231.527,327.432Z" transform="translate(-219.357 -319.171)" fill="#5a3082"/>
          <path id="Path_34370" data-name="Path 34370" d="M190.985,299.512s.612,2.7,3.588,1.384A2.97,2.97,0,0,0,190.985,299.512Z" transform="translate(-190.985 -299.348)" fill="#5a3082"/>
          <path id="Path_34371" data-name="Path 34371" d="M266.653,319.569a2.578,2.578,0,0,1,2.976-2.007S269.767,319.707,266.653,319.569Z" transform="translate(-244.395 -312.18)" fill="#5a3082"/>
          <path id="Path_34372" data-name="Path 34372" d="M239.762,358.465a2.578,2.578,0,0,1,2.976-2.007S242.876,358.6,239.762,358.465Z" transform="translate(-225.414 -339.634)" fill="#5a3082"/>
          <path id="Path_34373" data-name="Path 34373" d="M260.975,441.774a2.578,2.578,0,0,1,2.976-2.007S264.089,441.912,260.975,441.774Z" transform="translate(-240.387 -398.438)" fill="#5a3082"/>
          <path id="Path_34374" data-name="Path 34374" d="M213.538,359.905a2.745,2.745,0,0,1,2.788,2.811S213.487,363.3,213.538,359.905Z" transform="translate(-206.904 -342.092)" fill="#5a3082"/>
          <path id="Path_34375" data-name="Path 34375" d="M260.975,378.652s2.469-.83,3.159,2.215A2.454,2.454,0,0,1,260.975,378.652Z" transform="translate(-240.387 -355.251)" fill="#5a3082"/>
          <path id="Path_34376" data-name="Path 34376" d="M231.18,422.509s2.469-.83,3.159,2.215A2.454,2.454,0,0,1,231.18,422.509Z" transform="translate(-219.357 -386.208)" fill="#5a3082"/>
          <path id="Path_34377" data-name="Path 34377" d="M289.537,361.435s.207-2.215,3.183-1.315A2.064,2.064,0,0,1,289.537,361.435Z" transform="translate(-260.548 -342.092)" fill="#5a3082"/>
          <path id="Path_34378" data-name="Path 34378" d="M213.538,397.056s1.313-2.007,3.46,0A2.115,2.115,0,0,1,213.538,397.056Z" transform="translate(-206.904 -367.685)" fill="#5a3082"/>
          <path id="Path_34379" data-name="Path 34379" d="M249.882,413.739s.043-2.782,2.672-2.782C252.554,410.957,253.44,413.338,249.882,413.739Z" transform="translate(-232.557 -378.127)" fill="#5a3082"/>
        </g>
        <g id="Group_39468" data-name="Group 39468" transform="translate(27.823 55.695)" opacity="0.2" style="mix-blend-mode: overlay;isolation: isolate">
          <path id="Path_34380" data-name="Path 34380" d="M229.551,313.633a.5.5,0,0,0-.542-.421.487.487,0,0,0-.421.542.5.5,0,0,0,.542.42A.486.486,0,0,0,229.551,313.633Z" transform="translate(-224.075 -312.59)" fill="#fff"/>
          <path id="Path_34381" data-name="Path 34381" d="M247.2,322.434a.575.575,0,0,0-.549.592.583.583,0,0,0,.592.549.575.575,0,0,0,.549-.592A.583.583,0,0,0,247.2,322.434Z" transform="translate(-236.826 -319.1)" fill="#fff"/>
          <path id="Path_34382" data-name="Path 34382" d="M273.518,311.1a.515.515,0,1,0,.473.555A.526.526,0,0,0,273.518,311.1Z" transform="translate(-255.4 -311.098)" fill="#fff"/>
          <path id="Path_34383" data-name="Path 34383" d="M248.2,339.571a.387.387,0,0,0-.413.334.379.379,0,0,0,.334.414.387.387,0,0,0,.413-.334A.379.379,0,0,0,248.2,339.571Z" transform="translate(-237.63 -331.196)" fill="#fff"/>
          <path id="Path_34384" data-name="Path 34384" d="M225.922,342.214a.427.427,0,1,0,.428.426A.434.434,0,0,0,225.922,342.214Z" transform="translate(-221.896 -333.061)" fill="#fff"/>
          <path id="Path_34385" data-name="Path 34385" d="M276.823,358.253l-.031.007a.5.5,0,0,0,.019.987l.049.009a.506.506,0,1,0-.037-1Z" transform="translate(-257.808 -344.375)" fill="#fff"/>
          <path id="Path_34386" data-name="Path 34386" d="M254.868,367.3a.4.4,0,0,0-.417.355.391.391,0,0,0,.355.418.4.4,0,0,0,.417-.355A.391.391,0,0,0,254.868,367.3Z" transform="translate(-242.332 -350.766)" fill="#fff"/>
          <path id="Path_34387" data-name="Path 34387" d="M234.821,379.312c-.579,0-.532.9.047.9S235.4,379.312,234.821,379.312Z" transform="translate(-228.187 -359.247)" fill="#fff"/>
          <path id="Path_34388" data-name="Path 34388" d="M237.99,397.447a.515.515,0,1,0,.472.554A.526.526,0,0,0,237.99,397.447Z" transform="translate(-230.323 -372.047)" fill="#fff"/>
          <path id="Path_34389" data-name="Path 34389" d="M214.108,403.942a.424.424,0,0,0-.847,0l0,.038a.427.427,0,0,0,.854,0Z" transform="translate(-213.256 -376.332)" fill="#fff"/>
          <path id="Path_34390" data-name="Path 34390" d="M244.969,442.429l-.018-.006a.548.548,0,0,0-.649.309.558.558,0,0,0,.216.686l.025.019a.552.552,0,1,0,.427-1.009Z" transform="translate(-235.136 -403.778)" fill="#fff"/>
          <path id="Path_34391" data-name="Path 34391" d="M269.806,450.247a.487.487,0,0,0-.519-.424.475.475,0,0,0-.423.519.487.487,0,0,0,.519.423A.475.475,0,0,0,269.806,450.247Z" transform="translate(-252.504 -409.017)" fill="#fff"/>
          <path id="Path_34392" data-name="Path 34392" d="M268.29,474.65c-.42,0-.387.652.032.652S268.71,474.65,268.29,474.65Z" transform="translate(-251.891 -426.541)" fill="#fff"/>
          <path id="Path_34393" data-name="Path 34393" d="M277.557,412.336a.5.5,0,0,0-.537-.421.484.484,0,0,0-.421.537.5.5,0,0,0,.537.421A.484.484,0,0,0,277.557,412.336Z" transform="translate(-257.963 -382.26)" fill="#fff"/>
          <path id="Path_34394" data-name="Path 34394" d="M259.173,396.942c-.672,0-.74,1.047-.063,1.047S259.849,396.942,259.173,396.942Z" transform="translate(-245.286 -371.691)" fill="#fff"/>
          <path id="Path_34395" data-name="Path 34395" d="M279.271,385.847a.728.728,0,0,0-.466.056.442.442,0,0,0,0,.749c-.061-.028-.044-.012.06.052a.622.622,0,0,0,.476.037A.467.467,0,0,0,279.271,385.847Z" transform="translate(-259.378 -363.851)" fill="#fff"/>
          <path id="Path_34396" data-name="Path 34396" d="M248.843,426.668a.729.729,0,0,0-.466.056.442.442,0,0,0,0,.749c-.061-.028-.045-.012.06.052a.622.622,0,0,0,.476.037A.467.467,0,0,0,248.843,426.668Z" transform="translate(-237.9 -392.664)" fill="#fff"/>
          <path id="Path_34397" data-name="Path 34397" d="M304.474,362.8a.45.45,0,1,0,.472.426A.455.455,0,0,0,304.474,362.8Z" transform="translate(-277.341 -347.59)" fill="#fff"/>
        </g>
        <path id="Path_34398" data-name="Path 34398" d="M239.031,253.788H227.889s.279,1.414.429,2.984a10.35,10.35,0,0,0,5.44,2.416c1.89.055,5.167-2.015,5.164-2.222C238.9,255.4,239.031,253.788,239.031,253.788Z" transform="translate(-195.762 -214.951)" fill="#ffaf8e" opacity="0.4" style="mix-blend-mode: multiply;isolation: isolate"/>
        <g id="Group_39481" data-name="Group 39481" transform="translate(19.629 2.259)">
          <g id="Group_39474" data-name="Group 39474" transform="translate(4.179 4.432)">
            <g id="Group_39469" data-name="Group 39469">
              <path id="Path_34399" data-name="Path 34399" d="M213.562,180.286c-6.191-.063-13.147-6.065-13.853-17.167-.751-11.81,2.606-18.423,12.959-18.608s15.718,4.97,14.8,18.891C226.573,177.053,218.2,180.333,213.562,180.286Z" transform="translate(-199.608 -144.506)" fill="#ffaf8e"/>
              <path id="Path_34400" data-name="Path 34400" d="M231.511,162.555a22.649,22.649,0,0,0-1.9-9.38,12.142,12.142,0,0,0-7.817-5.764c-10.534-2.57-18.194,4.26-16.28,15.061,0,0,3.2-1.369,3.579-4.217s1.464-5.233,2.664-5.686c0,0,1.7,9.752,10.8,6.732C222.559,159.3,226.388,164.513,231.511,162.555Z" transform="translate(-203.568 -146.174)" fill="#ffaf8e" opacity="0.3" style="mix-blend-mode: multiply;isolation: isolate"/>
              <path id="Path_34401" data-name="Path 34401" d="M237.047,256.294a12.469,12.469,0,0,1-7.8,2.823,11.9,11.9,0,0,1-7.415-2.929" transform="translate(-215.298 -223.336)" fill="none" stroke="#9e4733" stroke-linecap="round" stroke-linejoin="round" stroke-width="1.01"/>
            </g>
            <g id="Group_39473" data-name="Group 39473" transform="translate(3.665 13.016)">
              <path id="Path_34402" data-name="Path 34402" d="M219.163,200.324s-.852,2.254-2.884,2.043-2.041-3.031-2.041-3.031l-1.091-.154" transform="translate(-212.829 -196.114)" fill="none" stroke="#9e4733" stroke-linecap="round" stroke-linejoin="round" stroke-width="2.02"/>
              <path id="Path_34403" data-name="Path 34403" d="M213.2,190.413a9.854,9.854,0,0,1,4.373-.294c2.105.436,2.442.68,2.487-.1S216.5,187.415,213.2,190.413Z" transform="translate(-212.864 -188.753)" fill="#5b2526"/>
              <path id="Path_34404" data-name="Path 34404" d="M261.007,200.9s.806,2.271,2.842,2.1,2.1-2.989,2.1-2.989l1.094-.131" transform="translate(-246.611 -196.605)" fill="none" stroke="#9e4733" stroke-linecap="round" stroke-linejoin="round" stroke-width="2.02"/>
              <path id="Path_34405" data-name="Path 34405" d="M265.143,190.912a9.853,9.853,0,0,0-4.366-.384c-2.113.393-2.455.63-2.485-.15S261.9,187.847,265.143,190.912Z" transform="translate(-244.694 -189.047)" fill="#5b2526"/>
              <path id="Path_34406" data-name="Path 34406" d="M242.5,206.918s.346,2.517-.865,2.664-1.315,1.037-.429,1.586,2.669.313,2.968-.956" transform="translate(-232.223 -201.575)" fill="none" stroke="#9e4733" stroke-linecap="round" stroke-linejoin="round" stroke-width="1.01"/>
              <g id="Group_39471" data-name="Group 39471" transform="translate(6.235 13.036)">
                <path id="Path_34407" data-name="Path 34407" d="M240.687,233.964s-.87-1.314-1.863-.753a2.227,2.227,0,0,0-1.151,1.284s.906,2.409,3.072,2.333a2.669,2.669,0,0,0,2.857-2.177s-.551-1.543-1.555-1.553A1.95,1.95,0,0,0,240.687,233.964Z" transform="translate(-236.376 -233.071)" fill="#ffaf8e" opacity="0.6" style="mix-blend-mode: multiply;isolation: isolate"/>
                <g id="Group_39470" data-name="Group 39470" transform="translate(0 0.845)">
                  <path id="Path_34408" data-name="Path 34408" d="M233.265,235.945s4.391,2.588,8.621.088" transform="translate(-233.265 -235.945)" fill="none" stroke="#9e4733" stroke-linecap="round" stroke-linejoin="round" stroke-width="1.01"/>
                </g>
              </g>
              <g id="Group_39472" data-name="Group 39472" transform="translate(0 7.296)" opacity="0.3" style="mix-blend-mode: multiply;isolation: isolate">
                <path id="Path_34409" data-name="Path 34409" d="M217.085,216.093c-.267.693-1.6.826-2.969.3s-2.269-1.52-2-2.213,1.6-.826,2.969-.3S217.352,215.4,217.085,216.093Z" transform="translate(-212.067 -213.556)" fill="#ffaf8e"/>
                <path id="Path_34410" data-name="Path 34410" d="M264.56,216.63c.253.7,1.579.858,2.962.357s2.3-1.473,2.046-2.172-1.579-.858-2.962-.357S264.307,215.932,264.56,216.63Z" transform="translate(-249.09 -213.987)" fill="#ffaf8e"/>
              </g>
            </g>
          </g>
          <g id="Group_39476" data-name="Group 39476" transform="translate(2.221)">
            <path id="Path_34411" data-name="Path 34411" d="M198.452,152.415c.823-2.24.761-8.79,5.052-9.274,0,0,2.007,7.959,8.79,6.921,0,0-1.869-2.353-1.592-6.921,0,0,4.578,11.3,12.151,10.771h1.608a24.145,24.145,0,0,0-2.561-12.293c-3.169-5.952-15.765-9.274-23.378-4.291s-5.212,16.264-5.212,16.264S197.207,155.806,198.452,152.415Z" transform="translate(-192.951 -133.294)" fill="#5b2526"/>
            <path id="Path_34412" data-name="Path 34412" d="M227.178,165.773a6.851,6.851,0,0,1-2.058-3.493c-.343-1.7.235-2.807.707-4.354.028-.091-.1-.124-.147-.053a8.192,8.192,0,0,0-.482.886c-1.79,1.145-1.857,5.27-.659,6.692.018.021.048,0,.039-.025a6.743,6.743,0,0,1,.323-5.9,5.357,5.357,0,0,0-.056,3.062,5.011,5.011,0,0,0,2.288,3.245C227.166,165.846,227.212,165.8,227.178,165.773Z" transform="translate(-214.677 -149.481)" fill="#5b2526"/>
            <g id="Group_39475" data-name="Group 39475" transform="translate(1.221)" opacity="0.5" style="mix-blend-mode: multiply;isolation: isolate">
              <path id="Path_34413" data-name="Path 34413" d="M204.349,147c-1.938,1.153-3.712,2.339-4.685,4.456a6.138,6.138,0,0,0-.591,3.006c.081,1.694.206,3.983-1.955,4.341-.025,0-.024.047,0,.046,1.711-.058,2.333-1.633,2.354-3.174.025-1.861-.092-3.286.97-4.966,1-1.578,2.573-2.421,4.039-3.488C204.6,147.133,204.476,146.921,204.349,147Z" transform="translate(-197.1 -141.82)" fill="#5b2526"/>
              <path id="Path_34414" data-name="Path 34414" d="M239.114,149.093a10.29,10.29,0,0,1-3.978-5.757,15.964,15.964,0,0,1-.427-7.526.1.1,0,0,0-.184-.058,7.469,7.469,0,0,0-.3,4.251,20.92,20.92,0,0,0,.861,4.323,9.172,9.172,0,0,0,3.986,4.837A.042.042,0,0,0,239.114,149.093Z" transform="translate(-223.189 -133.857)" fill="#5b2526"/>
              <path id="Path_34415" data-name="Path 34415" d="M263.393,147.814c-2.058.533-4.424-.7-6.142-1.731a16.079,16.079,0,0,1-5.012-4.587,27.293,27.293,0,0,1-2.647-5,13.972,13.972,0,0,1-1-3.069c-.154-.93-.092-1.854-.3-2.777a.07.07,0,0,0-.136.021,17.03,17.03,0,0,0,.337,3.812,20.779,20.779,0,0,0,1.1,2.878,21.626,21.626,0,0,0,3.641,5.945,16.252,16.252,0,0,0,5.208,3.715c1.512.693,3.3,1.35,4.956.8C263.4,147.821,263.4,147.813,263.393,147.814Z" transform="translate(-233.138 -130.257)" fill="#5b2526"/>
              <path id="Path_34416" data-name="Path 34416" d="M274.2,144.514c-2.8-1.26-5.5-2.511-7.672-4.757a17.29,17.29,0,0,1-2.554-3.523c-.805-1.417-1.2-2.944-1.862-4.41a.084.084,0,0,0-.159.051A17.015,17.015,0,0,0,274.2,144.531.009.009,0,0,0,274.2,144.514Z" transform="translate(-242.877 -131.084)" fill="#5b2526"/>
              <path id="Path_34417" data-name="Path 34417" d="M284.459,139.1a22.647,22.647,0,0,1-4.9-4.056,39.952,39.952,0,0,1-3.29-5.566c-.06-.1-.214-.011-.179.094a17.99,17.99,0,0,0,3.079,5.487,18.919,18.919,0,0,0,5.231,4.155C284.469,139.262,284.527,139.151,284.459,139.1Z" transform="translate(-252.849 -129.438)" fill="#5b2526"/>
            </g>
          </g>
          <g id="Group_39478" data-name="Group 39478" transform="translate(0 19.528)">
            <path id="Path_34418" data-name="Path 34418" d="M190.111,197.271s-.639-2.171-3.279-1.192-1.831,9.41,4.13,8.09Z" transform="translate(-185.401 -195.826)" fill="#ffaf8e"/>
            <g id="Group_39477" data-name="Group 39477" transform="translate(1.006 1.089)">
              <path id="Path_34419" data-name="Path 34419" d="M188.82,200.608a1.982,1.982,0,0,1,3.149-.511" transform="translate(-188.82 -199.527)" fill="none" stroke="#9e4733" stroke-linecap="round" stroke-linejoin="round" stroke-width="1.01"/>
              <path id="Path_34420" data-name="Path 34420" d="M192.728,200.95s.041-.92,1.251-.938" transform="translate(-191.578 -199.869)" fill="none" stroke="#9e4733" stroke-linecap="round" stroke-linejoin="round" stroke-width="1.01"/>
            </g>
            <path id="Path_34421" data-name="Path 34421" d="M192.333,221.8a1.936,1.936,0,1,1-1.083.331" transform="translate(-188.927 -214.16)" fill="none" stroke="#fff" stroke-linecap="round" stroke-linejoin="round" stroke-width="1.01"/>
          </g>
          <g id="Group_39480" data-name="Group 39480" transform="translate(30.951 19.528)">
            <path id="Path_34422" data-name="Path 34422" d="M291.473,197.271s.639-2.171,3.278-1.192,1.831,9.41-4.13,8.09Z" transform="translate(-290.621 -195.826)" fill="#ffaf8e"/>
            <g id="Group_39479" data-name="Group 39479" transform="translate(1.407 1.089)">
              <path id="Path_34423" data-name="Path 34423" d="M298.553,200.608a1.982,1.982,0,0,0-3.149-.511" transform="translate(-295.404 -199.527)" fill="none" stroke="#9e4733" stroke-linecap="round" stroke-linejoin="round" stroke-width="1.01"/>
              <path id="Path_34424" data-name="Path 34424" d="M299.2,200.95s-.041-.92-1.251-.938" transform="translate(-297.2 -199.869)" fill="none" stroke="#9e4733" stroke-linecap="round" stroke-linejoin="round" stroke-width="1.01"/>
            </g>
            <path id="Path_34425" data-name="Path 34425" d="M293.3,221.8a1.936,1.936,0,1,0,1.082.331" transform="translate(-291.147 -214.16)" fill="none" stroke="#fff" stroke-linecap="round" stroke-linejoin="round" stroke-width="1.01"/>
          </g>
        </g>
      </g>
      <g id="Group_39502" data-name="Group 39502" transform="translate(11.984 47.718)">
        <g id="Group_39483" data-name="Group 39483" transform="translate(12.885 28.907)">
          <path id="Path_34426" data-name="Path 34426" d="M185.187,403.469a113.5,113.5,0,0,0-6.5-13.61c-4.715-7.881-8.72-9.673-8.72-9.673l-9.458,2.984s-2.619,2.828-2.206,8.546c.049,3.907,3.32,14.724,3.32,14.724S176.14,409.307,185.187,403.469Z" transform="translate(-158.261 -379.464)" fill="#ff6d83"/>
          <path id="Path_34427" data-name="Path 34427" d="M198.006,414.853c-.795-1.607-1.629-3.185-2.459-4.571-.242-.4-.481-.789-.719-1.162a7.158,7.158,0,0,1-3.866,2.842c-2.816.657-6.571-1.08-6.571-1.08s-6.464,6.505,2.535,8.918C194.371,421.8,197.237,416.679,198.006,414.853Z" transform="translate(-175.118 -399.887)" fill="#ff6d83" opacity="0.3" style="mix-blend-mode: multiply;isolation: isolate"/>
          <path id="Path_34428" data-name="Path 34428" d="M164.67,379.73a1.871,1.871,0,0,0-1.521,1.888c-.039,1.661,2.926,1.018,2.926,1.018a1.813,1.813,0,0,0,1.88,1.985c1.98-.052,1.96-1.672,1.96-1.672s1.473,1.686,3.082.444-.078-2.807-.078-2.807,1.641-.117,1.62-1.451-1.372-1.693-3.322-1.178S164.67,379.73,164.67,379.73Z" transform="translate(-161.711 -377.732)" fill="#fff"/>
        </g>
        <g id="Group_39498" data-name="Group 39498">
          <g id="Group_39489" data-name="Group 39489" transform="translate(12.434 7.365)">
            <path id="Path_34429" data-name="Path 34429" d="M165.91,372.114a28.5,28.5,0,0,0,1,4.521c.467.986,2.634,2.284,5.106,1.194s2.214-2.638,1.538-3.992Z" transform="translate(-163.209 -352.224)" fill="#dca183"/>
            <g id="Group_39484" data-name="Group 39484">
              <path id="Path_34430" data-name="Path 34430" d="M157.047,315.747c.755,2.658,1.8,7.419,2.381,8.639s6.955,3.127,11.433.808,7.111-6.842,4.778-9.865-3.6-9.377-3.6-9.377-6.27-3.278-11.566,0S157.047,315.747,157.047,315.747Z" transform="translate(-156.727 -304.497)" fill="#dca183"/>
              <path id="Path_34431" data-name="Path 34431" d="M172.935,309.41c-.589-1.92-.9-3.457-.9-3.457s-6.27-3.278-11.566,0-3.426,9.794-3.426,9.794c.052.184.106.38.161.583a6.606,6.606,0,0,0,.646.659,5.314,5.314,0,0,0,2.968-3.7S169.808,311.979,172.935,309.41Z" transform="translate(-156.727 -304.497)" fill="#dca183" opacity="0.2" style="mix-blend-mode: multiply;isolation: isolate"/>
              <path id="Path_34432" data-name="Path 34432" d="M180.376,375.784a12.034,12.034,0,0,0,7.178-.922" transform="translate(-173.42 -354.164)" fill="none" stroke="#7a312a" stroke-linecap="round" stroke-linejoin="round" stroke-width="0.774"/>
            </g>
            <g id="Group_39488" data-name="Group 39488" transform="translate(6.278 6.362)">
              <path id="Path_34433" data-name="Path 34433" d="M183.028,338.177s-.423-1.382.534-1.915,1.554,1.425,1.554,1.425" transform="translate(-181.503 -333.215)" fill="none" stroke="#7a312a" stroke-linecap="round" stroke-linejoin="round" stroke-width="1.515"/>
              <path id="Path_34434" data-name="Path 34434" d="M196.866,336.482s-.087,1.676.712,1.487c.834-.2,1.558.139,1.358,1.008a1.12,1.12,0,0,1-1.848.467" transform="translate(-191.335 -333.436)" fill="none" stroke="#7a312a" stroke-linecap="round" stroke-linejoin="round" stroke-width="0.774"/>
              <path id="Path_34435" data-name="Path 34435" d="M179.921,333.423a1.489,1.489,0,0,1,1.447-1.4" transform="translate(-179.376 -330.287)" fill="none" stroke="#7a312a" stroke-linecap="round" stroke-linejoin="round" stroke-width="0.774"/>
              <g id="Group_39485" data-name="Group 39485" transform="translate(0 5.888)" opacity="0.5" style="mix-blend-mode: multiply;isolation: isolate">
                <path id="Path_34436" data-name="Path 34436" d="M179.664,347.144c-.263,0-.243.408.02.408S179.927,347.144,179.664,347.144Z" transform="translate(-179.062 -346.85)" fill="#dca183"/>
                <path id="Path_34437" data-name="Path 34437" d="M183,346.144c-.259,0-.242.4.016.4S183.26,346.144,183,346.144Z" transform="translate(-181.419 -346.144)" fill="#dca183"/>
                <path id="Path_34438" data-name="Path 34438" d="M181.605,348.93c-.275,0-.245.426.029.426S181.879,348.93,181.605,348.93Z" transform="translate(-180.429 -348.111)" fill="#dca183"/>
                <path id="Path_34439" data-name="Path 34439" d="M178.262,349.6c-.281,0-.246.435.034.435S178.542,349.6,178.262,349.6Z" transform="translate(-178.068 -348.581)" fill="#dca183"/>
                <path id="Path_34440" data-name="Path 34440" d="M180.736,351.1c-.257,0-.241.4.015.4S180.993,351.1,180.736,351.1Z" transform="translate(-179.821 -349.639)" fill="#dca183"/>
                <path id="Path_34441" data-name="Path 34441" d="M183.941,350.6a.19.19,0,0,0,.007.381A.19.19,0,0,0,183.941,350.6Z" transform="translate(-182.086 -349.286)" fill="#dca183"/>
                <path id="Path_34442" data-name="Path 34442" d="M185.756,347.664c-.209,0-.223.325-.013.325S185.965,347.664,185.756,347.664Z" transform="translate(-183.379 -347.217)" fill="#dca183"/>
              </g>
              <path id="Path_34443" data-name="Path 34443" d="M204.945,332.091s-.274-1.419-1.369-1.442-.706,1.987-.706,1.987" transform="translate(-195.527 -329.319)" fill="none" stroke="#7a312a" stroke-linecap="round" stroke-linejoin="round" stroke-width="1.515"/>
              <path id="Path_34444" data-name="Path 34444" d="M205.039,326.626a1.489,1.489,0,0,0-2.009-.159" transform="translate(-195.687 -326.126)" fill="none" stroke="#7a312a" stroke-linecap="round" stroke-linejoin="round" stroke-width="0.774"/>
              <g id="Group_39486" data-name="Group 39486" transform="translate(9.227 3.394)" opacity="0.5" style="mix-blend-mode: multiply;isolation: isolate">
                <path id="Path_34445" data-name="Path 34445" d="M214.537,337.69c.233-.123.406.247.174.37S214.305,337.813,214.537,337.69Z" transform="translate(-212.959 -337.665)" fill="#dca183"/>
                <path id="Path_34446" data-name="Path 34446" d="M211.13,338.368c.229-.121.4.241.174.362S210.9,338.489,211.13,338.368Z" transform="translate(-210.556 -338.144)" fill="#dca183"/>
                <path id="Path_34447" data-name="Path 34447" d="M213.633,340.179c.243-.129.416.261.174.39S213.391,340.308,213.633,340.179Z" transform="translate(-212.316 -339.421)" fill="#dca183"/>
                <path id="Path_34448" data-name="Path 34448" d="M216.886,339.2c.248-.132.421.269.174.4S216.639,339.334,216.886,339.2Z" transform="translate(-214.61 -338.732)" fill="#dca183"/>
                <path id="Path_34449" data-name="Path 34449" d="M215.453,341.681c.228-.121.4.239.174.359S215.227,341.8,215.453,341.681Z" transform="translate(-213.608 -340.483)" fill="#dca183"/>
                <path id="Path_34450" data-name="Path 34450" d="M212.414,342.739a.19.19,0,0,1,.172.339A.19.19,0,0,1,212.414,342.739Z" transform="translate(-211.468 -341.23)" fill="#dca183"/>
                <path id="Path_34451" data-name="Path 34451" d="M209.518,340.986c.184-.1.349.183.164.281S209.333,341.084,209.518,340.986Z" transform="translate(-209.437 -339.995)" fill="#dca183"/>
              </g>
              <g id="Group_39487" data-name="Group 39487" transform="translate(4.066 7.198)">
                <path id="Path_34452" data-name="Path 34452" d="M194.2,351.629c-.837.255-2.115-.731-2.293.315a2.366,2.366,0,0,0,3.361,2.426c2.449-1,1.358-3.774.646-3.774C194.839,350.6,195.359,351.276,194.2,351.629Z" transform="translate(-191.89 -350.596)" fill="#5b2526"/>
                <path id="Path_34453" data-name="Path 34453" d="M196.416,350.974c-.155-.233-.336-.378-.5-.378-1.077,0-.557.68-1.714,1.033-.837.255-2.115-.731-2.293.315a1.6,1.6,0,0,0-.012.389,2.489,2.489,0,0,0,2.126.368l.314-.645.488.515S196.358,351.972,196.416,350.974Z" transform="translate(-191.892 -350.596)" fill="#fff"/>
                <path id="Path_34454" data-name="Path 34454" d="M193.455,359.915a2.218,2.218,0,0,0,2.92.77,3.061,3.061,0,0,0,.452-.229C195.991,359.045,194.179,359.614,193.455,359.915Z" transform="translate(-192.995 -356.912)" fill="#ff6d83"/>
              </g>
            </g>
          </g>
          <g id="Group_39497" data-name="Group 39497">
            <g id="Group_39491" data-name="Group 39491">
              <path id="Path_34455" data-name="Path 34455" d="M124.365,282.959s-.109-3.7-4.78-3.491-6.177,6.051-4.412,8.813.176,4.06-.716,3.385c0,0,.967,3.945,6.058,1.09S124.365,282.959,124.365,282.959Z" transform="translate(-114.457 -279.459)" fill="#fccb68"/>
              <g id="Group_39490" data-name="Group 39490" transform="translate(1.023 1.053)" opacity="0.6" style="mix-blend-mode: multiply;isolation: isolate">
                <path id="Path_34456" data-name="Path 34456" d="M122.085,283.039c-2.045.143-3.414,2.256-3.659,4.143-.3,2.278,3.378,7.177-.486,7.784,0,0-.005.009,0,.009,1.837.124,2.447-1.478,2.048-3.074s-1.4-2.92-1.21-4.651a4.682,4.682,0,0,1,3.347-4.023A.1.1,0,0,0,122.085,283.039Z" transform="translate(-117.936 -283.039)" fill="#fccb68"/>
                <path id="Path_34457" data-name="Path 34457" d="M127.2,288.538a4.123,4.123,0,0,0-1.318,4.182,23.123,23.123,0,0,1,.52,3.3c.018,2.021-1.045,2.688-2.767,3.315-.01,0,0,.019.005.018,1.869-.224,3.077-1.139,3.118-3.135.054-2.661-1.687-5.264.653-7.447A.157.157,0,0,0,127.2,288.538Z" transform="translate(-121.957 -286.893)" fill="#fccb68"/>
              </g>
            </g>
            <path id="Path_34458" data-name="Path 34458" d="M142.811,288.394c.3-1.749-1.591-1.749-4,.713-1.2,1.223-2.018,3.633-.723,4S142.516,290.144,142.811,288.394Z" transform="translate(-130.673 -284.895)" fill="#ff6d83"/>
            <g id="Group_39494" data-name="Group 39494" transform="translate(4.246 1.405)">
              <path id="Path_34459" data-name="Path 34459" d="M137.844,303.1s3.565-3.584,2.3-8.014a8.985,8.985,0,0,1,1.069,3.05,7.068,7.068,0,0,0,3.417-1.078,9.893,9.893,0,0,0-.345-2.862,5.523,5.523,0,0,1,1.119,2.76s2.71-.4,3.934-1.558a7.2,7.2,0,0,0-.69-2.983,7.339,7.339,0,0,1,1.492,2.694s2.859-.089,4.056-2.115c0,0-1.6-6.224-7.221-8.008S136,284.622,133.667,289c0,0-4.256,1.43-4.049,7.809s2.907,16.537-.727,16.342c0,0,8.188,7.638,11.6.586a7.606,7.606,0,0,0,.214-3.709,7.181,7.181,0,0,0-1.915-3.126Z" transform="translate(-128.892 -284.236)" fill="#fccb68"/>
              <g id="Group_39492" data-name="Group 39492" transform="translate(8.503 2.094)" opacity="0.6" style="mix-blend-mode: multiply;isolation: isolate">
                <path id="Path_34460" data-name="Path 34460" d="M159.3,313.16a.088.088,0,0,0-.176.01c.11,2.206.6,5.9-1.32,7.566a.009.009,0,0,0,.012.014C159.908,319.214,159.59,315.4,159.3,313.16Z" transform="translate(-157.8 -306.69)" fill="#fccb68"/>
                <path id="Path_34461" data-name="Path 34461" d="M172.565,307.83a6.685,6.685,0,0,0-.906-3.127c-.042-.062-.155-.021-.126.056a12.92,12.92,0,0,1,.765,3.115,13.863,13.863,0,0,1,.227,3.509.009.009,0,0,0,.018,0A7.433,7.433,0,0,0,172.565,307.83Z" transform="translate(-167.49 -300.755)" fill="#fccb68"/>
                <path id="Path_34462" data-name="Path 34462" d="M184.332,304.28a10.469,10.469,0,0,0-1.951-3.9.1.1,0,0,0-.16.111c.942,1.5,2.879,4.571,2.143,6.428-.006.014.016.027.024.013A3.166,3.166,0,0,0,184.332,304.28Z" transform="translate(-175.026 -297.703)" fill="#fccb68"/>
                <path id="Path_34463" data-name="Path 34463" d="M194.881,297.294c-.09-.128-.274.019-.191.147.428.664.945,1.258,1.406,1.9a7.2,7.2,0,0,1,1.318,3.844.019.019,0,0,0,.037,0C197.531,300.736,196.214,299.192,194.881,297.294Z" transform="translate(-183.824 -295.513)" fill="#fccb68"/>
                <path id="Path_34464" data-name="Path 34464" d="M197.005,294.84a10.792,10.792,0,0,0-3.525-3.473c-.086-.051-.175.085-.1.146,2.079,1.607,4.562,4.07,4.88,6.838a0,0,0,0,0,.009,0A5.979,5.979,0,0,0,197.005,294.84Z" transform="translate(-182.896 -291.356)" fill="#fccb68"/>
              </g>
              <g id="Group_39493" data-name="Group 39493" transform="translate(1.812 12.715)" opacity="0.6" style="mix-blend-mode: multiply;isolation: isolate">
                <path id="Path_34465" data-name="Path 34465" d="M136.929,333.391a15.615,15.615,0,0,1-.407-5.8.116.116,0,0,0-.23-.032c-.537,2.351-.007,4.667.546,6.964.6,2.49,1.274,6.573-1.782,7.789,0,0,0,.01,0,.009,2-.435,2.691-2.727,2.708-4.562A19.188,19.188,0,0,0,136.929,333.391Z" transform="translate(-135.053 -327.46)" fill="#fccb68"/>
                <path id="Path_34466" data-name="Path 34466" d="M150.729,357.4c-.051-.083-.2-.016-.157.076.734,1.758,1.4,5.019-.249,6.54-.026.024.005.074.036.053C152.269,362.834,151.741,359.028,150.729,357.4Z" transform="translate(-145.824 -348.569)" fill="#fccb68"/>
              </g>
            </g>
            <g id="Group_39496" data-name="Group 39496" transform="translate(9.348 18.704)">
              <path id="Path_34467" data-name="Path 34467" d="M151.29,347.427s-1.118,2.5-3.3,1.627-2.186-4.393-.762-5.554,2.847.155,3.355,1.048Z" transform="translate(-146.236 -343.044)" fill="#dca183"/>
              <path id="Path_34468" data-name="Path 34468" d="M159.263,359.164a.885.885,0,1,1-.885-.885A.885.885,0,0,1,159.263,359.164Z" transform="translate(-154.182 -353.798)" fill="#fff"/>
              <g id="Group_39495" data-name="Group 39495" transform="translate(0.987 1.284)">
                <path id="Path_34469" data-name="Path 34469" d="M149.592,348.266s1.017-1.931,2.694,0" transform="translate(-149.592 -347.408)" fill="none" stroke="#7a312a" stroke-linecap="round" stroke-linejoin="round" stroke-width="1.01"/>
                <path id="Path_34470" data-name="Path 34470" d="M152.3,348.8a.948.948,0,0,1,1.154-.749" transform="translate(-151.505 -347.839)" fill="none" stroke="#7a312a" stroke-linecap="round" stroke-linejoin="round" stroke-width="1.01"/>
              </g>
            </g>
          </g>
        </g>
        <g id="Group_39501" data-name="Group 39501" transform="translate(13.5 30.726)">
          <g id="Group_39500" data-name="Group 39500" transform="translate(4.473)">
            <path id="Path_34471" data-name="Path 34471" d="M192.456,388.568s-1.214-1.984-.63-2.4,1.306.541,1.306.541.015-1.993.513-2.471a.567.567,0,0,1,1.025.314s.239-.663.79-.634.533,1,.533,1a.456.456,0,0,1,.764.024.987.987,0,0,1,.213.906s.652-.174.58.551a5.44,5.44,0,0,1-2.418,3.74s-1.712,8.384-7.28,10.439c-4.935,1.821-10.805.289-12.292-2.776l3.366-4.7s4.308,2.657,7.507,1.877S192.456,388.568,192.456,388.568Z" transform="translate(-175.559 -383.916)" fill="#dca183"/>
            <path id="Path_34472" data-name="Path 34472" d="M178.925,393.1s4.308,2.657,7.507,1.877,6.024-6.413,6.024-6.413-1.214-1.984-.63-2.4,1.306.541,1.306.541.015-1.993.513-2.471a.567.567,0,0,1,1.025.314s.239-.663.79-.634.533,1,.533,1a.456.456,0,0,1,.764.024.987.987,0,0,1,.213.906s.652-.174.58.551a5.44,5.44,0,0,1-2.418,3.74s-1.712,8.384-7.28,10.439c-4.935,1.821-10.805.289-12.292-2.776" transform="translate(-175.559 -383.916)" fill="none" stroke="#7a312a" stroke-linecap="round" stroke-linejoin="round" stroke-width="0.774"/>
            <g id="Group_39499" data-name="Group 39499" transform="translate(18.97 0.54)">
              <path id="Path_34473" data-name="Path 34473" d="M240.05,387.548a12.214,12.214,0,0,0,.182-1.8" transform="translate(-240.05 -385.752)" fill="none" stroke="#7a312a" stroke-linecap="round" stroke-linejoin="round" stroke-width="0.774"/>
              <path id="Path_34474" data-name="Path 34474" d="M243.5,388.591a5.616,5.616,0,0,0,.446-1.561" transform="translate(-242.488 -386.654)" fill="none" stroke="#7a312a" stroke-linecap="round" stroke-linejoin="round" stroke-width="0.774"/>
              <path id="Path_34475" data-name="Path 34475" d="M247.221,391.252a6.121,6.121,0,0,0,.356-1.136" transform="translate(-245.112 -388.832)" fill="none" stroke="#7a312a" stroke-linecap="round" stroke-linejoin="round" stroke-width="0.774"/>
            </g>
          </g>
          <path id="Path_34476" data-name="Path 34476" d="M170.091,405.144a37.54,37.54,0,0,1-4.528-3.063c-1.8-1.505-4.625-1.35-5.107,1.038s.612,6.227,5.283,9.289C165.739,412.409,170.45,412.255,170.091,405.144Z" transform="translate(-160.351 -396.05)" fill="#fff"/>
        </g>
      </g>
      <g id="Group_39519" data-name="Group 39519" transform="translate(46.941 38.034)">
        <g id="Group_39503" data-name="Group 39503" transform="translate(9.45 30.72)">
          <path id="Path_34477" data-name="Path 34477" d="M286.419,352.338c-5.777-2.513-8.82-.784-8.82-.784a21.455,21.455,0,0,0-7.863,10.093c-2.144,6.031-4.016,17.426-4.313,22.548,10-2.307,17.815.711,24.726-4.749C294.711,369.621,291.873,354.71,286.419,352.338Z" transform="translate(-265.423 -350.974)" fill="#66b4b0"/>
          <path id="Path_34478" data-name="Path 34478" d="M268.7,401.095c2.564,1.48,7.539,3.63,12.315,1.578,6.831-2.934,3.684-16.406,3.684-16.406s-8.981,5.946-11.021,6.231a3.162,3.162,0,0,1-3.061-1.02C269.869,394.512,269.206,397.935,268.7,401.095Z" transform="translate(-267.737 -375.885)" fill="#66b4b0" opacity="0.3" style="mix-blend-mode: multiply;isolation: isolate"/>
          <path id="Path_34479" data-name="Path 34479" d="M302.981,355.309s-1.214,1.4,1.857,3.3,8.7.609,8.36-3" transform="translate(-291.766 -354.034)" fill="none" stroke="#3c7c6c" stroke-miterlimit="10" stroke-width="1.01"/>
        </g>
        <g id="Group_39508" data-name="Group 39508" transform="translate(0 39.688)">
          <g id="Group_39505" data-name="Group 39505">
            <path id="Path_34480" data-name="Path 34480" d="M248.846,397.7c-6.784-.984-11.545-9.1-11.545-9.1a6.284,6.284,0,0,1-3.926-3.323c-.323-.777.456-.8.456-.8a1.139,1.139,0,0,1-.069-1.073.527.527,0,0,1,.836-.282s-.348-1.072.252-1.289,1.086.436,1.086.436c-.131-.472.318-1.053,1.028-.691s1.395,2.56,1.395,2.56.478-1.3,1.263-1.035.108,2.865.108,2.865,5.019,4.728,8.808,5.07c2.9.263,9.444-2.767,12.255-6.2s4.791-2.615,5.34,1.194S258.5,399.1,248.846,397.7Z" transform="translate(-233.297 -381.462)" fill="#ffc59c"/>
            <g id="Group_39504" data-name="Group 39504" transform="translate(0.468 0.714)">
              <path id="Path_34481" data-name="Path 34481" d="M242.811,385.812a14.141,14.141,0,0,1-.8-1.924" transform="translate(-239.913 -383.888)" fill="none" stroke="#bc6044" stroke-linecap="round" stroke-linejoin="round" stroke-width="1.01"/>
              <path id="Path_34482" data-name="Path 34482" d="M238.644,388.334a6.483,6.483,0,0,1-1.016-1.576" transform="translate(-236.822 -385.914)" fill="none" stroke="#bc6044" stroke-linecap="round" stroke-linejoin="round" stroke-width="1.01"/>
              <path id="Path_34483" data-name="Path 34483" d="M235.663,392.45a7.056,7.056,0,0,1-.775-1.137" transform="translate(-234.888 -389.129)" fill="none" stroke="#bc6044" stroke-linecap="round" stroke-linejoin="round" stroke-width="1.01"/>
            </g>
          </g>
          <g id="Group_39506" data-name="Group 39506" transform="translate(4.287 0.347)">
            <path id="Path_34484" data-name="Path 34484" d="M251.11,387.191s4.963,3.1,7.481,3.656c2.094.466,6.365-3.466,8.513-5.179,2.021-1.611,4.307-3.55,7.289-2.9s3.99,2.639,2.482,6.6-10.514,12.231-19.065,9.188-9.938-7.655-9.938-7.655Z" transform="translate(-247.872 -382.64)" fill="#66b4b0"/>
          </g>
          <g id="Group_39507" data-name="Group 39507" transform="translate(4.287 3.374)">
            <path id="Path_34485" data-name="Path 34485" d="M276.875,396.633c-1.508,3.959-10.514,12.231-19.065,9.188s-9.938-7.655-9.938-7.655l3.238-3.709s5.065,3.161,7.164,3.608c2.994.637,6.655-3.737,8.831-5.131" transform="translate(-247.872 -392.933)" fill="none" stroke="#3c7c6c" stroke-miterlimit="10" stroke-width="1.01"/>
          </g>
          <path id="Path_34486" data-name="Path 34486" d="M248.144,393.649c-.935.918-4.6,3.559-4.224,4.724s1.338,1.853,1.581,1.5,3.7-4.683,3.533-5.254A2.015,2.015,0,0,0,248.144,393.649Z" transform="translate(-240.776 -390.064)" fill="#3c7c6c"/>
        </g>
        <g id="Group_39518" data-name="Group 39518" transform="translate(11.337)">
          <g id="Group_39515" data-name="Group 39515">
            <path id="Path_34487" data-name="Path 34487" d="M315.619,344.228a23.566,23.566,0,0,1-1.051,4.6c-.569,1.125-3.242,2.687-6.065,1.355s-2.578-2.646-1.758-4.19Z" transform="translate(-296.09 -315.492)" fill="#ffc59c"/>
            <g id="Group_39509" data-name="Group 39509" transform="translate(0 5.576)">
              <path id="Path_34488" data-name="Path 34488" d="M294.373,278.75c-.95,3.046-2.3,8.513-3.005,9.9s-8.123,3.4-13.225.6-8.008-8.11-5.225-11.531S277.352,267,277.352,267s7.336-3.6,13.355.342S294.373,278.75,294.373,278.75Z" transform="translate(-271.839 -265.495)" fill="#ffc59c"/>
              <path id="Path_34489" data-name="Path 34489" d="M302.028,267.34c-6.019-3.941-13.355-.342-13.355-.342s-.277,1.224-.8,2.9c.828.86,2.629,1.542,6.431-.607,0,0-.244,2.924,1.779,2.992a8.759,8.759,0,0,0,3.929-.969s-.609,2.2,1.828.972c0,0-.883,7.141,3.26,8.452.206-.723.4-1.4.589-1.992C305.694,278.75,308.047,271.281,302.028,267.34Z" transform="translate(-283.16 -265.495)" fill="#ffc59c" opacity="0.5" style="mix-blend-mode: multiply;isolation: isolate"/>
              <path id="Path_34490" data-name="Path 34490" d="M301.268,347.56a13.765,13.765,0,0,1-8-1.309" transform="translate(-286.966 -322.496)" fill="none" stroke="#bc6044" stroke-linecap="round" stroke-linejoin="round" stroke-width="1.01"/>
            </g>
            <g id="Group_39511" data-name="Group 39511" transform="translate(3.927)">
              <path id="Path_34491" data-name="Path 34491" d="M302.611,267.1a9.14,9.14,0,0,1-1.719-9.549s-2.664,2.1-2.52-.677a4.329,4.329,0,0,1-3.485,1.312c-2.153-.214-1.468-3.575-1.468-3.575s-5.13,2.816-7.543.315,1.878-7.093,7.407-8.2,10.56,2.921,11.6,5.955c0,0-.2-1.573.628-1.637s.712,1.86.712,1.86,2.838-1.673,3.088-.668-2.266,1.977-2.266,1.977,3.375,1.036,3.971,9.9-6.334,13.647-10.1,10.893Z" transform="translate(-285.189 -246.537)" fill="#a44f40"/>
              <g id="Group_39510" data-name="Group 39510" transform="translate(3.346 1.454)" opacity="0.5" style="mix-blend-mode: multiply;isolation: isolate">
                <path id="Path_34492" data-name="Path 34492" d="M303.845,261.633c-1.361-.131-1.253-2.036-.785-2.849.065-.114-.1-.247-.2-.164a8.086,8.086,0,0,1-2.844,1.616,3.4,3.4,0,0,1-2.012.133c-1.878-.581-.751-2.568.376-3.286.039-.025,0-.093-.044-.07-.81.458-2.073,1.613-1.711,2.69s1.9,1.092,2.818.931a7.254,7.254,0,0,0,2.546-1.038c.171-.108.356-.21.473-.3-.046.315-.047.87-.053.8.055.752.538,2.019,1.448,1.687A.075.075,0,0,0,303.845,261.633Z" transform="translate(-296.563 -255.383)" fill="#a44f40"/>
                <path id="Path_34493" data-name="Path 34493" d="M328.829,254.248c-.07.389-.692.554-1,.433-.525-.207-.443-.672-.311-1.106.036-.118-.118-.181-.2-.129-.507.309-1.426.339-1.646-.348-.154-.48.029-1.408.595-1.554.039-.01.033-.072-.009-.064-.678.119-.951,1.152-.761,1.731.227.694,1.076.783,1.7.569-.121.528-.052,1.045.6,1.218a1.066,1.066,0,0,0,1.335-.711C329.154,254.1,328.862,254.061,328.829,254.248Z" transform="translate(-316.942 -251.48)" fill="#a44f40"/>
                <path id="Path_34494" data-name="Path 34494" d="M344.906,273.512c-1.083.841-2.532.015-3.322-.885a4.729,4.729,0,0,1-.93-3.781c.016-.019.034-.036.049-.056.106-.143-.1-.356-.234-.221-.778.81-2.28.528-2.1-.812.078-.573.494-1.816,1.065-2.077.051-.023.026-.11-.031-.1-.469.115-.729.653-.933,1.047a2.61,2.61,0,0,0-.386,1.735,1.471,1.471,0,0,0,2.126.833,4.528,4.528,0,0,0,.057,1.268,4.46,4.46,0,0,0,1.465,2.891c.518.441,3.243,1.855,3.321.236A.1.1,0,0,0,344.906,273.512Z" transform="translate(-325.843 -261.434)" fill="#a44f40"/>
                <path id="Path_34495" data-name="Path 34495" d="M345.837,297.427a2.374,2.374,0,0,1-2.1-.667,3.928,3.928,0,0,1-.615-2.489c-.006-.069-.1-.05-.11.006a2.983,2.983,0,0,0,.707,2.957c.484.406,1.681,1.048,2.206.378A.113.113,0,0,0,345.837,297.427Z" transform="translate(-329.277 -281.653)" fill="#a44f40"/>
              </g>
            </g>
            <g id="Group_39514" data-name="Group 39514" transform="translate(0.918 10.037)">
              <g id="Group_39512" data-name="Group 39512">
                <path id="Path_34496" data-name="Path 34496" d="M282.851,285.87a4,4,0,1,1-2.992-5.132A4.2,4.2,0,0,1,282.851,285.87Z" transform="translate(-274.961 -280.659)" fill="none" stroke="#fff" stroke-miterlimit="10" stroke-width="1.013"/>
                <path id="Path_34497" data-name="Path 34497" d="M315.989,295.4A4,4,0,1,1,313,290.271,4.2,4.2,0,0,1,315.989,295.4Z" transform="translate(-298.351 -287.388)" fill="none" stroke="#fff" stroke-miterlimit="10" stroke-width="1.013"/>
                <path id="Path_34498" data-name="Path 34498" d="M300.892,300.884a1.525,1.525,0,0,1,2.14.867" transform="translate(-293.264 -294.816)" fill="none" stroke="#fff" stroke-miterlimit="10" stroke-width="1.013"/>
                <line id="Line_1904" data-name="Line 1904" x2="4.954" y2="1.021" transform="translate(17.371 8.882)" fill="none" stroke="#fff" stroke-miterlimit="10" stroke-width="1.013"/>
              </g>
              <g id="Group_39513" data-name="Group 39513" transform="translate(3.416 2.331)">
                <path id="Path_34499" data-name="Path 34499" d="M286.575,296.138a1.879,1.879,0,0,1,1.9-1.025c1.316.2.47,2.1.47,2.1" transform="translate(-286.575 -293.178)" fill="none" stroke="#bc6044" stroke-linecap="round" stroke-linejoin="round" stroke-width="1.515"/>
                <path id="Path_34500" data-name="Path 34500" d="M312.138,306.119a1.664,1.664,0,0,0-.516-1.964c-1.037-.833-1.883.952-1.883.952" transform="translate(-302.926 -299.418)" fill="none" stroke="#bc6044" stroke-linecap="round" stroke-linejoin="round" stroke-width="1.515"/>
                <path id="Path_34501" data-name="Path 34501" d="M289.684,319.026a2.557,2.557,0,0,0,1.545,1.993c1.527.828,3.315-.429,3.315-.429" transform="translate(-288.769 -310.072)" fill="none" stroke="#bc6044" stroke-linecap="round" stroke-linejoin="round" stroke-width="1.01"/>
                <path id="Path_34502" data-name="Path 34502" d="M297.173,302.146s.05,1.937-.867,1.7c-.957-.253-1.8.115-1.6,1.123a1.294,1.294,0,0,0,2.119.594" transform="translate(-292.294 -298.157)" fill="#ffc59c" stroke="#bc6044" stroke-linecap="round" stroke-linejoin="round" stroke-width="1.01"/>
                <path id="Path_34503" data-name="Path 34503" d="M290.156,289.16a6.49,6.49,0,0,1,1.455.5c.578.3,1.147.09.282-.574s-2.315-.584-2.448-.255S289.821,289.073,290.156,289.16Z" transform="translate(-288.586 -288.585)" fill="#a44f40"/>
                <path id="Path_34504" data-name="Path 34504" d="M316.614,300a6.462,6.462,0,0,0-1.4-.64c-.624-.183-.892-.726.192-.611s2.078,1.175,1.948,1.5S316.917,300.171,316.614,300Z" transform="translate(-306.405 -295.75)" fill="#a44f40"/>
              </g>
            </g>
          </g>
          <g id="Group_39517" data-name="Group 39517" transform="translate(20.322 19.416)">
            <path id="Path_34505" data-name="Path 34505" d="M340.924,317.135s1.123,2.691,3.476,1.824,2.449-4.621.964-5.9-3.037.088-3.6,1.025Z" transform="translate(-340.924 -312.544)" fill="#ffc59c"/>
            <g id="Group_39516" data-name="Group 39516" transform="translate(1.523 1.366)">
              <path id="Path_34506" data-name="Path 34506" d="M348.973,318.136s-1.03-2.086-2.87-.074" transform="translate(-346.103 -317.186)" fill="none" stroke="#bc6044" stroke-linecap="round" stroke-linejoin="round" stroke-width="1.01"/>
              <path id="Path_34507" data-name="Path 34507" d="M350.062,318.652a1.01,1.01,0,0,0-1.209-.829" transform="translate(-348.044 -317.617)" fill="none" stroke="#bc6044" stroke-linecap="round" stroke-linejoin="round" stroke-width="1.01"/>
            </g>
          </g>
        </g>
      </g>
      <g id="Group_39520" data-name="Group 39520" transform="translate(46.316 65.24)">
        <path id="Path_34508" data-name="Path 34508" d="M233.9,353.6a5,5,0,0,1-2.665-3.086c-.419-2.063,1.5-1.673,2.155-.341,0,0,.06-2.4,1.736-2.119S236.145,351.323,233.9,353.6Z" transform="translate(-231.174 -345.381)" fill="#ff6d83"/>
        <path id="Path_34509" data-name="Path 34509" d="M257.818,343.815a3.246,3.246,0,0,1-1.616-2.929c-.06-2.205,1.644-1.707,1.87-.519a1.947,1.947,0,0,1,2.082-1.327C261.769,339.22,260.153,341.885,257.818,343.815Z" transform="translate(-248.838 -339.026)" fill="#ff6d83"/>
        <path id="Path_34510" data-name="Path 34510" d="M255.129,368.49s-2.021-1.679-1.542-3.415,1.616-.168,1.736.634c0,0,.412-1.293,1.283-.634S256.611,367.415,255.129,368.49Z" transform="translate(-246.942 -356.857)" fill="#ff6d83"/>
      </g>
    </g>
  </g>
  <g id="Group_39528" data-name="Group 39528" transform="translate(12.746 71.904)">
    <g id="Group_39523" data-name="Group 39523" transform="translate(0 1.69)">
      <path id="Path_34512" data-name="Path 34512" d="M188.989,436.051c.822.734,4.573,1.782,4.311,2.41s-2.133.844-3.308.331c0,0,2.773.715,2.579,1.437s-1.757.568-3.107.112c0,0,1.966.8,1.773,1.523s-2.343.443-3.32,0c0,0,1.9.929,1.525,1.605s-3.549-.792-5.431-1.873-5.288-4.572-4.369-6.18,5.435-3.013,8.593-2.364,4.248,1.168,3.474,1.988S188.143,435.3,188.989,436.051Z" transform="translate(-161.121 -413.635)" fill="#ffaf8e"/>
      <path id="Path_34513" data-name="Path 34513" d="M118.851,367.424c-1.617,3.462-3.477,8.171.962,14.6,5.306,7.689,16.84,12.512,16.84,12.512s6.383-2.762,6.826-8.464c0,0-10.14-5.209-14.756-8.438-2.535-1.773-6.226-6.273-6.445-8.457Z" transform="translate(-117.049 -367.424)" fill="#5a3082"/>
    </g>
    <g id="Group_39527" data-name="Group 39527" transform="translate(1.543)">
      <g id="Group_39524" data-name="Group 39524" transform="translate(1.209 9.483)" opacity="0.4" style="mix-blend-mode: overlay;isolation: isolate">
        <path id="Path_34514" data-name="Path 34514" d="M127.721,395.686a1.466,1.466,0,0,1-.752-1.081c-.1-.766.727-.869,1.112-.42a1.434,1.434,0,0,1,.254,1.106,1.342,1.342,0,0,1,.944-1.047c.876-.317,1.184.952.078,1.509a1.374,1.374,0,0,1,1.223.542c.411.629-.674,1.305-1.45.332,0,0,.113,1.352-.854,1.33-1.015-.023-.378-1.463-.378-1.463s-.784.933-1.332.281C126.062,396.172,126.82,395.521,127.721,395.686Z" transform="translate(-126.405 -393.918)" fill="#fff"/>
        <path id="Path_34515" data-name="Path 34515" d="M180.191,437.064a1.465,1.465,0,0,1,.58-1.181c.622-.459,1.113.213.908.769a1.435,1.435,0,0,1-.844.759,1.342,1.342,0,0,1,1.374.317c.7.612-.258,1.5-1.281.8a1.373,1.373,0,0,1,.12,1.332c-.351.664-1.468.044-.994-1.107,0,0-1.128.755-1.577-.1-.472-.9,1.1-1.041,1.1-1.041s-1.2-.232-.892-1.028C178.96,435.85,179.9,436.2,180.191,437.064Z" transform="translate(-163.096 -423.431)" fill="#fff"/>
      </g>
      <g id="Group_39525" data-name="Group 39525" transform="translate(0.131 4.494)" opacity="0.2" style="mix-blend-mode: multiply;isolation: isolate">
        <path id="Path_34516" data-name="Path 34516" d="M146.007,407.822s2.369-.375,2.324,2.563A2.115,2.115,0,0,1,146.007,407.822Z" transform="translate(-139.148 -398.732)" fill="#5a3082"/>
        <path id="Path_34517" data-name="Path 34517" d="M156.123,435.981s1.074-2.145,3.437-.4A2.115,2.115,0,0,1,156.123,435.981Z" transform="translate(-146.303 -417.855)" fill="#5a3082"/>
        <path id="Path_34518" data-name="Path 34518" d="M122.74,377.312s1.966-1.374,3.211,1.288A2.115,2.115,0,0,1,122.74,377.312Z" transform="translate(-122.74 -376.958)" fill="#5a3082"/>
        <path id="Path_34519" data-name="Path 34519" d="M174.773,422.476s2.223.9.669,3.395A2.115,2.115,0,0,1,174.773,422.476Z" transform="translate(-159.041 -409.087)" fill="#5a3082"/>
      </g>
      <g id="Group_39526" data-name="Group 39526" opacity="0.2" style="mix-blend-mode: overlay;isolation: isolate">
        <path id="Path_34520" data-name="Path 34520" d="M122.825,387.437a.515.515,0,1,0,.5.529A.525.525,0,0,0,122.825,387.437Z" transform="translate(-122.296 -379.86)" fill="#fff"/>
        <path id="Path_34521" data-name="Path 34521" d="M141.512,420.114a.515.515,0,1,0,.5.529A.526.526,0,0,0,141.512,420.114Z" transform="translate(-135.486 -402.925)" fill="#fff"/>
        <path id="Path_34522" data-name="Path 34522" d="M160.744,424.742a.515.515,0,1,0,.5.529A.525.525,0,0,0,160.744,424.742Z" transform="translate(-149.061 -406.192)" fill="#fff"/>
        <path id="Path_34523" data-name="Path 34523" d="M126.977,361.681a.515.515,0,1,0,.5.529A.525.525,0,0,0,126.977,361.681Z" transform="translate(-125.226 -361.68)" fill="#fff"/>
      </g>
    </g>
  </g>
  <g id="Group_39534" data-name="Group 39534" transform="translate(56.571 74.471)">
    <g id="Group_39529" data-name="Group 39529" transform="translate(0 1.927)">
      <path id="Path_34524" data-name="Path 34524" d="M270.359,449.15c-.822.734-4.573,1.782-4.311,2.41s2.133.845,3.308.332c0,0-2.773.714-2.579,1.437s1.757.568,3.107.112c0,0-1.966.8-1.773,1.523s2.162.214,3.139-.227c0,0-1.916.83-1.543,1.507s3.749-.464,5.631-1.544,5.287-4.572,4.369-6.18-5.434-3.013-8.593-2.364-4.249,1.168-3.475,1.988S271.2,448.4,270.359,449.15Z" transform="translate(-266.035 -425.686)" fill="#ffaf8e"/>
      <path id="Path_34525" data-name="Path 34525" d="M309.988,376.958c.868,3.574,2.936,9.793-1.535,16.2-4.1,5.874-16.005,11.961-16.005,11.961s-6.383-2.762-6.826-8.464c0,0,10.14-5.209,14.756-8.438,2.535-1.773,6.074-5.147,6.292-7.331Z" transform="translate(-279.861 -376.958)" fill="#5a3082"/>
    </g>
    <g id="Group_39533" data-name="Group 39533" transform="translate(7.933)">
      <g id="Group_39530" data-name="Group 39530" transform="translate(0 13.41)" opacity="0.4" style="mix-blend-mode: overlay;isolation: isolate">
        <path id="Path_34526" data-name="Path 34526" d="M351.042,417.763a1.465,1.465,0,0,0,.752-1.08c.1-.766-.727-.87-1.113-.421a1.434,1.434,0,0,0-.254,1.106,1.342,1.342,0,0,0-.944-1.047c-.876-.317-1.184.952-.078,1.509a1.373,1.373,0,0,0-1.223.542c-.411.629.674,1.305,1.45.332,0,0-.113,1.352.854,1.33,1.015-.023.378-1.463.378-1.463s.784.933,1.332.28C352.7,418.25,351.943,417.6,351.042,417.763Z" transform="translate(-331.888 -415.995)" fill="#fff"/>
        <path id="Path_34527" data-name="Path 34527" d="M295.263,446.1a1.467,1.467,0,0,0-.58-1.182c-.622-.459-1.113.214-.908.769a1.434,1.434,0,0,0,.844.759,1.342,1.342,0,0,0-1.374.317c-.7.612.259,1.5,1.281.8a1.375,1.375,0,0,0-.12,1.333c.351.664,1.468.044.994-1.107,0,0,1.127.755,1.577-.1.472-.9-1.1-1.04-1.1-1.04s1.2-.233.892-1.028C296.494,444.886,295.556,445.233,295.263,446.1Z" transform="translate(-293.005 -436.304)" fill="#fff"/>
      </g>
      <g id="Group_39531" data-name="Group 39531" transform="translate(4.959 5.859)" opacity="0.2" style="mix-blend-mode: multiply;isolation: isolate">
        <path id="Path_34528" data-name="Path 34528" d="M335.138,428.519s-2.369-.375-2.323,2.563A2.115,2.115,0,0,0,335.138,428.519Z" transform="translate(-326.063 -417.273)" fill="#5a3082"/>
        <path id="Path_34529" data-name="Path 34529" d="M313.66,458.831s-1.074-2.145-3.437-.4A2.115,2.115,0,0,0,313.66,458.831Z" transform="translate(-310.117 -437.916)" fill="#5a3082"/>
        <path id="Path_34530" data-name="Path 34530" d="M363.013,393.76s2.152-1.06.42-3.434A2.115,2.115,0,0,0,363.013,393.76Z" transform="translate(-346.871 -390.326)" fill="#5a3082"/>
        <path id="Path_34531" data-name="Path 34531" d="M311.083,432.766s-2.223.9-.668,3.395A2.115,2.115,0,0,0,311.083,432.766Z" transform="translate(-309.863 -420.282)" fill="#5a3082"/>
      </g>
      <g id="Group_39532" data-name="Group 39532" transform="translate(8.505)" opacity="0.2" style="mix-blend-mode: overlay;isolation: isolate">
        <path id="Path_34532" data-name="Path 34532" d="M350.646,406.149a.515.515,0,1,1-.5.529A.525.525,0,0,1,350.646,406.149Z" transform="translate(-341.843 -395.635)" fill="#fff"/>
        <path id="Path_34533" data-name="Path 34533" d="M357.564,370.409a.515.515,0,1,1-.5.529A.526.526,0,0,1,357.564,370.409Z" transform="translate(-346.726 -370.408)" fill="#fff"/>
        <path id="Path_34534" data-name="Path 34534" d="M322.419,438.537a.515.515,0,1,1-.5.529A.526.526,0,0,1,322.419,438.537Z" transform="translate(-321.919 -418.496)" fill="#fff"/>
        <path id="Path_34535" data-name="Path 34535" d="M335.158,447.911a.515.515,0,1,1-.5.529A.526.526,0,0,1,335.158,447.911Z" transform="translate(-330.911 -425.113)" fill="#fff"/>
      </g>
    </g>
  </g>
</svg>
