<svg id="Group_39598" data-name="Group 39598" xmlns="http://www.w3.org/2000/svg" width="163.499" height="109.018" viewBox="0 0 163.499 109.018">
  <g id="Group_39561" data-name="Group 39561" transform="translate(111.284 65.409)">
    <path id="Path_34536" data-name="Path 34536" d="M318.139,234.617s16.926-8.033,31.558-10.328,15.779-1,15.922,1.865-12.049,9.324-30.984,11.045-21.23.287-21.23.287Z" transform="translate(-313.406 -223.111)" fill="#fdc2c8"/>
    <path id="Path_34537" data-name="Path 34537" d="M320.079,260.265s24.386.86,34.713,4.16,12.91,7.029,10.9,10.185-17.644,1.434-27.255-2.152S320.079,260.265,320.079,260.265Z" transform="translate(-317.497 -245.89)" fill="#fdc2c8"/>
    <g id="Group_39544" data-name="Group 39544" transform="translate(5.307 2.22)">
      <path id="Path_34538" data-name="Path 34538" d="M327.219,241.47a185.119,185.119,0,0,1,17.916-5.328c6.829-1.834,13.666-3.647,20.518-5.394,1.36-.347,2.721-.691,4.085-1.022.494-.12.994-.224,1.486-.353.324-.085.643-.252.97-.316.136-.026.078-.234-.057-.207-.283.055-.587.04-.874.086-.421.069-.839.187-1.255.285-1.161.275-2.319.562-3.476.851q-4.772,1.192-9.528,2.441c-6.685,1.745-13.363,3.523-20.015,5.392-1.14.32-2.279.642-3.411.989a35.2,35.2,0,0,0-6.416,2.434c-.076.041-.024.173.06.141Z" transform="translate(-327.123 -228.848)" fill="#c44f50"/>
    </g>
    <g id="Group_39545" data-name="Group 39545" transform="translate(4.889 16)">
      <path id="Path_34539" data-name="Path 34539" d="M326.151,264.768c10.485,3.43,21.413,5.235,31.948,8.493q2.21.684,4.4,1.445c1.45.508,2.89,1.093,4.371,1.5.234.065.393-.283.169-.4a44.662,44.662,0,0,0-7.631-2.743c-2.664-.806-5.352-1.543-8.047-2.239-5.339-1.379-10.718-2.6-16.062-3.954-3.028-.768-6.057-1.545-9.061-2.406a.155.155,0,0,0-.082.3Z" transform="translate(-326.043 -264.463)" fill="#c44f50"/>
    </g>
    <g id="Group_39546" data-name="Group 39546" transform="translate(17.191 10.983)">
      <path id="Path_34540" data-name="Path 34540" d="M358.137,251.5l-.287.144c-.025.012,0,.05.022.037l.287-.144c.025-.012,0-.05-.022-.037Z" transform="translate(-357.839 -251.498)" fill="#c44f50"/>
    </g>
    <g id="Group_39547" data-name="Group 39547" transform="translate(16.987 4.484)">
      <path id="Path_34541" data-name="Path 34541" d="M357.6,241.357l-.165.039a.2.2,0,0,0,.071-.044c.032-.04.134-.11.161-.14.114-.124.214-.268.316-.4.227-.3.436-.6.661-.9.489-.643,1.03-1.255,1.57-1.856.506-.563,1.023-1.115,1.56-1.649a16.4,16.4,0,0,0,1.587-1.639c.026-.035-.025-.084-.06-.06a10.449,10.449,0,0,0-1.614,1.526c-.547.581-1.091,1.165-1.624,1.758-.518.578-1.019,1.173-1.537,1.752-.258.288-.527.568-.774.866-.183.221-.455.479-.445.786a.025.025,0,0,0,.018.024.237.237,0,0,0,.279-.057,0,0,0,0,0,0,0Z" transform="translate(-357.309 -234.701)" fill="#c44f50"/>
    </g>
    <g id="Group_39548" data-name="Group 39548" transform="translate(25.875 8.526)">
      <path id="Path_34542" data-name="Path 34542" d="M380.386,245.446a32.066,32.066,0,0,0,5.587,1.45l2.873.593a12.964,12.964,0,0,0,2.841.394c.07,0,.113-.111.039-.144a12.426,12.426,0,0,0-2.645-.709l-2.986-.58a52.033,52.033,0,0,1-5.629-1.3c-.19-.059-.257.221-.08.292Z" transform="translate(-380.283 -245.146)" fill="#c44f50"/>
    </g>
    <g id="Group_39549" data-name="Group 39549" transform="translate(32.066 1.447)">
      <path id="Path_34543" data-name="Path 34543" d="M396.473,232.441c.494-.453.974-.915,1.452-1.385s.937-1,1.441-1.473.994-.9,1.509-1.323q.376-.312.758-.617a2.916,2.916,0,0,0,.731-.67.082.082,0,0,0-.091-.119,2.3,2.3,0,0,0-.715.484q-.4.329-.785.665-.779.673-1.541,1.368c-.5.45-1.023.867-1.5,1.334a16.706,16.706,0,0,0-1.416,1.575.114.114,0,0,0,.162.161Z" transform="translate(-396.283 -226.85)" fill="#c44f50"/>
    </g>
    <g id="Group_39550" data-name="Group 39550" transform="translate(42.025 0.556)">
      <path id="Path_34544" data-name="Path 34544" d="M422.232,227.958c1.132-1.2,2.4-2.241,3.629-3.332.041-.036-.012-.1-.057-.074a13.486,13.486,0,0,0-3.748,3.23c-.1.12.064.294.176.176Z" transform="translate(-422.024 -224.546)" fill="#c44f50"/>
    </g>
    <g id="Group_39551" data-name="Group 39551" transform="translate(38.961 5.487)">
      <path id="Path_34545" data-name="Path 34545" d="M414.189,237.523c1.3.188,2.6.377,3.883.641.63.13,1.259.265,1.881.43a17.042,17.042,0,0,0,1.941.477.057.057,0,0,0,.044-.1,10.129,10.129,0,0,0-3.768-1.155c-1.309-.225-2.629-.373-3.949-.52-.13-.015-.163.212-.031.231Z" transform="translate(-414.105 -237.291)" fill="#c44f50"/>
    </g>
    <g id="Group_39552" data-name="Group 39552" transform="translate(14.649 11.859)">
      <path id="Path_34546" data-name="Path 34546" d="M351.273,253.815c.2.361.812.414,1.176.49.576.12,1.149.249,1.717.4s1.134.314,1.694.492a12.917,12.917,0,0,0,1.693.477.067.067,0,0,0,.052-.123,10.593,10.593,0,0,0-3.163-1.181q-.826-.212-1.664-.374c-.255-.05-.511-.083-.767-.125a3.03,3.03,0,0,0-.708-.107.034.034,0,0,0-.029.051Z" transform="translate(-351.268 -253.762)" fill="#c44f50"/>
    </g>
    <g id="Group_39553" data-name="Group 39553" transform="translate(14.077 15.449)">
      <path id="Path_34547" data-name="Path 34547" d="M349.954,266.261c1.066-.464,2.129-.924,3.175-1.432.513-.249,1.018-.51,1.521-.777a6.323,6.323,0,0,0,1.42-.875.081.081,0,0,0-.079-.135,7.051,7.051,0,0,0-1.535.681c-.508.257-1.018.51-1.524.77-1.029.528-2.051,1.071-3.087,1.583-.126.062-.015.24.109.186Z" transform="translate(-349.79 -263.039)" fill="#c44f50"/>
    </g>
    <g id="Group_39554" data-name="Group 39554" transform="translate(23.641 17.656)">
      <path id="Path_34548" data-name="Path 34548" d="M374.684,271.979c2.131-1.11,4.384-1.986,6.489-3.145.046-.025.015-.1-.036-.086-1.148.409-2.255.915-3.37,1.4a22.4,22.4,0,0,0-3.2,1.624.118.118,0,0,0,.119.2Z" transform="translate(-374.509 -268.745)" fill="#c44f50"/>
    </g>
    <g id="Group_39555" data-name="Group 39555" transform="translate(33.469 20.842)">
      <path id="Path_34549" data-name="Path 34549" d="M400.055,279.7c1.124-.4,2.24-.823,3.353-1.252q.822-.316,1.648-.623a5.1,5.1,0,0,0,1.5-.669.105.105,0,0,0-.074-.178,4.872,4.872,0,0,0-1.591.47q-.854.322-1.7.654c-1.088.425-2.162.885-3.216,1.389a.115.115,0,0,0,.088.209Z" transform="translate(-399.911 -276.978)" fill="#c44f50"/>
    </g>
    <g id="Group_39556" data-name="Group 39556" transform="translate(42.158 24.715)">
      <path id="Path_34550" data-name="Path 34550" d="M422.566,288.417a15.027,15.027,0,0,1,2.157-.7c.369-.088.737-.169,1.109-.245a6.27,6.27,0,0,0,1.093-.271c.075-.03.1-.164,0-.181a5.455,5.455,0,0,0-2.273.287,15.333,15.333,0,0,0-2.207.817c-.161.074-.045.357.122.289Z" transform="translate(-422.368 -286.988)" fill="#c44f50"/>
    </g>
    <g id="Group_39557" data-name="Group 39557" transform="translate(37.469 24.916)">
      <path id="Path_34551" data-name="Path 34551" d="M410.277,287.75c.587.78,1.193,1.536,1.839,2.268a15.5,15.5,0,0,0,2.043,2.069c.12.092.289-.087.207-.207a10.68,10.68,0,0,0-.891-1.077c-.33-.366-.653-.738-.981-1.105-.645-.724-1.3-1.432-1.964-2.143-.122-.131-.365.047-.253.2Z" transform="translate(-410.248 -287.509)" fill="#c44f50"/>
    </g>
    <g id="Group_39558" data-name="Group 39558" transform="translate(27.343 22.078)">
      <path id="Path_34552" data-name="Path 34552" d="M384.086,280.351a14.038,14.038,0,0,0,1.944,3.334,14.4,14.4,0,0,0,2.744,2.748c.091.066.182-.072.114-.148a36.089,36.089,0,0,1-2.466-2.9c-.735-1.017-1.434-2.062-2.071-3.143-.08-.136-.329-.044-.264.111Z" transform="translate(-384.075 -280.173)" fill="#c44f50"/>
    </g>
    <g id="Group_39559" data-name="Group 39559" transform="translate(18.009 19.809)">
      <path id="Path_34553" data-name="Path 34553" d="M359.976,274.512a30.832,30.832,0,0,0,3.064,4.032c.567.63,1.152,1.244,1.747,1.848.3.3.6.6.906.892a4.719,4.719,0,0,0,.965.8c.133.07.317-.079.221-.221a5.45,5.45,0,0,0-.819-.846c-.293-.275-.584-.552-.87-.834q-.907-.893-1.744-1.851c-1.12-1.277-2.2-2.6-3.226-3.958-.107-.14-.344-.015-.244.142Z" transform="translate(-359.952 -274.309)" fill="#c44f50"/>
    </g>
    <g id="Group_39560" data-name="Group 39560" transform="translate(10.531 17.785)">
      <path id="Path_34554" data-name="Path 34554" d="M340.639,269.264a13.1,13.1,0,0,0,1.294,2.208,11.215,11.215,0,0,0,.8.975,5.7,5.7,0,0,0,.915.883c.149.1.322-.094.239-.239a9.692,9.692,0,0,0-.734-.967q-.381-.5-.769-1c-.511-.66-1.03-1.317-1.529-1.987a.128.128,0,0,0-.221.129Z" transform="translate(-340.623 -269.077)" fill="#c44f50"/>
    </g>
  </g>
  <g id="Group_39562" data-name="Group 39562" transform="translate(117.551 85.026)">
    <path id="Path_34555" data-name="Path 34555" d="M356.817,299.138a.176.176,0,0,0,.116.294c.014,0,.024.014.039.014a26.63,26.63,0,0,0,7.322-.915c.383-.11.831-.313.825-.784-.007-.513-.506-.75-.943-.813a8.873,8.873,0,0,0-3.816.552A9.038,9.038,0,0,0,356.817,299.138Z" transform="translate(-346.257 -287.957)" fill="#dc9596"/>
    <path id="Path_34556" data-name="Path 34556" d="M369.718,290.067a10.305,10.305,0,0,0-5-1.693,17.889,17.889,0,0,0-3.339-.034,13.989,13.989,0,0,0-2.574.367q-1.506-.361-3.012-.716c-.191-.045-.381-.087-.572-.132a2.6,2.6,0,0,0-.279-.13.2.2,0,0,0-.2.02l-.124-.029c.242-.029.48-.064.707-.092a22.455,22.455,0,0,0,2.678-.5,21.587,21.587,0,0,0,2.765-.9,7.157,7.157,0,0,0,2.117-1.088,1.339,1.339,0,0,0,.419-1.712c-.367-.51-1.084-.466-1.634-.4a16.082,16.082,0,0,0-4.751,1.3,14.464,14.464,0,0,0-2.533,1.456,7.958,7.958,0,0,0-1.727,1.516c-1.006-.2-2.015-.387-3.034-.538q-6.368-.946-12.764-1.7-.8-.094-1.611-.16l.006,0q.841-.24,1.678-.5c1.048-.321,2.089-.664,3.115-1.048a19.066,19.066,0,0,0,5.358-2.824c.469-.379,1.637-1.225,1.267-1.962s-1.51-.524-2.138-.433a15.294,15.294,0,0,0-5.763,2.361,20.659,20.659,0,0,0-2.689,2.038,13.232,13.232,0,0,0-2.066,2.155c-.083.037-.166.074-.245.117h0c-.521-.023-1.042-.035-1.564-.032l.031-.116a18.946,18.946,0,0,0,1.724-1.715c.679-.717,1.361-1.442,1.981-2.212.635-.788,1.239-1.6,1.8-2.445a7.714,7.714,0,0,0,1.292-2.467,1.759,1.759,0,0,0-.582-1.883c-.65-.4-1.321.295-1.772.692a13.359,13.359,0,0,0-3.1,4.2,20.15,20.15,0,0,0-1.82,5.71c-.063.07-.132.137-.192.21a.155.155,0,0,0-.018.032c-.643.019-1.286.059-1.93.127-.027,0-.028.045,0,.043.643-.033,1.285-.036,1.927-.019a.141.141,0,0,0,.216.07c.03-.019.058-.041.087-.061l.061,0a.227.227,0,0,0,.134,0c.457.02.914.051,1.37.089a.153.153,0,0,0,.029.1c.006.009.014.016.021.024a9.779,9.779,0,0,0,1.355,4.021,11.222,11.222,0,0,0,2.785,3.4c.487.378,1.279.85,1.922.569.579-.253.348-1.1.219-1.559a10.124,10.124,0,0,0-2.269-3.833,13.925,13.925,0,0,0-1.8-1.7c-.324-.252-.658-.493-1-.718-.106-.07-.211-.14-.318-.208l.021,0c1.529.167,3.054.416,4.572.677a5.331,5.331,0,0,0,.972,2,16.224,16.224,0,0,0,1.49,1.846,17.023,17.023,0,0,0,3.79,3.048,1.962,1.962,0,0,0,1.935.3,1.125,1.125,0,0,0,.4-1.549,9.119,9.119,0,0,0-3.356-3.313,24.928,24.928,0,0,0-2.514-1.522c-.338-.18-.681-.347-1.026-.511.547.094,1.093.186,1.637.274,4.1.656,8.235,1.127,12.28,2.086a10.453,10.453,0,0,0,.693,1.879c.357.816.7,1.64,1.1,2.434a18.524,18.524,0,0,0,3.022,4.179c.393.421,1.08,1.091,1.72.767s.344-1.185.164-1.695a17.359,17.359,0,0,0-2.375-4.479,17.949,17.949,0,0,0-1.781-2.076c-.175-.174-.362-.366-.557-.557.664.149,1.326.3,1.984.477a6.767,6.767,0,0,0,2.392,1.2,27.428,27.428,0,0,0,2.8.927,25.764,25.764,0,0,0,5.809.883c.535.02,1.384.109,1.357-.661A2.464,2.464,0,0,0,369.718,290.067Z" transform="translate(-329.603 -273.813)" fill="#dc9596"/>
  </g>
  <g id="Group_39568" data-name="Group 39568" transform="translate(111.066 13.155)">
    <path id="Path_34557" data-name="Path 34557" d="M326.436,107.255c5.163-4.6,6.559-6.977,8.233-10.327s4.745-10.187,12.559-8.652,7.814,8.233,6,12.28-4.6,4.186-4.465,9.629.977,11.3-7.535,16.606-24.421,13.815-27.77,10.885S321.273,111.86,326.436,107.255Z" transform="translate(-312.842 -88.055)" fill="#fdc2c8"/>
    <g id="Group_39563" data-name="Group 39563" transform="translate(8.549 5.577)">
      <path id="Path_34558" data-name="Path 34558" d="M334.975,137.027c1.654-2.257,3.339-4.49,4.972-6.762s3.246-4.548,4.9-6.8c3.358-4.56,6.753-9.093,10.3-13.506q1.468-1.825,2.956-3.633c.981-1.191,2.021-2.35,2.9-3.622.106-.154-.123-.315-.252-.194a35.023,35.023,0,0,0-2.843,3.2q-1.337,1.611-2.64,3.25-2.59,3.266-5.1,6.6c-3.367,4.456-6.586,9.016-9.845,13.551-1.861,2.59-3.6,5.26-5.388,7.9-.014.021.019.04.034.02Z" transform="translate(-334.937 -102.469)" fill="#c44f50"/>
    </g>
    <g id="Group_39564" data-name="Group 39564" transform="translate(22.124 5.801)">
      <path id="Path_34559" data-name="Path 34559" d="M370.121,118.045a77.278,77.278,0,0,1,1.886-7.624c.753-2.523,1.893-4.863,2.865-7.3.026-.065-.073-.1-.108-.046a31.643,31.643,0,0,0-3.176,7.23,32.779,32.779,0,0,0-1.564,7.727.049.049,0,0,0,.1.013Z" transform="translate(-370.025 -103.049)" fill="#c44f50"/>
    </g>
    <g id="Group_39565" data-name="Group 39565" transform="translate(25.8 11.334)">
      <path id="Path_34560" data-name="Path 34560" d="M379.71,122.424c2.075-.813,4.14-1.65,6.211-2.474q1.531-.609,3.067-1.2.768-.3,1.538-.59a4.156,4.156,0,0,0,1.285-.589.129.129,0,0,0-.09-.218,4.267,4.267,0,0,0-1.4.433q-.77.294-1.538.591-1.584.613-3.163,1.242c-2.022.809-4.034,1.643-6.02,2.538-.151.068-.043.33.113.269Z" transform="translate(-379.525 -117.35)" fill="#c44f50"/>
    </g>
    <g id="Group_39566" data-name="Group 39566" transform="translate(15.42 23.902)">
      <path id="Path_34561" data-name="Path 34561" d="M352.808,156.345a92.364,92.364,0,0,0,9.442-2.853q2.312-.787,4.612-1.608a23.656,23.656,0,0,0,4.475-1.822.125.125,0,0,0-.1-.228,27.75,27.75,0,0,0-4.633,1.512q-2.3.824-4.61,1.613c-3.084,1.054-6.207,2.009-9.238,3.209a.092.092,0,0,0,.049.176Z" transform="translate(-352.696 -149.833)" fill="#c44f50"/>
    </g>
    <g id="Group_39567" data-name="Group 39567" transform="translate(13.715 20.776)">
      <path id="Path_34562" data-name="Path 34562" d="M348.5,154.054a39.936,39.936,0,0,0,1.35-6.114c.159-.956.3-1.916.423-2.877a24.448,24.448,0,0,0,.214-3.214.1.1,0,0,0-.193-.026c-.441,2.036-.688,4.107-1.018,6.168-.322,2.012-.756,4.01-.982,6.036-.014.123.17.134.205.028Z" transform="translate(-348.289 -141.752)" fill="#c44f50"/>
    </g>
  </g>
  <path id="Path_34563" data-name="Path 34563" d="M384.491,181.3a2.965,2.965,0,0,0-2.446-.5,14.364,14.364,0,0,0-5.574,2.217,27.262,27.262,0,0,0-5.014,4.047c-.064.024-.13.043-.193.074,0,0,0,0-.006.006-.526.172-1.054.339-1.578.518-1.951.665-3.876,1.405-5.79,2.169-.568.227-1.134.458-1.7.689a10.07,10.07,0,0,0,1.214-1.041,17.233,17.233,0,0,0,1.667-1.844,16.518,16.518,0,0,0,2.413-4.348c.211-.572.6-1.421.086-1.95-.53-.547-1.172.106-1.583.464a14.465,14.465,0,0,0-3.127,3.907,13.971,13.971,0,0,0-1.722,5.206.12.12,0,0,0,0,.031q-2.585,1.062-5.152,2.17a1.521,1.521,0,0,0-.55.217c-.012.008-.016.02-.025.03q-1.336.579-2.667,1.17c-.529.235-1.057.476-1.579.728a12.8,12.8,0,0,0,.82-1.2,20.649,20.649,0,0,0,1.233-2.184,11.226,11.226,0,0,0,1.217-4.616,2.022,2.022,0,0,0-.542-1.665,1.071,1.071,0,0,0-1.379.015,5,5,0,0,0-1.3,1.908,10.95,10.95,0,0,0-.743,2.231,20.045,20.045,0,0,0-.313,6.019c-.089.047-.18.092-.269.141a9.363,9.363,0,0,0-2.512,1.81.062.062,0,0,0,.075.1c.823-.442,1.6-.971,2.423-1.409.724-.382,1.463-.73,2.21-1.062a8.231,8.231,0,0,0,.908,1.659c.384.589.777,1.174,1.212,1.727a7.963,7.963,0,0,0,3.168,2.608,2.3,2.3,0,0,0,1.716.083,1.171,1.171,0,0,0,.686-1.306,3.558,3.558,0,0,0-1.1-1.7,16.409,16.409,0,0,0-1.689-1.557,12.59,12.59,0,0,0-2.12-1.317c-.384-.194-.778-.373-1.179-.53-.142-.056-.291-.121-.443-.178q1.061-.459,2.124-.912c2.665,2.386,6.308,4.163,9.959,3.572.571-.092,1.525-.226,1.817-.828.264-.543-.276-.941-.691-1.18a17.272,17.272,0,0,0-5.018-2.089,18.541,18.541,0,0,0-2.987-.385c-.3-.014-.606-.016-.908-.01l.3-.126c2.619-1.108,5.635-2.346,8.29-3.359.414.571,4.193,2.377,6.526,2.876a26.089,26.089,0,0,0,3.563.515,4.333,4.333,0,0,0,3.222-.766.259.259,0,0,0-.052-.4,17.353,17.353,0,0,0-6.715-2.816,15.189,15.189,0,0,0-3.629-.325c-.135.005-.277.012-.422.021.193-.07.385-.144.578-.214q1.322-.476,2.656-.917a6.523,6.523,0,0,0,.921-.087q.96-.138,1.912-.32a30.278,30.278,0,0,0,3.459-.84A14.6,14.6,0,0,0,381.14,185a13.778,13.778,0,0,0,2.549-1.764C384.127,182.82,385.088,181.937,384.491,181.3Z" transform="translate(-222.938 -131.729)" fill="#dc9596"/>
  <g id="Group_39574" data-name="Group 39574" transform="translate(0 47.235)">
    <path id="Path_34564" data-name="Path 34564" d="M73.9,194.58c-5.032-8.872-6.621-10.858-9.269-8.607a8.4,8.4,0,0,0-2.781,5.562s-5.826-12.447-10.2-13.242-2.251,9.8-2.251,9.4-9.4-12.315-18.009-11.52-6.356,13.242.265,17.876,18.671,5.164,18.671,5.164-12.315-.132-9.269,7.018,22.908,6.356,22.908,6.356-12.05.4-9.8,4.634,24.762.795,24.762.795S78.935,203.452,73.9,194.58Z" transform="translate(-25.781 -176.137)" fill="#fdc2c8"/>
    <g id="Group_39569" data-name="Group 39569" transform="translate(9.298 9.22)">
      <path id="Path_34565" data-name="Path 34565" d="M49.93,200.312A77.605,77.605,0,0,1,67.985,210.1a177.813,177.813,0,0,1,16.67,13.778c3.085,2.8,6.08,5.7,9.3,8.347.164.135.393-.082.237-.237-2.633-2.628-5.393-5.121-8.132-7.641s-5.506-5-8.334-7.418a105.581,105.581,0,0,0-17.178-12.214,67.361,67.361,0,0,0-10.522-4.733c-.212-.074-.3.259-.092.335Z" transform="translate(-49.812 -199.967)" fill="#c44f50"/>
    </g>
    <g id="Group_39570" data-name="Group 39570" transform="translate(26.552 7.22)">
      <path id="Path_34566" data-name="Path 34566" d="M94.413,194.851c1.456,2.637,2.9,5.287,4.194,8.011q.985,2.082,1.847,4.219.41,1.016.791,2.044a11.593,11.593,0,0,0,.842,2.061c.046.075.19.051.179-.049a9.079,9.079,0,0,0-.639-2.118q-.382-1.027-.792-2.044-.847-2.1-1.812-4.146a55.063,55.063,0,0,0-4.546-8.016.037.037,0,0,0-.064.038Z" transform="translate(-94.407 -194.797)" fill="#c44f50"/>
    </g>
    <g id="Group_39571" data-name="Group 39571" transform="translate(20.961 28.314)">
      <path id="Path_34567" data-name="Path 34567" d="M80.061,251.05c3.047-.031,6.088-.186,9.125-.429q2.252-.18,4.5-.419,1.123-.12,2.245-.256a8.326,8.326,0,0,0,2.174-.382.115.115,0,0,0-.031-.226,9.421,9.421,0,0,0-2.241.205q-1.121.146-2.244.277-2.247.261-4.5.455c-3,.258-6.016.428-9.027.556a.109.109,0,0,0,0,.217Z" transform="translate(-79.956 -249.318)" fill="#c44f50"/>
    </g>
    <g id="Group_39572" data-name="Group 39572" transform="translate(41.891 16.307)">
      <path id="Path_34568" data-name="Path 34568" d="M134.062,218.441c1.347,3,2.5,6.092,3.573,9.2.531,1.532,1.012,3.079,1.477,4.633.232.776.463,1.554.672,2.337a19.5,19.5,0,0,0,.662,2.338c.031.077.165.078.158-.021a14.088,14.088,0,0,0-.5-2.406c-.2-.786-.392-1.573-.606-2.355-.436-1.593-.937-3.169-1.468-4.732a82.959,82.959,0,0,0-3.8-9.094c-.057-.12-.23-.015-.177.1Z" transform="translate(-134.052 -218.285)" fill="#c44f50"/>
    </g>
    <g id="Group_39573" data-name="Group 39573" transform="translate(35.98 37.033)">
      <path id="Path_34569" data-name="Path 34569" d="M119.013,275.367q3.153-.638,6.256-1.466c1-.266,2.007-.535,3.007-.816a30.814,30.814,0,0,0,3.169-.96.14.14,0,0,0-.074-.269c-1.047.212-2.068.566-3.1.849s-2.068.559-3.107.818c-2.078.517-4.165,1-6.253,1.479-.238.054-.137.413.1.365Z" transform="translate(-118.776 -271.852)" fill="#c44f50"/>
    </g>
  </g>
  <path id="Path_34570" data-name="Path 34570" d="M100.733,288.052A12.748,12.748,0,0,0,97.3,287.8c-.859.017-1.716.073-2.573.144a6.466,6.466,0,0,0-1.016-1.042c-.437-.416-.889-.819-1.353-1.2a10.258,10.258,0,0,0-2.977-1.849,2.629,2.629,0,0,0-1.51-.255c-.484.154-.414.635-.246,1.009a5.258,5.258,0,0,0,2.4,2.13,9.394,9.394,0,0,0,3.347,1.339c-1.678.191-3.345.467-5,.812a8.828,8.828,0,0,0-3.889-1.969,13.716,13.716,0,0,0-4.7-.581c-.647.064-3.484.632-2.58,1.785.434.554,1.383.637,2.015.775a23.958,23.958,0,0,0,2.626.418,23.418,23.418,0,0,0,3.143.113c.431-.014.869-.029,1.3-.068-2.255.546-4.483,1.2-6.693,1.9-1.327.422-2.65.862-3.955,1.349-1.348-1.674-3.917-2.311-5.992-2.113-.378.036-2.609.294-2.11,1.037.127.19.435.258.634.339q.494.2,1,.362a14.849,14.849,0,0,0,1.947.44,17.169,17.169,0,0,0,2.152.23,10.81,10.81,0,0,0,1.565.008c-.455.179-.908.363-1.355.558a28.933,28.933,0,0,0-3.183,1.617.214.214,0,0,0-.054-.023,4.8,4.8,0,0,0-2.1.2,9.724,9.724,0,0,0-1.987.744,8.571,8.571,0,0,0-3.2,2.783c-.327.477-.977,1.251-.751,1.871a1.091,1.091,0,0,0,1.341.515,8.1,8.1,0,0,0,2.031-.9A14.744,14.744,0,0,0,67.449,299a13.965,13.965,0,0,0,1.878-1.8,6.569,6.569,0,0,0,1.147-1.721,36.568,36.568,0,0,1,4.72-2.146c-.3.268-.6.53-.876.822a11.076,11.076,0,0,0-1.359,1.822,10.671,10.671,0,0,0-1.567,4.356c-.065.609-.272,3.352,1.1,2.556a5.213,5.213,0,0,0,1.483-1.835,12.142,12.142,0,0,0,1.033-2.3,13.133,13.133,0,0,0,.566-2.83,22.693,22.693,0,0,1,.339-2.857c1.039-.377,2.088-.725,3.134-1.058q1.071-.341,2.15-.666a9.334,9.334,0,0,0-.912.9,8.827,8.827,0,0,0-1.655,2.672,6.729,6.729,0,0,0-.241.741,3.351,3.351,0,0,0-.164.826c.007.434.463.444.759.283a7.383,7.383,0,0,0,2.287-2.24A17.936,17.936,0,0,0,83.06,290.8c1.008-.286,2.019-.56,3.036-.811a9.87,9.87,0,0,0-1.165,2.54,8.364,8.364,0,0,0-.4,3.43c.054.387.156,1,.527,1.225s.723-.081.927-.38a5.084,5.084,0,0,0,.97-3.077c-.027-.671-.017-1.339-.055-2.011a10.715,10.715,0,0,0-.026-1.9s-.005-.007-.007-.01a57.887,57.887,0,0,1,5.918-1.1c.251-.032.5-.06.755-.089-.085.063-.169.126-.251.189a10.276,10.276,0,0,0-1.343,1.277,12.245,12.245,0,0,0-2.076,3.157c-.206.457-.5,1.075-.142,1.535.334.429.977.318,1.418.141a5.8,5.8,0,0,0,2.592-2.582,14.671,14.671,0,0,0,1.005-2.051,6.611,6.611,0,0,0,.589-1.829c.468-.033.936-.061,1.405-.077,1.323-.047,2.649.046,3.967-.094C100.826,288.27,100.871,288.087,100.733,288.052Z" transform="translate(-48.082 -194.754)" fill="#dc9596"/>
  <g id="Group_39576" data-name="Group 39576" transform="translate(22.392 14.384)">
    <path id="Path_34571" data-name="Path 34571" d="M112.189,123.3l-.813,3.925-.123.591-1.116,5.406s-7.033-1.667-15.154-10.74c-.324-.359-.642-.737-.952-1.127q-.135-.161-.27-.335a46.781,46.781,0,0,1-5.412-9.182l-.1-.208c-3.855-8.518-5.639-17.607-3.972-19.178,2.2-2.071,3.9-2.056,12.512,4.48l.389.3c.913.7,1.9,1.464,2.971,2.306a29.134,29.134,0,0,1,3.838,3.628l.366.426A35.367,35.367,0,0,1,112.189,123.3Z" transform="translate(-83.654 -91.231)" fill="#fdc2c8"/>
    <g id="Group_39575" data-name="Group 39575" transform="translate(2.344 3.073)">
      <path id="Path_34572" data-name="Path 34572" d="M100.505,101.8q.348,2.692.64,5.39c.156,1.425.308,2.853.444,4.285.07.712.132,1.427.194,2.142.033.4.054.806.1,1.217q-3.107-4.06-6.21-8.115-2.885-3.783-5.835-7.516c-.058-.073-.165.018-.108.094,3.277,4.485,6.654,8.891,10.016,13.316.756.994,1.507,2,2.258,2.993.017.081.03.162.051.24a.09.09,0,0,0,.156.038q3.817,5.054,7.621,10.119,1.4,1.861,2.81,3.715c.759,1,1.5,2.019,2.328,2.968.214.246.436.492.667.727.088.091.275,0,.2-.13q-.354-.6-.747-1.189c-1.263-1.9-2.765-3.676-4.149-5.474-1.71-2.229-3.44-4.443-5.146-6.671l-3.526-4.61c.006-.53-.059-1.078-.1-1.592-.058-.718-.116-1.433-.181-2.149-.129-1.463-.27-2.922-.435-4.383-.2-1.712-.412-3.413-.655-5.116Z" transform="translate(-89.712 -99.174)" fill="#c44f50"/>
      <path id="Path_34573" data-name="Path 34573" d="M135.926,122.489q.024,2.562-.1,5.127c-.13,2.568-.176,5.192-.552,7.739a.062.062,0,0,1-.123-.01c.064-2.59.33-5.167.366-7.756.027-1.84.047-3.684.046-5.526Z" transform="translate(-117.568 -113.207)" fill="#c44f50"/>
      <path id="Path_34574" data-name="Path 34574" d="M95.634,142.907c1.2-.036,2.4-.092,3.6-.16q1.455-.09,2.91-.22a14.425,14.425,0,0,0,2.984-.388c.107-.035.121-.2-.01-.212a15.893,15.893,0,0,0-2.749.214c-.966.1-1.934.188-2.9.272-1.306.119-2.618.213-3.928.287Z" transform="translate(-93.283 -125.376)" fill="#c44f50"/>
      <path id="Path_34575" data-name="Path 34575" d="M121.431,166.332a25.055,25.055,0,0,1-3.876.614q-1.854.2-3.722.293-1.892.094-3.786.065-.135-.161-.27-.335c1.395.009,2.793-.018,4.182-.086q1.868-.1,3.725-.289c1.239-.132,2.473-.337,3.716-.413A.077.077,0,0,1,121.431,166.332Z" transform="translate(-102.014 -140.256)" fill="#c44f50"/>
    </g>
  </g>
  <path id="Path_34576" data-name="Path 34576" d="M92.893,159.883c-1.21-.794-2.54-1.382-3.808-2.079s-2.5-1.457-3.71-2.257a68.05,68.05,0,0,1-5.927-4.444,9.943,9.943,0,0,0,.147-1.693,21.07,21.07,0,0,0-.032-2.132c-.045-.683-.111-1.371-.211-2.048a3.719,3.719,0,0,0-.518-1.55,1.445,1.445,0,0,0-1.064-.737.755.755,0,0,0-.769.723,11.206,11.206,0,0,0,.305,3.825,13.416,13.416,0,0,0,.8,2.477q-3.28-2.846-6.411-5.9a7.588,7.588,0,0,0,.27-1.983,15.214,15.214,0,0,0-.017-2.629,16.806,16.806,0,0,0-.845-4.115c-.161-.443-.332-1.274-.915-1.308-.553-.033-.932.64-1.129,1.07a5.979,5.979,0,0,0,.039,3.951,21.331,21.331,0,0,0,1.286,3.713q-2.63-2.638-5.108-5.4c-.694-.777-1.358-1.58-2-2.4a4.387,4.387,0,0,0-.294-1.162c-.255-.8-.542-1.582-.821-2.371a26.405,26.405,0,0,0-2.148-4.823c-.689-1.152-3.047-4.484-4.283-2.113a4.456,4.456,0,0,0,.061,3.26,9.789,9.789,0,0,0,1.5,2.906,14.95,14.95,0,0,0,2.614,2.74,14.618,14.618,0,0,0,1.473,1.059,4.872,4.872,0,0,0,1.649.785q1.07,1.4,2.2,2.756a11.317,11.317,0,0,0-7.77-1.013c-.824.191-3.329.845-2.428,2.179.426.631,1.285.6,1.958.635.977.056,1.955.106,2.934.114a23.071,23.071,0,0,0,3.215-.178,15.4,15.4,0,0,0,1.541-.281A5.414,5.414,0,0,0,66.068,139q.46.537.928,1.067A7.957,7.957,0,0,0,63.23,141.2a10.547,10.547,0,0,0-1.693,1.231,6.753,6.753,0,0,0-1.452,1.607,2.523,2.523,0,0,0-.334,1.939c.173.654.657.756,1.271.647a4.409,4.409,0,0,0,1.857-.937c.579-.443,1.139-.917,1.681-1.405a16.2,16.2,0,0,0,1.744-1.814,5.019,5.019,0,0,0,1.151-1.883q1.493,1.658,3.064,3.239,1.8,1.8,3.645,3.573c-2.542-.147-5.145-.164-7.494.965-.465.224-1.019.52-1.1,1.086a.821.821,0,0,0,.754.962,8.435,8.435,0,0,0,2.157-.1,16.409,16.409,0,0,0,2.184-.445,22.843,22.843,0,0,0,2.417-.823q.586-.233,1.161-.49a6.632,6.632,0,0,0,.758-.358,87.6,87.6,0,0,0,7.277,6.194,8.817,8.817,0,0,0-6.7,1.593,4.055,4.055,0,0,0-1.28,1.264c-.264.577.3.8.766.86a7.847,7.847,0,0,0,4.018-.833,14.258,14.258,0,0,0,2.18-1.162q.47-.306.912-.648a2.4,2.4,0,0,0,.682-.653c.366.269.729.541,1.1.8a49.9,49.9,0,0,0,4.252,2.681,17.164,17.164,0,0,0,4.519,1.98A.212.212,0,0,0,92.893,159.883Z" transform="translate(-43.594 -96.73)" fill="#dc9596"/>
  <g id="Group_39597" data-name="Group 39597" transform="translate(39.349 0)">
    <path id="Path_34577" data-name="Path 34577" d="M128.264,95.465c-2.3-6.317.957-10.816,3.446-13.879s4.69-5.743,3.733-10.05-.383-9.284,2.872-12.156,5.456-.957,5.456-.957,5.456-6.509,12.539-3.637A18,18,0,0,1,167.6,70.2c.287,5.934-2.2,16.463-.191,19.526s3.431,6.743,2.489,9.572c-1.914,5.743-10.242,7.645-16.463,7.849C141.76,107.526,130.561,101.783,128.264,95.465Z" transform="translate(-127.482 -54.055)" fill="#51382f"/>
    <path id="Path_34578" data-name="Path 34578" d="M216.955,162.508a34.446,34.446,0,0,1,7.035,7.681c3.589,5.168,8.184,13.424,8.184,13.424s-1,8.9-2.082,10.912-2.154,1.579-2.154,1.579a21.933,21.933,0,0,1-6.03-5.384C219.324,187.274,216.955,162.508,216.955,162.508Z" transform="translate(-182.337 -120.547)" fill="#fff"/>
    <path id="Path_34579" data-name="Path 34579" d="M309.654,75.254a7.469,7.469,0,0,1,6.844.67c3.4,2.249,4.116,5.265,3.685,8.567-.347,2.659-2.871,8.662-2.441,11.725s3.924,5.6,3.111,9.763-5.36,7.37-10.05,6.844-10.337-4.594-10.481-11.1S309.654,75.254,309.654,75.254Z" transform="translate(-233.447 -66.722)" fill="#472d24"/>
    <path id="Path_34580" data-name="Path 34580" d="M279.4,137.035s.072,5.384,0,5.671-3.637,1.651-3.637,1.651-2.608,6.916,1.914,8.136,10.289-2.991,11.582-4.355a24.005,24.005,0,0,0,2.824-4.451s-2.991-.766-3.207-1.483a54.038,54.038,0,0,1-.144-5.671Z" transform="translate(-217.932 -104.621)" fill="#fda2ab"/>
    <path id="Path_34581" data-name="Path 34581" d="M286.379,141.173a7.265,7.265,0,0,0,1.53.077,17.814,17.814,0,0,0,5.434-1.127,13.676,13.676,0,0,0,2.327-1.108c-.008-1.3.009-2.483.009-2.483l-9.332.5S286.379,139.49,286.379,141.173Z" transform="translate(-224.881 -104.621)" fill="#d5cfcd" style="mix-blend-mode: multiply;isolation: isolate"/>
    <path id="Path_34582" data-name="Path 34582" d="M251.429,184.9s-.359,4.307-.5,8.974c-.126,4.105-.574,8.255-.574,8.255s4.882-2.656,6.317-4.882,2.3-4.523,1.794-6.6-3.015-6.676-3.8-6.82S251.429,184.9,251.429,184.9Z" transform="translate(-202.813 -133.609)" fill="#fda2ab"/>
    <path id="Path_34583" data-name="Path 34583" d="M332.87,196.892c-1.721-2.523-9.189,2.943-9.189,2.943s2.585,5.528,2.225,8.974c-.27,2.594-1.721,4.822-3.371,6.868.282.317.558.64.819.975a29.639,29.639,0,0,1,2.783,4.355,27.734,27.734,0,0,0,6.587-7.244C336.029,207.82,334.962,199.958,332.87,196.892Z" transform="translate(-247.068 -141.219)" fill="#fda2ab"/>
    <path id="Path_34584" data-name="Path 34584" d="M258.686,158.982s-2.513.287-4.738,3.948a17.817,17.817,0,0,0-2.3,7.968l6.6.287a72.108,72.108,0,0,0,1.292-8.543A7.666,7.666,0,0,0,258.686,158.982Z" transform="translate(-203.609 -118.385)" fill="#fff"/>
    <path id="Path_34585" data-name="Path 34585" d="M314.4,156.823a5.131,5.131,0,0,1,4.953,1.867c1.794,2.512,5.958,14.572,5.958,14.572s-2.656,1.077-5.6,2.082a36.622,36.622,0,0,0-4.954,2.082s-5.814-3.8-6.173-8.83S313.538,156.751,314.4,156.823Z" transform="translate(-238.504 -117.015)" fill="#fff"/>
    <path id="Path_34586" data-name="Path 34586" d="M137.1,201.647c-.311,3.909-.622,8.914-.814,12.165.967-.017,1.935-.038,2.9-.044,1.5-.009,3-.019,4.505-.021q8-.013,16-.019l7.944,0c1.265,0,2.53,0,3.8,0-.248-3.557-.6-8.871-.78-12.531-.287-5.958.671-19.271.671-19.271s1.957-9.074-1.345-17.186c-2.4-5.9-2.888-10.582-5.931-14.189a20.3,20.3,0,0,0-4.838-3.615c-3.921-2.428-10.669-1.447-10.669-1.447s-9.081,3.589-13.667,9.128c-4.312,5.207-2.965,16.543-1.579,20.962a44.61,44.61,0,0,0,3.159,7.753S137.6,195.33,137.1,201.647Z" transform="translate(-130.22 -109.998)" fill="#fff"/>
    <path id="Path_34587" data-name="Path 34587" d="M171.55,125.4s.216,7.537-.072,8.4-1.651,1.579-1.651,1.579,4.81,5.025,9.117,3.948,4.451-3.3,4.451-3.3a9.456,9.456,0,0,1-1.795-1.651c-.574-.79-.359-5.958-.359-5.958Z" transform="translate(-153.443 -97.796)" fill="#fda2ab"/>
    <path id="Path_34588" data-name="Path 34588" d="M176.212,128.807a17.112,17.112,0,0,0,5.155,2.614,9.628,9.628,0,0,0,2.588.466c-.059-1.647.017-3.473.017-3.473L174.28,125.4s.021.715.04,1.73A14.353,14.353,0,0,0,176.212,128.807Z" transform="translate(-156.173 -97.796)" fill="#d5cfcd" style="mix-blend-mode: multiply;isolation: isolate"/>
    <path id="Path_34589" data-name="Path 34589" d="M163.89,71.88s.933,12.275,1.723,15.147,2.656,5.24,8.686,6.963,8.184.5,10.409-4.666,1.292-15.65.215-17.8-10.983-4.738-14.716-3.446A18.922,18.922,0,0,0,163.89,71.88Z" transform="translate(-149.803 -62.438)" fill="#fda2ab"/>
    <path id="Path_34590" data-name="Path 34590" d="M268.108,75.979s-2.067,10.939-1.76,13.051c.3,2.033,2.478,9.059,6.211,9.921s8.112.574,11.414-1.938c2.386-1.816,4.164-8.112,4.881-12.85s-10.265-13.64-13.783-12.994S268.324,75.117,268.108,75.979Z" transform="translate(-212.601 -64.527)" fill="#fda2ab"/>
    <path id="Path_34591" data-name="Path 34591" d="M159.469,82.2s2.68-1.675,4.068-6.269,1.244-8.136.622-9-5.169-.479-7.083,2.536-.91,9.237-.12,10.864A3.539,3.539,0,0,0,159.469,82.2Z" transform="translate(-144.952 -61.706)" fill="#51382f"/>
    <path id="Path_34592" data-name="Path 34592" d="M160.988,103.419s-2.154-2.585-3.877-1.579-.828,4.02,1.866,4.666a4.232,4.232,0,0,0,3.159-.5Z" transform="translate(-145.107 -83.209)" fill="#fda2ab"/>
    <path id="Path_34593" data-name="Path 34593" d="M172.472,66.017a20.371,20.371,0,0,1,11.295,1.532c5.982,2.632,8.327,5.982,8.327,5.982s-.909-7.848-4.4-10.96S176.779,59.078,174,61.279a11.3,11.3,0,0,0-3.063,4.547Z" transform="translate(-154.126 -57.628)" fill="#51382f"/>
    <path id="Path_34594" data-name="Path 34594" d="M275.119,69.018a10.983,10.983,0,0,0-4.5,2.776,11.777,11.777,0,0,0-3.254,4.355,23.045,23.045,0,0,0-.766,3.685,14.273,14.273,0,0,1,.718-9.141c2.393-5.265,7.658-7.945,14.118-7.083s9.572,5.025,10.385,10.72c.862,6.036-.862,8.662-.862,8.662a11.147,11.147,0,0,1-2.871-.383A82.806,82.806,0,0,1,279,73.564C276.185,70.307,275.119,69.018,275.119,69.018Z" transform="translate(-212.504 -59.816)" fill="#51382f"/>
    <path id="Path_34595" data-name="Path 34595" d="M317.823,111.394s4.126-3.128,5.025-1.651c1,1.651-.288,4.307-2.441,5.025a5.16,5.16,0,0,1-3.446-.287Z" transform="translate(-243.65 -87.954)" fill="#fda2ab"/>
    <path id="Path_34596" data-name="Path 34596" d="M164.168,151.491l2.764-1.507s4.379,4.738,8.363,3.948,4.092-3.446,4.092-3.446,3.159,1.831,3.482,2.549.1,11.827-1.01,15.345-2.22,7.089-3.01,6.765S164.168,151.491,164.168,151.491Z" transform="translate(-149.974 -112.868)" fill="#c44f50"/>
    <path id="Path_34597" data-name="Path 34597" d="M255.639,154.864s-4.068.862-4.834,1.723.287,3.015-.479,5.791-3.589,5.265-4.355,8.136a6.713,6.713,0,0,0,1.292,5.982c.766.957,1.818,2.058,1.818,2.058a32.943,32.943,0,0,0-6.365,6.939c-2.3,3.685-3.015,9.524-1.579,13.209a20.881,20.881,0,0,0,4.02,6.317,65.635,65.635,0,0,0-.077,8.264,57.282,57.282,0,0,0,.67,5.7l30.371.015s1.723-8.686,1.22-14.286a44.294,44.294,0,0,0-3.039-12.754,77.42,77.42,0,0,0-3.35-7.992l2.585-8.183s-3.3-1.484-4.259-6.509.622-9.332,2.345-11.2A10.275,10.275,0,0,1,275,155.479c.24-.1-4.765-.95-4.765-.95s-4.211,8.232-11.582,8.04S255.639,154.864,255.639,154.864Z" transform="translate(-196.71 -115.655)" fill="#c44f50"/>
    <path id="Path_34598" data-name="Path 34598" d="M234.738,244.886a37.985,37.985,0,0,0,4.068-1c.527-.287,2.082-3.541,3.518-5.121s2.01-2.01,1.842-2.273c-.221-.347-1.531.144-2.728,1.2s-2.01,1.914-2.01,1.914a11.524,11.524,0,0,1,3.3-3.517c1.057-.745,1.819-.909,1.484-1.388s-1.819-.1-3.35,1.1a12.558,12.558,0,0,0-2.393,2.441,9.979,9.979,0,0,1,2.345-2.824c1.531-1.244,2.2-1.675,2.106-2.106s-2.082.167-3.422,1.459a16.261,16.261,0,0,0-2.034,2.321,12.361,12.361,0,0,1,2.149-2.873c1.026-.831,2.137-1.6,2.039-1.984s-1.382-.244-2.982,1.165a11.734,11.734,0,0,0-2.5,3.262s.383-1.244-.479-.861-2.536,2.871-2.536,2.871.622,2.058,1.1,3.637A9.887,9.887,0,0,1,234.738,244.886Z" transform="translate(-192.272 -163.179)" fill="#fda2ab"/>
    <path id="Path_34599" data-name="Path 34599" d="M160.368,150.966s7.25,12.491,10.05,16.8,4.092,5.886,4.092,5.886a63.344,63.344,0,0,0,2.369-11.127c.431-4.953.407-10.074.407-10.074a12.745,12.745,0,0,1,3.326,2.728,1.887,1.887,0,0,1,.431,1.244s.215,6.1-.215,6.461-2.8-.144-2.8-.144,3.087,3.087,2.871,3.8-4.81,13.352-5.743,14-3.876-5.384-6.963-8.543-5.671-4.523-5.6-4.882,1.005-4.738.431-4.738-1.795,1.938-2.3,1.723-5.1-10.337-4.379-11.2S159.794,150.751,160.368,150.966Z" transform="translate(-145.133 -113.456)" fill="#fff"/>
    <path id="Path_34600" data-name="Path 34600" d="M299.007,240.27c-.759-.739-1.536-1.516-2.377-2.2a29.257,29.257,0,0,1-3.874,5.222,17.462,17.462,0,0,1-5.1,3.948s-6.461-.431-6.82.574,4.092,1.22,4.092,1.22a15.806,15.806,0,0,1-3.793,1.759c-1.723.431-4.606.251-4.319.969s2.708.8,3.936.766a8.759,8.759,0,0,0,2.525-.574,8.764,8.764,0,0,1-4.115,1.481c-2.063.349-2.685.176-2.461.847s2.648.487,4.027.28a18.58,18.58,0,0,0,2.86-.706,10.284,10.284,0,0,1-3.879,1.61c-1.252.224-2.3.33-2.117.908.146.454,3,.352,4.247-.009a17.2,17.2,0,0,0,2.658-1.1,7.267,7.267,0,0,1-2.764,1.651c-1.463.582-1.99.713-1.7,1,.639.619,3.541-.125,5.772-1.552a20.848,20.848,0,0,0,4.361-4.236s7.176-4.2,11.651-8.946C300.916,242.178,299.973,241.21,299.007,240.27Z" transform="translate(-218.943 -166.873)" fill="#fda2ab"/>
    <path id="Path_34601" data-name="Path 34601" d="M204.843,101.181a5.564,5.564,0,0,0-1.448.046l-.5.03c-.082.005-.32.062-.376.023-.162-.114-.111-.754-.121-.933-.069-1.19-.09-2.39-.106-3.581a.147.147,0,0,0-.294,0,16.477,16.477,0,0,0-.01,3.07,8.237,8.237,0,0,0,.181,1.44c.1.368.47.27.789.265.5-.007,1-.019,1.506-.022.229,0,.555-.01.366.316a2,2,0,0,1-.447.448,3.081,3.081,0,0,1-1.164.6c-.411.113-.829.14-1.23.286a.156.156,0,0,0,0,.3,2.761,2.761,0,0,0,2.483-.731c.294-.227.745-.579.831-.964C205.37,101.45,205.126,101.243,204.843,101.181Z" transform="translate(-173.093 -80.154)" fill="#b4a9a5" style="mix-blend-mode: multiply;isolation: isolate"/>
    <path id="Path_34602" data-name="Path 34602" d="M211.5,100.2a1.308,1.308,0,0,0-.47-.471.757.757,0,0,0-.846.039,1.263,1.263,0,0,0-.379.876,2.448,2.448,0,0,0,.044.824,1.158,1.158,0,0,0,.242.513.675.675,0,0,0,.58.173,1.341,1.341,0,0,0,.672-.265.955.955,0,0,0,.284-.459,1.567,1.567,0,0,0,.052-.785A1.378,1.378,0,0,0,211.5,100.2Z" transform="translate(-177.946 -81.991)" fill="#472d24"/>
    <path id="Path_34603" data-name="Path 34603" d="M192.416,100.4a1.41,1.41,0,0,0-.506-.508.816.816,0,0,0-.912.043,1.36,1.36,0,0,0-.408.943,2.63,2.63,0,0,0,.047.888,1.244,1.244,0,0,0,.261.552.725.725,0,0,0,.624.186,1.439,1.439,0,0,0,.723-.285,1.03,1.03,0,0,0,.306-.495,1.687,1.687,0,0,0,.056-.846A1.5,1.5,0,0,0,192.416,100.4Z" transform="translate(-166.163 -82.083)" fill="#472d24"/>
    <path id="Path_34604" data-name="Path 34604" d="M190.723,93.62a5.126,5.126,0,0,0-2.038-.09,1.328,1.328,0,0,0-1.109.679" transform="translate(-164.325 -78.218)" fill="none" stroke="#472d24" stroke-miterlimit="10" stroke-width="1.215"/>
    <path id="Path_34605" data-name="Path 34605" d="M209.54,93.265a3.286,3.286,0,0,1,1.513-.093,1.989,1.989,0,0,1,1.272.829" transform="translate(-177.791 -78.006)" fill="none" stroke="#472d24" stroke-miterlimit="10" stroke-width="1.173"/>
    <g id="Group_39577" data-name="Group 39577" transform="translate(24.417 24.842)">
      <path id="Path_34606" data-name="Path 34606" d="M190.591,118.26a35.5,35.5,0,0,0,5.4.313,17.068,17.068,0,0,0,3.564-.274s-.979,3.955-4.386,4.034S190.591,118.26,190.591,118.26Z" transform="translate(-190.591 -118.26)" fill="#472d24"/>
      <path id="Path_34607" data-name="Path 34607" d="M196.25,119.07a2.4,2.4,0,0,0,1.154.487,9.972,9.972,0,0,0,2.449.105,3.864,3.864,0,0,0,1.73-.4,1.762,1.762,0,0,0,.647-.633,26.1,26.1,0,0,1-2.938.169c-1.295.016-2.429-.034-3.323-.1A1.881,1.881,0,0,0,196.25,119.07Z" transform="translate(-193.888 -118.489)" fill="#fff"/>
      <path id="Path_34608" data-name="Path 34608" d="M199.152,126.03a4.507,4.507,0,0,0-1.831-.758,8.707,8.707,0,0,0-1.81-.079,5.792,5.792,0,0,0-.806.08,3.933,3.933,0,0,0,4.633.912C199.277,126.133,199.22,126.078,199.152,126.03Z" transform="translate(-193.114 -122.503)" fill="#fb6776"/>
    </g>
    <path id="Path_34609" data-name="Path 34609" d="M275.26,109.083a5.685,5.685,0,0,1,1.468.214l.507.089c.083.014.319.1.38.067.178-.1.2-.754.231-.936.207-1.2.367-2.42.52-3.631a.15.15,0,0,1,.3.034,16.863,16.863,0,0,1-.344,3.125,8.39,8.39,0,0,1-.35,1.444c-.148.363-.51.22-.833.178-.51-.065-1.019-.135-1.529-.2-.232-.028-.563-.074-.409.279a2.06,2.06,0,0,0,.4.507,3.155,3.155,0,0,0,1.116.741c.4.162.827.238,1.219.432a.16.16,0,0,1-.034.3,2.825,2.825,0,0,1-2.442-1.03,2.162,2.162,0,0,1-.734-1.076C274.693,109.295,274.965,109.113,275.26,109.083Z" transform="translate(-217.756 -85.139)" fill="#b4a9a5" style="mix-blend-mode: multiply;isolation: isolate"/>
    <g id="Group_39578" data-name="Group 39578" transform="translate(73.131 51.15)">
      <path id="Path_34610" data-name="Path 34610" d="M316.5,186.4q.886,2.309,1.793,4.608l.894,2.258a10.953,10.953,0,0,1,.8,2.219c.012.084.133.055.139-.019a4.274,4.274,0,0,0-.464-2.146l-1-2.414q-.959-2.3-1.946-4.6c-.051-.12-.26-.033-.212.09Z" transform="translate(-316.497 -186.256)" fill="#bbb1ae"/>
    </g>
    <g id="Group_39579" data-name="Group 39579" transform="translate(59.274 62.383)" style="mix-blend-mode: multiply;isolation: isolate">
      <path id="Path_34611" data-name="Path 34611" d="M280.708,215.56c.941,1.63,2.828,2.28,4.6,2.511a7.5,7.5,0,0,0,5.611-1.2c.067-.056-.007-.15-.079-.135-.837.176-1.651.444-2.5.588a10.756,10.756,0,0,1-2.735.121c-1.613-.139-3.584-.7-4.584-2.069-.137-.189-.441-.024-.32.187Z" transform="translate(-280.68 -215.29)" fill="#c8c0bd"/>
    </g>
    <g id="Group_39580" data-name="Group 39580" transform="translate(67.347 72.97)" style="mix-blend-mode: multiply;isolation: isolate">
      <path id="Path_34612" data-name="Path 34612" d="M301.8,244.887a10.7,10.7,0,0,0,1.617-.851,4.04,4.04,0,0,0,1.326-1.217.112.112,0,0,0-.152-.152,14.286,14.286,0,0,0-1.435,1.023,10.681,10.681,0,0,1-1.525.907c-.2.1-.024.373.17.291Z" transform="translate(-301.546 -242.653)" fill="#c8c0bd"/>
    </g>
    <g id="Group_39581" data-name="Group 39581" transform="translate(68.664 75.285)" style="mix-blend-mode: multiply;isolation: isolate">
      <path id="Path_34613" data-name="Path 34613" d="M305.213,249.949a19.9,19.9,0,0,0,1.878-1.114c.088-.063.038-.239-.08-.191a20.286,20.286,0,0,0-1.975,1c-.2.108-.021.412.177.3Z" transform="translate(-304.95 -248.636)" fill="#c8c0bd"/>
    </g>
    <g id="Group_39582" data-name="Group 39582" transform="translate(50 90.211)" style="mix-blend-mode: multiply;isolation: isolate">
      <path id="Path_34614" data-name="Path 34614" d="M256.838,287.589a10.928,10.928,0,0,0,3.481.776,7.014,7.014,0,0,0,3.422-.556.129.129,0,0,0-.065-.238,29.014,29.014,0,0,1-3.357.284,10.613,10.613,0,0,1-3.381-.629c-.232-.083-.321.275-.1.363Z" transform="translate(-256.711 -287.213)" fill="#c8c0bd"/>
    </g>
    <g id="Group_39583" data-name="Group 39583" transform="translate(29.376 60.619)">
      <path id="Path_34615" data-name="Path 34615" d="M203.411,210.811c-.031,2.748.122,5.5.18,8.249q.086,4.072.26,8.142c.226,5.46.32,10.927.475,16.39q.064,2.249.13,4.5c.046,1.562,0,3.16.172,4.713a.157.157,0,0,0,.313,0c.064-1.349-.054-2.721-.1-4.071q-.067-2.089-.135-4.178-.134-4.071-.269-8.142c-.189-5.463-.3-10.927-.5-16.39-.111-3.067-.144-6.152-.366-9.213a.083.083,0,0,0-.167,0Z" transform="translate(-203.407 -210.731)" fill="#bbb1ae"/>
    </g>
    <g id="Group_39584" data-name="Group 39584" transform="translate(12.155 38.525)">
      <path id="Path_34616" data-name="Path 34616" d="M158.9,153.829c.381,2.028.932,4.032,1.513,6.011a56.024,56.024,0,0,0,2.019,5.861.147.147,0,0,0,.242.064,12.416,12.416,0,0,1,2.234-1.541l-.2-.114q-.14,1.6-.282,3.192a3.781,3.781,0,0,0-.057,1.465,1.076,1.076,0,0,0,.418.453,42.405,42.405,0,0,1,4.36,3.9,48.228,48.228,0,0,1,3.888,4.5c.575.754,1.136,1.522,1.672,2.305.507.742.95,1.532,1.524,2.225.089.108.294-.008.24-.14a12.184,12.184,0,0,0-1.319-2.237q-.763-1.121-1.6-2.192a52.486,52.486,0,0,0-3.7-4.217,41.456,41.456,0,0,0-4.062-3.672,5.135,5.135,0,0,1-1.057-.837c-.266-.391-.054-1.11-.019-1.549l.252-3.192a.133.133,0,0,0-.2-.114,21.942,21.942,0,0,0-2.277,1.541l.213.087c-.7-1.947-1.4-3.886-1.993-5.869s-1.044-4-1.507-6.013c-.047-.2-.35-.116-.311.086Z" transform="translate(-158.897 -153.627)" fill="#bbb1ae"/>
    </g>
    <g id="Group_39585" data-name="Group 39585" transform="translate(29.672 42.153)">
      <path id="Path_34617" data-name="Path 34617" d="M210.038,163.1c-.113,2.477-.3,4.919-.586,7.382l.161-.161a12.3,12.3,0,0,1-1.7-.241.164.164,0,0,0-.183.237q.591,1.1,1.157,2.21a4.841,4.841,0,0,1,.852,2.169,4.783,4.783,0,0,1-.365,1.236q-.2.579-.414,1.154c-.27.736-.564,1.464-.861,2.189-1.221,2.987-2.617,5.9-3.919,8.844-.032.073.066.135.109.064.457-.765.917-1.506,1.305-2.309q.534-1.1,1.038-2.223,1.042-2.3,1.948-4.665c.3-.8.6-1.594.892-2.393a5.768,5.768,0,0,0,.622-2.162,5.417,5.417,0,0,0-.8-1.9c-.411-.8-.841-1.591-1.285-2.375l-.139.243a12.276,12.276,0,0,1,1.7.24.164.164,0,0,0,.2-.113,31.034,31.034,0,0,0,.466-7.425.1.1,0,0,0-.2,0Z" transform="translate(-204.172 -163.004)" fill="#bbb1ae"/>
    </g>
    <path id="Path_34618" data-name="Path 34618" d="M211.792,171.078c-.077-.985-.2-1.974-.361-2.949a3.593,3.593,0,0,0-1-2.2,9.693,9.693,0,0,0-4.355-2.021,10.1,10.1,0,0,0,.221-2.1q.052-1.212.1-2.425a22.018,22.018,0,0,0-.14-4.673c-.415-2.327-1.848-4.594-4.342-4.976a.111.111,0,0,0-.047.217c2.438.751,3.509,3.487,3.693,5.807a33.729,33.729,0,0,1-.04,4.1,20.136,20.136,0,0,0-.031,3.958,9.561,9.561,0,0,0-4.022,2.481,3.61,3.61,0,0,0-.738,2.3c-.051.987-.057,1.983-.02,2.971a57.807,57.807,0,0,0,.623,6.116c.087.6,0,1.62.718,1.8a5.4,5.4,0,0,0,1.338.067,8.1,8.1,0,0,0,1.295-.106c0,.023,0,.046,0,.068a.847.847,0,0,0,.088.545.387.387,0,0,0,.6.034,1.193,1.193,0,0,0,.272-.566,2.123,2.123,0,0,0-.072-1.259.94.94,0,0,0-.375-.522.434.434,0,0,0-.607.177,1.374,1.374,0,0,0-.052.726c0,.05.013.1.019.149-.333.022-.665.053-1,.057-.207,0-.415,0-.622-.01-.1,0-.67.014-.732-.063.016.019-.005-.52,0-.515-.024-.21-.05-.421-.074-.631q-.071-.631-.13-1.263c-.156-1.652-.214-3.313-.292-4.97-.038-.811-.088-1.622-.123-2.432-.038-.879-.195-1.7.442-2.406a8.4,8.4,0,0,1,1.9-1.516,1.317,1.317,0,0,0,.7.219,5.4,5.4,0,0,0,1.073.009,6.332,6.332,0,0,0,1.028-.186,2.384,2.384,0,0,0,.747-.283,8.779,8.779,0,0,1,2.45,1.458c.689.607.647,1.384.708,2.234s.108,1.691.164,2.536c.112,1.655.245,3.312.28,4.971q.014.635.016,1.27c0,.212,0,.423,0,.635,0,.1.07.482.055.512-.08.156-1.02.193-1.233.217-.368.041-.734.05-1.1.069,0-.024,0-.048,0-.072a2.186,2.186,0,0,0-.067-.646.453.453,0,0,0-.553-.325.706.706,0,0,0-.411.49,2.124,2.124,0,0,0-.017,1.26,1.6,1.6,0,0,0,.266.552c.16.2.417.314.631.121a.607.607,0,0,0,.119-.575l-.023-.143a6.827,6.827,0,0,0,2.619-.266c.686-.25.489-1.279.506-1.875A57.757,57.757,0,0,0,211.792,171.078Zm-6.742,7.727s-.012,0-.017-.007q0-.159.006-.318a1.725,1.725,0,0,1,.068.391A.283.283,0,0,0,205.05,178.806Zm-.083.95-.009.017C204.955,179.767,204.96,179.761,204.967,179.755Zm1.717-15.183a5.519,5.519,0,0,1-.923.188,7.086,7.086,0,0,1-.91.044,3.454,3.454,0,0,1-.463-.031c.393-.213.794-.4,1.189-.569a.234.234,0,0,0,.3.057c.295.081.6.175.9.28C206.744,164.552,206.713,164.564,206.685,164.572Zm1.6,13.875q.021.159.043.319s-.012,0-.016.009a.283.283,0,0,0-.046.067c0-.035-.01-.07-.01-.1A1.472,1.472,0,0,1,208.284,178.447Z" transform="translate(-172.362 -112.709)" fill="#472d24"/>
    <g id="Group_39588" data-name="Group 39588" transform="translate(14.987 34.18)">
      <g id="Group_39586" data-name="Group 39586">
        <path id="Path_34619" data-name="Path 34619" d="M170.4,165.9a.182.182,0,0,1-.31.125,6.306,6.306,0,0,1-1.279-2.649c-.362-1.008-.685-2.033-.978-3.067a40.887,40.887,0,0,1-1.619-11.009,9.421,9.421,0,0,1,1.047-4.832A5.278,5.278,0,0,1,169.4,142.4c0,.276-.013.534-.022.762a5.216,5.216,0,0,0-1.96,2.778,13.461,13.461,0,0,0-.246,5.035,49.389,49.389,0,0,0,.681,5.16c.306,1.684.7,3.351,1.172,4.992.228.81.487,1.606.749,2.4A6.29,6.29,0,0,1,170.4,165.9Z" transform="translate(-166.217 -142.395)" fill="#472d24"/>
      </g>
      <path id="Path_34620" data-name="Path 34620" d="M177.872,201.041a1.742,1.742,0,0,0-1.592-.327,2.993,2.993,0,0,0-.932.465c-.178.126-.328.288-.5.419a2.3,2.3,0,0,1-.512.243,2.288,2.288,0,0,0-1.445,2c-.05.51-.1,1.2.347,1.549a1.654,1.654,0,0,0,1.3.208,5.206,5.206,0,0,0,2.847-1.614C178.05,203.258,178.8,201.878,177.872,201.041Z" transform="translate(-170.287 -178.11)" fill="#a0928d"/>
      <g id="Group_39587" data-name="Group 39587" transform="translate(3.818 24.588)">
        <path id="Path_34621" data-name="Path 34621" d="M176.119,207.671a1.25,1.25,0,0,0,.368.12,1.371,1.371,0,0,0,.444-.027,2.079,2.079,0,0,0,.793-.372A3.2,3.2,0,0,0,178.762,206c.018-.044-.046-.073-.076-.044a13.814,13.814,0,0,1-1.116,1.086,2.373,2.373,0,0,1-.654.346,2.727,2.727,0,0,1-.764.159c-.06,0-.1.093-.033.122Z" transform="translate(-176.086 -205.946)" fill="#472d24"/>
      </g>
      <path id="Path_34622" data-name="Path 34622" d="M176.709,202.012a2.741,2.741,0,0,0-.31-.688,1.355,1.355,0,0,0-1.152-.668.961.961,0,0,0-.97.81,1.892,1.892,0,0,0,.119.9,3.753,3.753,0,0,0,.2.481.919.919,0,0,0,.372.43.776.776,0,0,0,.642-.053c.2-.068.4-.165.6-.234a.91.91,0,0,0,.491-.328A.746.746,0,0,0,176.709,202.012Z" transform="translate(-171.15 -178.114)" fill="#472d24"/>
    </g>
    <path id="Path_34623" data-name="Path 34623" d="M180.8,236.722a23.724,23.724,0,0,0,7.25,3.087c3.8.79,7.544,1.184,7.544,1.184a9.221,9.221,0,0,1,1.932,4.056,10.876,10.876,0,0,1,.538,3.272s-3.164,1.8-10.8,2.388c-7.881.611-11.634-.564-14.434-1.353S175.056,235.214,180.8,236.722Z" transform="translate(-154.796 -165.974)" fill="#fff"/>
    <g id="Group_39589" data-name="Group 39589" transform="translate(14.297 51.711)">
      <path id="Path_34624" data-name="Path 34624" d="M164.433,187.835a24.677,24.677,0,0,0,4.858,13.672c3.112,3.93,7.73,6.483,12.466,7.927a42.434,42.434,0,0,0,4.567,1.1,23.971,23.971,0,0,0,4.61.619.122.122,0,0,0,.032-.238c-1.275-.339-2.641-.428-3.941-.67s-2.615-.533-3.9-.883a31.37,31.37,0,0,1-7.1-2.812,21.079,21.079,0,0,1-9.472-10.693,31.4,31.4,0,0,1-1.847-8.028c-.019-.167-.279-.175-.268,0Z" transform="translate(-164.433 -187.706)" fill="#bbb1ae"/>
    </g>
    <g id="Group_39590" data-name="Group 39590" transform="translate(6.008 72.939)">
      <path id="Path_34625" data-name="Path 34625" d="M143.016,242.627a22.506,22.506,0,0,0,12.527,10.566,36.691,36.691,0,0,0,16.181,1.14,36.1,36.1,0,0,0,8.7-2.222c.211-.085.119-.431-.1-.346a38.443,38.443,0,0,1-15.593,2.47c-5.36-.194-10.923-1.346-15.281-4.637a32.674,32.674,0,0,1-6.375-7.01.038.038,0,0,0-.065.038Z" transform="translate(-143.01 -242.572)" fill="#bbb1ae"/>
    </g>
    <g id="Group_39591" data-name="Group 39591" transform="translate(37.047 48.714)">
      <path id="Path_34626" data-name="Path 34626" d="M223.245,180.132a43.587,43.587,0,0,1,3.844,9.37,18.236,18.236,0,0,1,.439,5.14c-.1,1.8-.357,3.585-.468,5.383-.063,1.025-.1,2.053-.118,3.08a25.876,25.876,0,0,0,0,3.19.149.149,0,0,0,.3,0c.107-.909.051-1.849.067-2.764.017-.956.045-1.913.1-2.869.1-1.873.362-3.728.489-5.6a21.293,21.293,0,0,0-1.924-9.783c-.761-1.8-1.619-3.541-2.531-5.264-.068-.13-.26-.015-.2.115Z" transform="translate(-223.233 -179.96)" fill="#bbb1ae"/>
    </g>
    <g id="Group_39592" data-name="Group 39592" transform="translate(64.012 18.004)">
      <path id="Path_34627" data-name="Path 34627" d="M293.218,101.213a2.437,2.437,0,0,1,1.443.375,3.511,3.511,0,0,1,.585.437c.109.094.207.205.321.293a2.859,2.859,0,0,0,.31.238.181.181,0,0,0,.269-.155,1.319,1.319,0,0,0-.368-.908,2.323,2.323,0,0,0-.746-.58,3.076,3.076,0,0,0-1.894-.282c-.329.055-.253.6.079.582Z" transform="translate(-292.927 -100.588)" fill="#472d24"/>
    </g>
    <g id="Group_39593" data-name="Group 39593" transform="translate(55.418 17.369)">
      <path id="Path_34628" data-name="Path 34628" d="M272.811,98.99a1.96,1.96,0,0,0-1.421.236,1.532,1.532,0,0,0-.538.546,1.058,1.058,0,0,0-.1.205.482.482,0,0,0-.016.133c0,.068.017-.061,0,.012a.815.815,0,0,0,0,.381.184.184,0,0,0,.305.08c.031-.033.066-.062.1-.093a.917.917,0,0,0,.064-.08c.012-.016.01-.014-.005.007l.023-.027c.015-.016.009-.014-.018.008l.018-.012a.624.624,0,0,0,.106-.077c.033-.032.061-.067.093-.1.069-.067.137-.135.21-.2l.048-.04c.037-.031-.067.047-.008.008.042-.028.082-.059.123-.088a1.754,1.754,0,0,1,.238-.141l.068-.032c.062-.029-.052.019-.008,0s.086-.032.131-.045.1-.026.145-.036l.061-.011c.043-.008-.072.006-.005,0a1.806,1.806,0,0,1,.3,0,.328.328,0,0,0,.087-.643Z" transform="translate(-270.714 -98.946)" fill="#472d24"/>
    </g>
    <g id="Group_39594" data-name="Group 39594" transform="translate(58.378 28.08)">
      <path id="Path_34629" data-name="Path 34629" d="M278.49,128.111a7.351,7.351,0,0,0,2.005.6,7.235,7.235,0,0,0,2.048-.064,5.9,5.9,0,0,0,1.7-.583,2.348,2.348,0,0,0,1.251-1.219.17.17,0,0,0-.208-.208,8.159,8.159,0,0,0-1.375.751,5.826,5.826,0,0,1-1.569.546,6.791,6.791,0,0,1-1.851.085,11.3,11.3,0,0,1-1.908-.259.183.183,0,0,0-.1.352Z" transform="translate(-278.365 -126.629)" fill="#472d24"/>
    </g>
    <g id="Group_39595" data-name="Group 39595" transform="translate(55.148 19.981)">
      <path id="Path_34630" data-name="Path 34630" d="M270.467,108.288a5.558,5.558,0,0,1,.236-.758,3.15,3.15,0,0,1,.362-.71,1,1,0,0,1,1.043-.46,1.338,1.338,0,0,1,.693.832,3.783,3.783,0,0,1,.18.713c.02.127.03.255.045.383a.735.735,0,0,0,.073.282c0,.007.175.213.111.119a.208.208,0,0,0,.356,0,1.3,1.3,0,0,0,.108-.158.634.634,0,0,0,.037-.214,2.428,2.428,0,0,0-.06-.474,4.664,4.664,0,0,0-.163-.68,2.477,2.477,0,0,0-.668-1.094,1.51,1.51,0,0,0-1.253-.353,1.732,1.732,0,0,0-1.146.81,3.469,3.469,0,0,0-.4,1.7c-.018.259.384.306.448.061Z" transform="translate(-270.018 -105.697)" fill="#472d24"/>
    </g>
    <g id="Group_39596" data-name="Group 39596" transform="translate(62.663 20.753)">
      <path id="Path_34631" data-name="Path 34631" d="M289.891,110.277a4.494,4.494,0,0,1,.273-.8,2.713,2.713,0,0,1,.387-.645,1.335,1.335,0,0,1,1.286-.477,1.467,1.467,0,0,1,.862.826,2.859,2.859,0,0,1,.21.646c.036.163.054.327.08.492a.694.694,0,0,0,.06.217.59.59,0,0,0,.08.117c.068.051.082.062.042.034a.213.213,0,0,0,.365,0,.725.725,0,0,0,.133-.389,2.682,2.682,0,0,0-.081-.511,4.113,4.113,0,0,0-.214-.7,2.486,2.486,0,0,0-.787-1.055,1.932,1.932,0,0,0-2.655.458,3.239,3.239,0,0,0-.489,1.719c-.025.261.382.3.448.061Z" transform="translate(-289.441 -107.693)" fill="#472d24"/>
    </g>
  </g>
</svg>
