<svg id="Illustration" xmlns="http://www.w3.org/2000/svg" xmlns:xlink="http://www.w3.org/1999/xlink" width="108.09" height="108.115" viewBox="0 0 108.09 108.115">
  <defs>
    <linearGradient id="linear-gradient" x1="0.738" y1="1.352" x2="0.04" y2="0.746" gradientUnits="objectBoundingBox">
      <stop offset="0" stop-color="#b37cff"/>
      <stop offset="1" stop-color="#f895e7"/>
    </linearGradient>
    <linearGradient id="linear-gradient-2" x1="0.337" y1="0.997" x2="-1.015" y2="0.244" gradientUnits="objectBoundingBox">
      <stop offset="0" stop-color="#cb236d"/>
      <stop offset="1" stop-color="#4c246d"/>
    </linearGradient>
    <linearGradient id="linear-gradient-3" x1="-0.255" y1="1.06" x2="0.447" y2="-0.121" gradientUnits="objectBoundingBox">
      <stop offset="0" stop-color="#a737d5"/>
      <stop offset="1" stop-color="#ef497a"/>
    </linearGradient>
    <linearGradient id="linear-gradient-4" x1="-0.301" y1="1.01" x2="0.333" y2="0.103" xlink:href="#linear-gradient-3"/>
    <linearGradient id="linear-gradient-5" x1="0.533" y1="-0.219" x2="1.852" y2="1.397" gradientUnits="objectBoundingBox">
      <stop offset="0" stop-color="#fdf53f"/>
      <stop offset="1" stop-color="#d93c65"/>
    </linearGradient>
    <linearGradient id="linear-gradient-6" x1="0.308" y1="-0.204" x2="2.133" y2="0.798" xlink:href="#linear-gradient-5"/>
    <linearGradient id="linear-gradient-7" x1="0.118" y1="-0.189" x2="2.075" y2="0.365" xlink:href="#linear-gradient-5"/>
    <linearGradient id="linear-gradient-8" x1="0.879" y1="-0.148" x2="1.247" y2="1.882" xlink:href="#linear-gradient-5"/>
    <linearGradient id="linear-gradient-9" x1="1.091" y1="0.012" x2="0.836" y2="2.043" xlink:href="#linear-gradient-5"/>
    <linearGradient id="linear-gradient-10" x1="-0.609" y1="0.929" x2="0.062" y2="0.15" xlink:href="#linear-gradient-5"/>
    <linearGradient id="linear-gradient-11" x1="1.354" y1="0.244" x2="-0.698" y2="3.343" xlink:href="#linear-gradient-5"/>
    <linearGradient id="linear-gradient-12" x1="1.278" y1="0.351" x2="-2.576" y2="5.491" xlink:href="#linear-gradient-5"/>
    <linearGradient id="linear-gradient-13" x1="1.282" y1="-0.195" x2="-0.6" y2="5.41" xlink:href="#linear-gradient-5"/>
    <linearGradient id="linear-gradient-14" y1="-0.015" x2="1" y2="-0.015" gradientUnits="objectBoundingBox">
      <stop offset="0" stop-color="#f9b776"/>
      <stop offset="1" stop-color="#f47960"/>
    </linearGradient>
    <linearGradient id="linear-gradient-15" x1="14.882" y1="-64.85" x2="13.552" y2="-58.57" gradientUnits="objectBoundingBox">
      <stop offset="0" stop-color="#53d8ff"/>
      <stop offset="1" stop-color="#3840f7"/>
    </linearGradient>
    <linearGradient id="linear-gradient-16" x1="2.386" y1="-8.621" x2="-0.598" y2="10.813" xlink:href="#linear-gradient-15"/>
    <linearGradient id="linear-gradient-17" x1="1.314" y1="-0.786" x2="0.81" y2="2.432" xlink:href="#linear-gradient-14"/>
    <linearGradient id="linear-gradient-18" x1="1.343" y1="-2.109" x2="-1.17" y2="20.935" xlink:href="#linear-gradient-15"/>
    <linearGradient id="linear-gradient-19" x1="10.76" y1="-72.561" x2="9.832" y2="-65.476" xlink:href="#linear-gradient-15"/>
    <linearGradient id="linear-gradient-20" x1="1.257" y1="-0.178" x2="0.747" y2="2.562" xlink:href="#linear-gradient-14"/>
    <linearGradient id="linear-gradient-21" x1="2.663" y1="-0.076" x2="0.246" y2="1.458" gradientUnits="objectBoundingBox">
      <stop offset="0" stop-color="#2b3582"/>
      <stop offset="1" stop-color="#150e42"/>
    </linearGradient>
    <linearGradient id="linear-gradient-22" x1="1.019" y1="0.164" x2="0.801" y2="2.166" xlink:href="#linear-gradient-15"/>
    <linearGradient id="linear-gradient-23" x1="1.231" y1="-0.097" x2="0.486" y2="2.772" xlink:href="#linear-gradient-14"/>
    <linearGradient id="linear-gradient-24" x1="0.902" y1="0.195" x2="1.171" y2="1.612" xlink:href="#linear-gradient-14"/>
    <linearGradient id="linear-gradient-25" x1="-0.144" y1="0.484" x2="0.458" y2="-0.057" xlink:href="#linear-gradient-21"/>
    <linearGradient id="linear-gradient-26" x1="0.085" y1="3.212" x2="-0.035" y2="0.377" xlink:href="#linear-gradient-14"/>
    <linearGradient id="linear-gradient-27" x1="5.812" y1="-0.524" x2="-0.565" y2="1.33" xlink:href="#linear-gradient-15"/>
    <linearGradient id="linear-gradient-28" x1="1.834" y1="-0.502" x2="0.918" y2="1.192" xlink:href="#linear-gradient-21"/>
    <linearGradient id="linear-gradient-29" x1="1.01" y1="0.345" x2="0.748" y2="4.553" xlink:href="#linear-gradient-15"/>
    <linearGradient id="linear-gradient-30" x1="2.005" y1="-1.133" x2="-1.195" y2="3.7" xlink:href="#linear-gradient-14"/>
    <linearGradient id="linear-gradient-31" x1="1.773" y1="-0.546" x2="-1.352" y2="5.483" xlink:href="#linear-gradient-14"/>
    <linearGradient id="linear-gradient-32" x1="1.294" y1="-0.192" x2="0.419" y2="2.212" xlink:href="#linear-gradient-15"/>
    <linearGradient id="linear-gradient-33" x1="1.226" y1="0.03" x2="0.754" y2="0.878" xlink:href="#linear-gradient-14"/>
    <linearGradient id="linear-gradient-34" x1="1.239" y1="0.169" x2="0.264" y2="3.345" xlink:href="#linear-gradient-15"/>
    <linearGradient id="linear-gradient-35" x1="0" y1="-0.004" x2="0.991" y2="-0.004" xlink:href="#linear-gradient-14"/>
    <linearGradient id="linear-gradient-36" x1="2.115" y1="-5.519" x2="0.917" y2="0.621" xlink:href="#linear-gradient-15"/>
    <linearGradient id="linear-gradient-37" x1="1.937" y1="-14.522" x2="1.078" y2="-0.627" xlink:href="#linear-gradient-15"/>
    <linearGradient id="linear-gradient-38" x1="0" y1="-0.005" x2="1" y2="-0.005" xlink:href="#linear-gradient-14"/>
    <linearGradient id="linear-gradient-39" x1="0.012" y1="-0.004" x2="1" y2="-0.004" xlink:href="#linear-gradient-14"/>
    <linearGradient id="linear-gradient-40" x1="-1.391" y1="1.004" x2="0.377" y2="-0.15" xlink:href="#linear-gradient-15"/>
    <linearGradient id="linear-gradient-41" x1="0.215" y1="-0.296" x2="1.793" y2="0.809" xlink:href="#linear-gradient-21"/>
    <linearGradient id="linear-gradient-42" x1="0.006" y1="-0.021" x2="1" y2="-0.021" xlink:href="#linear-gradient-14"/>
    <linearGradient id="linear-gradient-43" x1="0.985" y1="0.009" x2="4.576" y2="0.257" xlink:href="#linear-gradient-14"/>
    <linearGradient id="linear-gradient-44" x1="1.316" y1="0.34" x2="0.649" y2="1.202" xlink:href="#linear-gradient-21"/>
  </defs>
  <g id="_Group_" data-name="&lt;Group&gt;" transform="translate(0 0)">
    <path id="_Path_" data-name="&lt;Path&gt;" d="M144.133,72.606c-10.33,24.323-37.847,37.949-61.709,34.273A45.863,45.863,0,0,1,58.471,96.094c-18.143-16.18-22.023-48.219-7.388-70.8A56.452,56.452,0,0,1,98.974.014c3.908.1,18.886.719,32.049,11.573A49.37,49.37,0,0,1,141.065,22.98C150.089,37.093,150.865,56.754,144.133,72.606Z" transform="translate(-40.506 0.002)" opacity="0.302" fill="url(#linear-gradient)"/>
    <g id="_Group_2" data-name="&lt;Group&gt;" transform="translate(0 1.017)">
      <g id="_Group_3" data-name="&lt;Group&gt;" transform="translate(0 14.427)">
        <path id="_Path_2" data-name="&lt;Path&gt;" d="M4.538,400.517a.672.672,0,0,1,1.3-.034c1.783,6.512,6.993,23.441,15.117,32.458,13.228,14.682,21.943,38.443,13.334,50.667Q-11.961,474.8,4.538,400.517Z" transform="translate(-0.2 -399.991)" fill="url(#linear-gradient-2)"/>
        <path id="_Path_3" data-name="&lt;Path&gt;" d="M144.253,650.913c.015.213.045.387.068.576l.081.555.174,1.107c.121.737.254,1.472.386,2.206q.4,2.2.86,4.4c.609,2.924,1.3,5.83,2.029,8.726s1.536,5.774,2.405,8.632,1.784,5.7,2.79,8.518a143.422,143.422,0,0,0,7,16.5c1.373,2.657,2.816,5.279,4.407,7.813a77.593,77.593,0,0,0,5.216,7.292.118.118,0,0,0,.185-.145v0a86.691,86.691,0,0,1-4.985-7.4c-1.542-2.545-2.935-5.176-4.257-7.841s-2.534-5.384-3.686-8.128-2.187-5.536-3.207-8.333c-2.017-5.6-3.734-11.311-5.293-17.061q-1.16-4.315-2.153-8.675-.5-2.178-.958-4.366l-.437-2.192-.207-1.1-.1-.549c-.029-.18-.063-.374-.082-.533l0-.026a.117.117,0,0,0-.232.022Z" transform="translate(-138.691 -641.104)" fill="#fff" opacity="0.431"/>
      </g>
      <g id="_Group_4" data-name="&lt;Group&gt;" transform="translate(10.343)">
        <path id="_Path_4" data-name="&lt;Path&gt;" d="M284.68,26.679a.643.643,0,0,1,1.2.324c-.142,6.458.018,23.4,5.008,33.89,8.126,17.072,9.636,41.24-1.594,50.1Q249.286,90.3,284.68,26.679Z" transform="translate(-268.067 -26.348)" fill="url(#linear-gradient-3)"/>
        <path id="_Path_5" data-name="&lt;Path&gt;" d="M620.717,261.815c-.044.2-.065.367-.095.547l-.077.531-.142,1.063c-.09.709-.169,1.419-.248,2.128q-.23,2.131-.411,4.266c-.24,2.847-.4,5.7-.521,8.556s-.167,5.714-.15,8.572.08,5.718.234,8.573a137.091,137.091,0,0,0,1.916,17.045c.534,2.811,1.142,5.61,1.911,8.367a74.34,74.34,0,0,0,2.8,8.11.115.115,0,0,0,.214-.084v0a83.017,83.017,0,0,1-2.55-8.148c-.719-2.754-1.278-5.547-1.763-8.351s-.855-5.629-1.162-8.459-.495-5.673-.668-8.516c-.322-5.688-.339-11.391-.2-17.089q.112-4.274.391-8.542.134-2.134.312-4.265l.2-2.129.109-1.063.06-.531c.023-.173.044-.36.07-.511l0-.025a.114.114,0,0,0-.223-.044Z" transform="translate(-605.515 -252.638)" fill="#fff" opacity="0.431"/>
      </g>
    </g>
    <g id="_Group_5" data-name="&lt;Group&gt;" transform="translate(65.806 18.23)">
      <path id="_Path_6" data-name="&lt;Path&gt;" d="M1704.49,557.448q6.033-52.91,28.72-83.944a3.439,3.439,0,0,1,5.878.651C1745.883,490.016,1761.285,538.707,1704.49,557.448Z" transform="translate(-1704.49 -472.136)" fill="url(#linear-gradient-4)"/>
      <path id="_Path_7" data-name="&lt;Path&gt;" d="M1830.87,975c-.115.137.083.312.217.191,4.915-4.473,23.395-25.817,26.22-64.551a.1.1,0,0,0-.2-.027C1855.611,919.686,1849.057,953.256,1830.87,975Z" transform="translate(-1825.957 -893.606)" fill="#fff" opacity="0.502"/>
    </g>
    <g id="_Group_6" data-name="&lt;Group&gt;" transform="translate(14.91 3.12)">
      <g id="_Group_7" data-name="&lt;Group&gt;" transform="translate(32.793)">
        <path id="_Path_8" data-name="&lt;Path&gt;" d="M1256.348,89.467l-3.65,3.7a1.23,1.23,0,0,0-.332,1.094l.981,5.106a1.229,1.229,0,0,1-1.756,1.33l-4.649-2.327a1.227,1.227,0,0,0-1.143.023l-4.553,2.511a1.228,1.228,0,0,1-1.808-1.259l.777-5.141a1.23,1.23,0,0,0-.375-1.08l-3.795-3.554a1.229,1.229,0,0,1,.639-2.109l5.129-.85a1.229,1.229,0,0,0,.911-.69l2.208-4.707a1.228,1.228,0,0,1,2.2-.044l2.393,4.615a1.227,1.227,0,0,0,.938.653l5.159.645A1.229,1.229,0,0,1,1256.348,89.467Z" transform="translate(-1235.655 -80.809)" fill="url(#linear-gradient-5)"/>
        <path id="_Path_9" data-name="&lt;Path&gt;" d="M1301.342,285.022a2.413,2.413,0,0,0-.763.266l-2.973,1.639a.931.931,0,0,1-1.37-.954l.507-3.358a2.418,2.418,0,0,0-.738-2.124l-2.478-2.321a.931.931,0,0,1,.484-1.6l1.712-.283.043.26-1.712.284a.667.667,0,0,0-.347,1.144l2.478,2.321a2.68,2.68,0,0,1,.818,2.357l-.507,3.357a.666.666,0,0,0,.981.683l2.974-1.639a2.676,2.676,0,0,1,.846-.3Z" transform="translate(-1291.01 -268.742)" fill="#fff"/>
        <path id="_Path_10" data-name="&lt;Path&gt;" d="M1440.789,155.813a.932.932,0,0,1-1.285.5l-2.323-1.163.119-.236,2.323,1.163a.666.666,0,0,0,.952-.722l-.64-3.334a2.706,2.706,0,0,1,.723-2.388l2.384-2.418a.666.666,0,0,0-.392-1.129l-3.37-.421a2.679,2.679,0,0,1-2.046-1.426l-1.564-3.014a.666.666,0,0,0-1.2.024l-1.442,3.075a2.67,2.67,0,0,1-.615.837l-.178-.195a2.387,2.387,0,0,0,.554-.754l1.442-3.074a.93.93,0,0,1,1.669-.033l1.563,3.014a2.416,2.416,0,0,0,1.845,1.285l3.369.422a.931.931,0,0,1,.547,1.577l-2.384,2.418a2.438,2.438,0,0,0-.652,2.153l.64,3.334A.926.926,0,0,1,1440.789,155.813Z" transform="translate(-1424.649 -138.287)" fill="#fff"/>
        <path id="_Path_11" data-name="&lt;Path&gt;" d="M1358.8,272.191l-1.014.168-.043-.26,1.014-.168Z" transform="translate(-1353.026 -264.55)" fill="#fff"/>
      </g>
      <g id="_Group_8" data-name="&lt;Group&gt;" transform="translate(14.083 8.229)">
        <path id="_Path_12" data-name="&lt;Path&gt;" d="M768.355,298l-1.882,4.16a1.079,1.079,0,0,0,.059,1l2.36,3.909a1.079,1.079,0,0,1-1.043,1.63l-4.539-.5a1.078,1.078,0,0,0-.935.366l-2.989,3.453a1.079,1.079,0,0,1-1.873-.488l-.923-4.473a1.08,1.08,0,0,0-.637-.776l-4.208-1.775a1.079,1.079,0,0,1-.115-1.932l3.969-2.26a1.081,1.081,0,0,0,.541-.846l.388-4.55a1.079,1.079,0,0,1,1.8-.706l3.375,3.076a1.079,1.079,0,0,0,.972.253l4.447-1.037A1.079,1.079,0,0,1,768.355,298Z" transform="translate(-751.087 -293.931)" fill="url(#linear-gradient-6)"/>
        <path id="_Path_13" data-name="&lt;Path&gt;" d="M812.556,506.958a2.116,2.116,0,0,0-.548.452l-1.952,2.255a.817.817,0,0,1-1.419-.37l-.6-2.921a2.123,2.123,0,0,0-1.254-1.527l-2.748-1.16a.817.817,0,0,1-.087-1.463l1.324-.754.115.2-1.324.754a.586.586,0,0,0,.062,1.048l2.748,1.16a2.353,2.353,0,0,1,1.39,1.694l.6,2.921a.585.585,0,0,0,1.016.265l1.952-2.255a2.341,2.341,0,0,1,.607-.5Z" transform="translate(-801.508 -493.456)" fill="#fff"/>
        <path id="_Path_14" data-name="&lt;Path&gt;" d="M913.385,354.19a.819.819,0,0,1-.909.8l-2.268-.252.025-.23,2.268.252a.585.585,0,0,0,.566-.885l-1.541-2.553a2.376,2.376,0,0,1-.13-2.187l1.229-2.717a.586.586,0,0,0-.666-.812l-2.905.677a2.352,2.352,0,0,1-2.12-.553l-2.2-2.009a.586.586,0,0,0-.978.383l-.253,2.972a2.34,2.34,0,0,1-.253.877l-.206-.106a2.115,2.115,0,0,0,.227-.79l.254-2.972a.817.817,0,0,1,1.365-.535l2.2,2.009a2.121,2.121,0,0,0,1.911.5l2.9-.677a.817.817,0,0,1,.93,1.133l-1.229,2.717a2.143,2.143,0,0,0,.117,1.972l1.541,2.553A.816.816,0,0,1,913.385,354.19Z" transform="translate(-897.173 -341.426)" fill="#fff"/>
        <path id="_Path_15" data-name="&lt;Path&gt;" d="M849.429,490.1l-.785.447-.115-.2.785-.447Z" transform="translate(-844.768 -482.333)" fill="#fff"/>
      </g>
      <g id="_Group_9" data-name="&lt;Group&gt;" transform="translate(0 21.319)">
        <path id="_Path_16" data-name="&lt;Path&gt;" d="M401.109,634.224l-.765,4.3a1.032,1.032,0,0,0,.292.916l3.112,3.07a1.033,1.033,0,0,1-.583,1.758l-4.33.6a1.033,1.033,0,0,0-.781.56l-1.958,3.908a1.033,1.033,0,0,1-1.852-.011l-1.911-3.931a1.033,1.033,0,0,0-.775-.57l-4.322-.654a1.033,1.033,0,0,1-.562-1.765l3.148-3.033a1.032,1.032,0,0,0,.3-.912l-.713-4.313a1.033,1.033,0,0,1,1.505-1.08l3.857,2.057a1.034,1.034,0,0,0,.961.006l3.881-2.011A1.033,1.033,0,0,1,401.109,634.224Z" transform="translate(-386.358 -632.951)" fill="url(#linear-gradient-7)"/>
        <path id="_Path_17" data-name="&lt;Path&gt;" d="M443.937,846.532a2.025,2.025,0,0,0-.4.548l-1.278,2.552a.782.782,0,0,1-1.4-.008l-1.248-2.567a2.031,2.031,0,0,0-1.523-1.12l-2.823-.427a.782.782,0,0,1-.426-1.337l1.05-1.012.154.159-1.05,1.012a.56.56,0,0,0,.3.958l2.823.427a2.254,2.254,0,0,1,1.689,1.243l1.248,2.567a.56.56,0,0,0,1.005.006l1.278-2.552a2.247,2.247,0,0,1,.445-.608Z" transform="translate(-432.732 -835.043)" fill="#fff"/>
        <path id="_Path_18" data-name="&lt;Path&gt;" d="M508.666,683.02a.783.783,0,0,1-.654.955l-2.163.3-.031-.22,2.163-.3a.56.56,0,0,0,.316-.954l-2.032-2a2.275,2.275,0,0,1-.636-2l.5-2.811a.561.561,0,0,0-.81-.6l-2.535,1.314a2.252,2.252,0,0,1-2.1-.013l-2.519-1.343a.56.56,0,0,0-.817.586l.466,2.817a2.236,2.236,0,0,1-.027.873l-.216-.05a2.014,2.014,0,0,0,.024-.787l-.466-2.817a.782.782,0,0,1,1.14-.818l2.519,1.343a2.03,2.03,0,0,0,1.89.012l2.535-1.314a.782.782,0,0,1,1.131.832l-.5,2.811a2.05,2.05,0,0,0,.574,1.8l2.032,2A.78.78,0,0,1,508.666,683.02Z" transform="translate(-492.844 -673.434)" fill="#fff"/>
        <path id="_Path_19" data-name="&lt;Path&gt;" d="M468.786,827.79l-.622.6-.154-.159.623-.6Z" transform="translate(-464.857 -820.113)" fill="#fff"/>
      </g>
      <g id="_Group_10" data-name="&lt;Group&gt;" transform="translate(53.892 8.543)">
        <path id="_Path_20" data-name="&lt;Path&gt;" d="M1798.9,312.823l-4.212,1.166a1.034,1.034,0,0,0-.7.658l-1.427,4.132a1.033,1.033,0,0,1-1.838.232l-2.411-3.646a1.033,1.033,0,0,0-.842-.463l-4.371-.081a1.033,1.033,0,0,1-.789-1.676l2.723-3.42a1.034,1.034,0,0,0,.18-.944l-1.274-4.182a1.033,1.033,0,0,1,1.35-1.268l4.094,1.532a1.033,1.033,0,0,0,.954-.12l3.583-2.5a1.033,1.033,0,0,1,1.623.892l-.192,4.367a1.033,1.033,0,0,0,.409.87l3.489,2.634A1.033,1.033,0,0,1,1798.9,312.823Z" transform="translate(-1782.081 -302.053)" fill="url(#linear-gradient-8)"/>
        <path id="_Path_21" data-name="&lt;Path&gt;" d="M1832.51,381.18a2.034,2.034,0,0,0-.668-.126l-2.854-.053a.783.783,0,0,1-.6-1.27l1.778-2.234a2.03,2.03,0,0,0,.354-1.857l-.832-2.731a.782.782,0,0,1,1.023-.961l1.366.511-.078.208-1.366-.511a.561.561,0,0,0-.733.688l.832,2.731a2.253,2.253,0,0,1-.393,2.06l-1.778,2.234a.56.56,0,0,0,.428.909l2.854.052a2.257,2.257,0,0,1,.741.14Z" transform="translate(-1826.438 -369.202)" fill="#fff"/>
        <path id="_Path_22" data-name="&lt;Path&gt;" d="M1976.9,360.533a.784.784,0,0,1-1.144-.178l-1.2-1.822.185-.122,1.2,1.822a.56.56,0,0,0,1-.126l.932-2.7a2.275,2.275,0,0,1,1.528-1.436l2.751-.762a.56.56,0,0,0,.188-.987l-2.278-1.721a2.253,2.253,0,0,1-.893-1.9l.125-2.852a.56.56,0,0,0-.881-.484l-2.34,1.635a2.241,2.241,0,0,1-.8.352l-.048-.217a2.017,2.017,0,0,0,.72-.317l2.34-1.635a.782.782,0,0,1,1.229.676l-.125,2.852a2.03,2.03,0,0,0,.8,1.711l2.279,1.721a.782.782,0,0,1-.263,1.378l-2.751.762a2.051,2.051,0,0,0-1.378,1.295l-.932,2.7A.78.78,0,0,1,1976.9,360.533Z" transform="translate(-1967.119 -345.211)" fill="#fff"/>
        <path id="_Path_23" data-name="&lt;Path&gt;" d="M1926.979,386.951l-.809-.3.078-.208.81.3Z" transform="translate(-1920.607 -383.182)" fill="#fff"/>
      </g>
      <g id="_Group_11" data-name="&lt;Group&gt;" transform="translate(67.662 19.843)">
        <path id="_Path_24" data-name="&lt;Path&gt;" d="M2155.074,608.091l-4.368-.155a1.031,1.031,0,0,0-.866.417l-2.6,3.511a1.033,1.033,0,0,1-1.823-.331l-1.2-4.2a1.034,1.034,0,0,0-.664-.7l-4.144-1.392a1.033,1.033,0,0,1-.248-1.836l3.625-2.442a1.034,1.034,0,0,0,.456-.846l.043-4.371a1.033,1.033,0,0,1,1.669-.8l3.443,2.693a1.035,1.035,0,0,0,.946.172l4.17-1.31a1.033,1.033,0,0,1,1.28,1.339l-1.5,4.107a1.033,1.033,0,0,0,.129.953l2.534,3.562A1.033,1.033,0,0,1,2155.074,608.091Z" transform="translate(-2138.699 -594.723)" fill="url(#linear-gradient-9)"/>
        <path id="_Path_25" data-name="&lt;Path&gt;" d="M2192.422,650.212a2.012,2.012,0,0,0-.6-.321l-2.706-.909a.782.782,0,0,1-.188-1.39l2.367-1.6a2.031,2.031,0,0,0,.9-1.665l.028-2.855a.783.783,0,0,1,1.265-.609l1.149.9-.137.175-1.149-.9a.561.561,0,0,0-.906.436l-.028,2.855a2.254,2.254,0,0,1-.994,1.847l-2.367,1.6a.56.56,0,0,0,.135,1l2.706.909a2.25,2.25,0,0,1,.665.356Z" transform="translate(-2186.657 -638.926)" fill="#fff"/>
        <path id="_Path_26" data-name="&lt;Path&gt;" d="M2312.738,688.672a.784.784,0,0,1-1.037-.514l-.6-2.1.213-.061.6,2.1a.561.561,0,0,0,.989.18l1.7-2.293a2.276,2.276,0,0,1,1.89-.91l2.853.1a.561.561,0,0,0,.477-.885l-1.655-2.326a2.252,2.252,0,0,1-.281-2.078l.978-2.682a.561.561,0,0,0-.694-.727l-2.724.855a2.246,2.246,0,0,1-.868.1l.019-.221a2.019,2.019,0,0,0,.782-.086l2.724-.856a.782.782,0,0,1,.969,1.015l-.978,2.682a2.029,2.029,0,0,0,.253,1.873l1.655,2.326a.782.782,0,0,1-.665,1.236l-2.853-.1a2.05,2.05,0,0,0-1.7.82l-1.7,2.292A.788.788,0,0,1,2312.738,688.672Z" transform="translate(-2304.443 -673.081)" fill="#fff"/>
        <path id="_Path_27" data-name="&lt;Path&gt;" d="M2342.441,669l-.68-.532.136-.175.681.533Z" transform="translate(-2333.92 -665.449)" fill="#fff"/>
      </g>
    </g>
    <g id="_Group_12" data-name="&lt;Group&gt;" transform="translate(19.198 29.837)">
      <path id="_Path_28" data-name="&lt;Path&gt;" d="M574.441,811.246a38.526,38.526,0,1,1-38.525-38.526A38.526,38.526,0,0,1,574.441,811.246Z" transform="translate(-497.39 -772.72)" fill="url(#linear-gradient-10)"/>
      <path id="_Path_29" data-name="&lt;Path&gt;" d="M605.059,843.145A37.245,37.245,0,1,1,567.815,805.9,37.245,37.245,0,0,1,605.059,843.145Z" transform="translate(-529.289 -804.619)" fill="url(#linear-gradient-11)"/>
      <path id="_Path_30" data-name="&lt;Path&gt;" d="M597.181,1607.269h-.019a.353.353,0,0,1-.334-.37,35,35,0,0,1,.5-4.363.353.353,0,1,1,.694.125,34.267,34.267,0,0,0-.495,4.274A.352.352,0,0,1,597.181,1607.269Z" transform="translate(-592.988 -1570.215)" fill="#fff"/>
      <path id="_Path_31" data-name="&lt;Path&gt;" d="M690.981,890.545a.348.348,0,0,1-.158-.038.352.352,0,0,1-.156-.473,34.589,34.589,0,0,1,31.027-19.1,35.085,35.085,0,0,1,6.266.564.353.353,0,1,1-.126.694,34.354,34.354,0,0,0-6.139-.552,33.887,33.887,0,0,0-30.4,18.715A.354.354,0,0,1,690.981,890.545Z" transform="translate(-683.167 -867.138)" fill="#fff"/>
      <path id="_Path_32" data-name="&lt;Path&gt;" d="M762.806,1006.623A31.523,31.523,0,1,1,731.283,975.1,31.523,31.523,0,0,1,762.806,1006.623Z" transform="translate(-691.946 -967.286)" fill="#fff" opacity="0.78"/>
      <path id="_Path_33" data-name="&lt;Path&gt;" d="M1284.849,1255.825c0,5.338-4.327,11.1-9.665,11.1s-9.665-5.762-9.665-11.1,4.327-9.124,9.665-9.124S1284.849,1250.487,1284.849,1255.825Z" transform="translate(-1235.861 -1228.399)" fill="url(#linear-gradient-12)"/>
      <path id="_Path_34" data-name="&lt;Path&gt;" d="M1038.611,1867.763H1062.2a5.711,5.711,0,0,0,5.439-3.971l1.27-3.968a5.705,5.705,0,0,0-3.447-7.1c-9.6-3.511-19.53-3.06-29.7.324a5.687,5.687,0,0,0-3.644,6.894l.978,3.6A5.711,5.711,0,0,0,1038.611,1867.763Z" transform="translate(-1011.281 -1808.687)" fill="url(#linear-gradient-13)"/>
    </g>
    <g id="_Group_13" data-name="&lt;Group&gt;" transform="translate(10.593 57.371)">
      <path id="_Path_35" data-name="&lt;Path&gt;" d="M326.808,2019.58a7.748,7.748,0,0,1-1.8,1.314,14.934,14.934,0,0,0,3.287,2.923l.406.912,1.3-1.561A6.189,6.189,0,0,1,326.808,2019.58Z" transform="translate(-323.062 -1998.97)" fill="url(#linear-gradient-14)"/>
      <path id="_Path_36" data-name="&lt;Path&gt;" d="M458.847,2716.75a.314.314,0,0,0-.009-.084,4.313,4.313,0,0,0-2.516-2.715l-.83.065a5.753,5.753,0,0,0-.339,2.781.315.315,0,0,0,.009.033A19.7,19.7,0,0,0,458.847,2716.75Z" transform="translate(-448.129 -2666.529)" fill="url(#linear-gradient-15)"/>
      <path id="_Path_37" data-name="&lt;Path&gt;" d="M456.68,2786.53a.359.359,0,0,0,.263.266,11.38,11.38,0,0,0,3.171-.045.3.3,0,0,0,.251-.3A19.738,19.738,0,0,1,456.68,2786.53Z" transform="translate(-449.648 -2736.23)" fill="url(#linear-gradient-16)"/>
      <path id="_Path_38" data-name="&lt;Path&gt;" d="M456.6,2683.63l.351,1.692a.276.276,0,0,0,.237.228,2.343,2.343,0,0,0,.544-.008.348.348,0,0,0,.275-.409l-.244-1.5Z" transform="translate(-449.571 -2637.379)" fill="url(#linear-gradient-17)"/>
      <path id="_Path_39" data-name="&lt;Path&gt;" d="M604.463,2782.263a4.956,4.956,0,0,1-1.636-.234c0,.091,0,.184,0,.28a.181.181,0,0,0,.173.184l5.032-.033a.23.23,0,0,0,.185-.334C607.56,2782.181,605.879,2782.3,604.463,2782.263Z" transform="translate(-590.151 -2731.98)" fill="url(#linear-gradient-18)"/>
      <path id="_Path_40" data-name="&lt;Path&gt;" d="M608.223,2723.155a.237.237,0,0,0-.02-.038,6.409,6.409,0,0,0-3.813-2.394l-1.073-.034a4.862,4.862,0,0,0-.487,2.368,4.95,4.95,0,0,0,1.636.234C605.882,2723.332,607.563,2723.21,608.223,2723.155Z" transform="translate(-590.154 -2673.009)" fill="url(#linear-gradient-19)"/>
      <path id="_Path_41" data-name="&lt;Path&gt;" d="M610.29,2672.1c.012.08.159,1.3.216,1.767a.233.233,0,0,0,.2.211,2.468,2.468,0,0,0,.737-.011.317.317,0,0,0,.241-.319v-1.908Z" transform="translate(-597.326 -2626.045)" fill="url(#linear-gradient-20)"/>
      <path id="_Path_42" data-name="&lt;Path&gt;" d="M418.247,2104.08a86.127,86.127,0,0,1,2.541,22.21.478.478,0,0,1-.38.467,5.541,5.541,0,0,1-1.2.139.444.444,0,0,1-.424-.371c-.363-2.128-2.445-14.115-3.631-16.062a149,149,0,0,0-.531,16.215.262.262,0,0,1-.232.273,4.415,4.415,0,0,1-.963,0,.351.351,0,0,1-.313-.3,161.776,161.776,0,0,1-1.683-20.243,7.855,7.855,0,0,1,1.152-2.329Z" transform="translate(-406.144 -2080.208)" fill="url(#linear-gradient-21)"/>
      <path id="_Path_43" data-name="&lt;Path&gt;" d="M290.253,1709.155a10.8,10.8,0,0,1-1.1-1.672c-.43-.812-.034.526-.152-.391-3.219-2.323-8.066-1.147-9.941-.911a2.507,2.507,0,0,0-1.582.849c-1.607,1.859-5.132,6.95-.982,12.079a7.745,7.745,0,0,0,1.8-1.314,6.34,6.34,0,0,1,.465-4.976,4.68,4.68,0,0,0,.123.477,29.5,29.5,0,0,1,1.394,8.5.266.266,0,0,0,.167.249c1.745.7,5.1.283,6.232.115a.379.379,0,0,0,.317-.43c-.553-4.01,2.287-10.606,3.037-12.259A1.1,1.1,0,0,1,290.253,1709.155Z" transform="translate(-274.552 -1697.185)" fill="url(#linear-gradient-22)"/>
      <path id="_Path_44" data-name="&lt;Path&gt;" d="M461.176,1628.937l-.336,3.436a3.675,3.675,0,0,0,3.34-.41l-.988-3.123Z" transform="translate(-453.647 -1623.317)" fill="url(#linear-gradient-23)"/>
      <g id="_Group_14" data-name="&lt;Group&gt;" transform="translate(5.953)">
        <path id="_Path_45" data-name="&lt;Path&gt;" d="M464,1525.476q.046.044,1.964,3.809l-2.173,1.049-2.347-3.3Q463.218,1524.743,464,1525.476Z" transform="translate(-460.177 -1523.774)" fill="url(#linear-gradient-24)"/>
        <path id="_Path_46" data-name="&lt;Path&gt;" d="M430.961,1489.167a.347.347,0,0,0,.026.3l1.083,1.807a.348.348,0,0,0,.059.074.569.569,0,0,0,.912-.006,3.051,3.051,0,0,1,.856-.926.347.347,0,0,1,.468.154,12.984,12.984,0,0,1,.742,1.76.345.345,0,0,1-.2.423,9.622,9.622,0,0,1-2.082.607.346.346,0,0,1-.327-.139c-.332-.455-1.268-1.726-1.587-2.044-.3-.3-.844-.184-1.091-.113a.348.348,0,0,1-.277-.036.764.764,0,0,1-.287-1.162.347.347,0,0,0-.107-.471.766.766,0,0,1-.294-1.088,1.081,1.081,0,0,1,1.171-.573.36.36,0,0,0,.378-.21.229.229,0,0,1,.179-.141.336.336,0,0,0,.272-.4.888.888,0,0,1,.5-1.017c.938-.516,1.759.324,1.968,1.034s-.839,1.21-1.5,1.293C431.333,1488.363,431.068,1488.891,430.961,1489.167Z" transform="translate(-428.737 -1485.814)" fill="url(#linear-gradient-25)"/>
        <path id="_Path_47" data-name="&lt;Path&gt;" d="M456.188,1612.676q-.416-1.22-.95-1.175c-.534.045-.954.577-.292,1.174Q455.767,1613.419,456.188,1612.676Z" transform="translate(-453.607 -1606.646)" fill="url(#linear-gradient-26)"/>
      </g>
      <path id="_Path_48" data-name="&lt;Path&gt;" d="M366.8,1776.173a10.875,10.875,0,0,1-.446-4.273l.194.022a10.663,10.663,0,0,0,.435,4.184Z" transform="translate(-362.765 -1760.854)" fill="url(#linear-gradient-27)"/>
      <path id="_Path_49" data-name="&lt;Path&gt;" d="M456.055,2213.065a.1.1,0,0,1-.094-.073c-.215-.827-1.822-1.737-1.838-1.747a.1.1,0,0,1,.1-.17c.069.039,1.7.96,1.931,1.867a.1.1,0,0,1-.07.119A.086.086,0,0,1,456.055,2213.065Z" transform="translate(-447.141 -2183.059)" fill="url(#linear-gradient-28)"/>
      <g id="_Group_15" data-name="&lt;Group&gt;" transform="translate(10.303 8.669)">
        <path id="_Path_50" data-name="&lt;Path&gt;" d="M553.313,1714.713c-3.64.546-6.013-1.751-7.782-3.144q-2.335-1.84-4.151-.945l2.49,4.752a8.388,8.388,0,0,0,9.933,1.591A4.633,4.633,0,0,0,553.313,1714.713Z" transform="translate(-541.38 -1710.33)" fill="url(#linear-gradient-29)"/>
        <path id="_Path_51" data-name="&lt;Path&gt;" d="M855.537,1767.57l-1.207.649a10.563,10.563,0,0,1-3.91,1.522,4.633,4.633,0,0,1,.49,2.253,10.172,10.172,0,0,0,2.489-1.591Q856.134,1768.774,855.537,1767.57Z" transform="translate(-838.487 -1765.36)" fill="url(#linear-gradient-30)"/>
      </g>
      <path id="_Path_52" data-name="&lt;Path&gt;" d="M948.714,1738.988a.889.889,0,0,0-.521-.57l-2.45-.985q-.037-.315.518-.528a.651.651,0,0,0,.425-.835q-.758.346-1.867.894a2.6,2.6,0,0,0-1.179,1.284l.631.83a11.216,11.216,0,0,0,4.579.36Z" transform="translate(-917.805 -1726.407)" fill="url(#linear-gradient-31)"/>
    </g>
    <g id="_Group_16" data-name="&lt;Group&gt;" transform="translate(22.222 47.727)">
      <path id="_Path_53" data-name="&lt;Path&gt;" d="M586.752,1236.36c3.738.819,7.616,3.574,7.661,7.726.038,3.53-3.819,5.071-6.192,5.75a2.82,2.82,0,0,0-1.6,1.195c-.886,1.389-2.863,3.767-5.507,2.695a.2.2,0,0,1,.059-.383,3.029,3.029,0,0,0,2.129-.97,1.693,1.693,0,0,0-.918-2.674c-2.219-.585-6.5-2.407-6.665-7.765Q575.491,1234.687,586.752,1236.36Z" transform="translate(-575.714 -1236.046)" fill="url(#linear-gradient-32)"/>
      <path id="_Path_54" data-name="&lt;Path&gt;" d="M725.747,1349.986q-.484-2.37-2.818-1.667c-2.211.666-1.089,3.664,2.348,5.22a1.259,1.259,0,0,0,1.157-.062c1.321-.774,4.357-2.9,2.256-5.028Q727.334,1347.072,725.747,1349.986Z" transform="translate(-716.149 -1343.684)" fill="#fff"/>
      <path id="_Path_55" data-name="&lt;Path&gt;" d="M823.475,1258.069a.231.231,0,0,0,.169-.346c-1.73-2.952-5.082-3.933-7.59-4.235a.231.231,0,1,0-.055.459c2.4.29,5.612,1.222,7.247,4.01A.231.231,0,0,0,823.475,1258.069Z" transform="translate(-806.525 -1252.812)" fill="#fff"/>
      <path id="_Path_56" data-name="&lt;Path&gt;" d="M1028.907,1414.085a.231.231,0,0,0,.2-.225,5.442,5.442,0,0,0-.146-1.156.231.231,0,0,0-.451.1,5.035,5.035,0,0,1,.135,1.049.231.231,0,0,0,.227.235Z" transform="translate(-1011.022 -1405.708)" fill="#fff"/>
    </g>
    <g id="_Group_17" data-name="&lt;Group&gt;" transform="translate(76.155 41.893)">
      <path id="_Path_57" data-name="&lt;Path&gt;" d="M2332.3,1505.6q-5.223,6.686.736,13.488l2.24-.209q-4.312-6.925-2.392-12.444l3.173.232,1.755-1.144Z" transform="translate(-2316.066 -1489.281)" fill="url(#linear-gradient-33)"/>
      <g id="_Group_18" data-name="&lt;Group&gt;">
        <path id="_Path_58" data-name="&lt;Path&gt;" d="M1973.344,1086.243l24.8-1.28a.8.8,0,0,1,.91.652l.56,15.018a.8.8,0,0,1-.866.723c-4.49.094-24.425.516-25.3.584s-.933-12.013-.936-14.995A.8.8,0,0,1,1973.344,1086.243Z" transform="translate(-1972.51 -1084.961)" fill="url(#linear-gradient-34)"/>
        <path id="_Compound_Path_" data-name="&lt;Compound Path&gt;" d="M1991.014,1114.523l-.017-.063c-.374-1.373-.62-7.026-.627-14.4a.174.174,0,0,1,.174-.163l24.8-1.28a.194.194,0,0,1,.126.036.15.15,0,0,1,.065.119l.56,15.017a.173.173,0,0,1-.174.169h-.006c-3.572.075-21.558.455-24.837.564Zm24.342-15.743h0l-24.8,1.28a.029.029,0,0,0-.02.007c.009,7.244.246,12.822.607,14.286,3.448-.112,21.222-.488,24.773-.562h0l-.545-15.016C2015.371,1098.782,2015.365,1098.78,2015.356,1098.78Z" transform="translate(-1989.68 -1098.088)" fill="#fff" fill-rule="evenodd"/>
        <path id="_Path_59" data-name="&lt;Path&gt;" d="M2413.907,1138.074c.017.38.157.682.313.675l6.893-.307c.156-.007.268-.32.252-.7s-.157-.682-.313-.675l-6.894.307C2414,1137.381,2413.891,1137.694,2413.907,1138.074Z" transform="translate(-2396.862 -1135.055)" fill="#fff"/>
        <path id="_Path_60" data-name="&lt;Path&gt;" d="M2414.72,1195.068a.317.317,0,0,0,.3.331l6.893-.307a.351.351,0,0,0-.031-.687l-6.893.307A.317.317,0,0,0,2414.72,1195.068Z" transform="translate(-2397.645 -1190.178)" fill="#fff"/>
        <path id="_Path_61" data-name="&lt;Path&gt;" d="M2414.72,1232.147a.317.317,0,0,0,.3.331l6.893-.307a.351.351,0,0,0-.031-.688l-6.893.307A.317.317,0,0,0,2414.72,1232.147Z" transform="translate(-2397.645 -1225.827)" fill="#fff"/>
        <path id="_Compound_Path_2" data-name="&lt;Compound Path&gt;" d="M2140.081,1157.536h-.278a.331.331,0,0,1-.326-.292l-.6-5.175a.33.33,0,0,1,.292-.366,2.336,2.336,0,0,0,.9-.328,2.554,2.554,0,0,0,.433-.874,5.843,5.843,0,0,1,.97-1.832,3.4,3.4,0,0,0,.644-2.422,1.05,1.05,0,0,1,.624-.983c.247-.1.741-.146,1.28.6a3.7,3.7,0,0,1,.185,3.016,4.553,4.553,0,0,0-.125.652.138.138,0,0,0,0,.025,4.174,4.174,0,0,0,1.391-.094c.246-.038.5-.077.739-.1.854-.1,1.859-.062,2.047,1.113a1.277,1.277,0,0,1-.339,1.081,1.441,1.441,0,0,1,.582,1.052,1.283,1.283,0,0,1-.3.819,1.228,1.228,0,0,1,.38,1.174,1.453,1.453,0,0,1-.454.79.736.736,0,0,1,.189.51c-.016.573-.708,1.146-1.645,1.362A55.583,55.583,0,0,1,2140.081,1157.536Zm-.513-5.24.531,4.579a56.463,56.463,0,0,0,6.43-.262c.746-.172,1.128-.565,1.133-.737,0-.066-.122-.147-.308-.2a.33.33,0,0,1,.062-.646.7.7,0,0,0,.524-.564.625.625,0,0,0-.395-.708.33.33,0,0,1-.038-.561.851.851,0,0,0,.337-.58c-.01-.307-.348-.588-.63-.769a.33.33,0,0,1,.014-.564.764.764,0,0,0,.381-.709c-.052-.329-.113-.7-1.319-.562-.234.027-.476.065-.713.1-.882.136-1.578.245-1.945-.086a.642.642,0,0,1-.208-.531,4.73,4.73,0,0,1,.142-.77,3.162,3.162,0,0,0-.077-2.479c-.193-.266-.383-.411-.5-.374a.419.419,0,0,0-.215.3,4.08,4.08,0,0,1-.8,2.926,5.235,5.235,0,0,0-.849,1.631,2.407,2.407,0,0,1-.686,1.191A2.868,2.868,0,0,1,2139.567,1152.3Z" transform="translate(-2132.45 -1142.883)" fill="#fff" fill-rule="evenodd"/>
      </g>
      <path id="_Path_62" data-name="&lt;Path&gt;" d="M2467.13,2311.495q4.231,9.223,6.452,13.043.441,2.4,0,3.16l-.376.167,1.754-.052a18.964,18.964,0,0,0,.034-3.414.386.386,0,0,0-.365-.169q-.752-5.958-2.93-7.229l-2.111-7.27Z" transform="translate(-2448.032 -2262.439)" fill="url(#linear-gradient-35)"/>
      <path id="_Path_63" data-name="&lt;Path&gt;" d="M2605.09,2688.905c0,.042,1.369.023,2.115.009a.593.593,0,0,0,.568-.468l.563-2.958a.532.532,0,0,0-.4-.617l-.314-.072a1.416,1.416,0,0,0-.307,1.194c.141.579.267,2.078-.09,2.253a3.869,3.869,0,0,1-1.382.205Q2605.114,2688.524,2605.09,2688.905Z" transform="translate(-2580.665 -2623.027)" fill="url(#linear-gradient-36)"/>
      <path id="_Path_64" data-name="&lt;Path&gt;" d="M2361.3,2754.122a.155.155,0,0,0,.078.289c1.247-.013,4.042-.052,4.291-.155.321-.134-.117-1.286-.577-1.676l-2.542.83Z" transform="translate(-2346.211 -2688.189)" fill="url(#linear-gradient-37)"/>
      <path id="_Path_65" data-name="&lt;Path&gt;" d="M2342.81,2340.2q2.735,13.229,3.508,15.81l-1.83,1.148q.917-.156,1.6-.205a1.911,1.911,0,0,0,1.306-.83l-.219-.349q-.686-13.157-.519-14.652Z" transform="translate(-2328.512 -2291.732)" fill="url(#linear-gradient-38)"/>
      <path id="_Path_66" data-name="&lt;Path&gt;" d="M2090.325,1443.854q-.378,6.882,5.888,10.4l-1.509,3.44q-5.672-3.431-5.462-12.789a1.085,1.085,0,0,0-.267-.733l-1.206-1.4a2.166,2.166,0,0,1-.46-1.938l.159-.634a.329.329,0,0,1,.484-.2l.126.073a2.212,2.212,0,0,1,.909,1.01l.592,1.323a1.272,1.272,0,0,0,1.27.748l.366-.032Z" transform="translate(-2082.815 -1426.244)" fill="url(#linear-gradient-39)"/>
      <path id="_Path_67" data-name="&lt;Path&gt;" d="M2276.217,1796.688a30.1,30.1,0,0,0,6.816,1.187l-1.361,7.681.109,1.253-4.438-.02a27.235,27.235,0,0,0-2.235-4.348c-.284-.418-.073-.916.089-1.4l-.222-.148a.6.6,0,0,1-.239-.69l1.081-3.307A.33.33,0,0,1,2276.217,1796.688Z" transform="translate(-2263.037 -1769.195)" fill="url(#linear-gradient-40)"/>
      <path id="_Path_68" data-name="&lt;Path&gt;" d="M2323.474,2037.774l.087.759q-1.254,3.755.627,12.528a7.742,7.742,0,0,0,7.423-1.607q-.944-8.28-1.2-8.666a6.939,6.939,0,0,0-2.141-2.339l-.038-.829Q2324.647,2038.268,2323.474,2037.774Z" transform="translate(-2309.524 -2000.836)" fill="url(#linear-gradient-41)"/>
      <path id="_Path_69" data-name="&lt;Path&gt;" d="M2378.774,1742.2q-.016-.02.927-2.844l1.35.122.527,3.2Q2379.462,1743.113,2378.774,1742.2Z" transform="translate(-2363.087 -1714.092)" fill="url(#linear-gradient-42)"/>
      <path id="_Path_70" data-name="&lt;Path&gt;" d="M2370.4,1620.6c-.09.056-2.883,1.211-2.283,4.111a.544.544,0,0,0,.31.388,4.727,4.727,0,0,0,2.348.389c1.463-.149,2.422-2.7,2.382-3.446S2371.295,1620.045,2370.4,1620.6Z" transform="translate(-2352.763 -1599.786)" fill="url(#linear-gradient-43)"/>
      <path id="_Path_71" data-name="&lt;Path&gt;" d="M2381.847,1593.155c-.073.01-1.614.546-.85,1.663s1.051,1.774.689,2.264c-.329.447-1.059.192-1,1.121a.522.522,0,0,1-.222.471c-.687.465-2.365,1.9-.7,3.94a.521.521,0,0,1,.059.582c-.487.873-1.509,3.43,2.192,4.848,3.657,1.4,4.977-.989,5.346-1.944a.511.511,0,0,1,.5-.323c.4.019.971-.048.945-.585a1.341,1.341,0,0,0-.46-.853.51.51,0,0,1,.1-.8,1,1,0,0,0,.493-.62,3.245,3.245,0,0,0-2.574-3.693.557.557,0,0,1-.431-.416.062.062,0,0,0,0-.009.508.508,0,0,1,.189-.5,1.322,1.322,0,0,0,.466-1.721,1.929,1.929,0,0,0-1.508-1.141.512.512,0,0,1-.42-.613C2384.831,1594.041,2384.686,1592.783,2381.847,1593.155Z" transform="translate(-2363.357 -1573.468)" fill="url(#linear-gradient-44)"/>
    </g>
  </g>
</svg>
