<svg id="Group_39374" data-name="Group 39374" xmlns="http://www.w3.org/2000/svg" width="205.447" height="43.5" viewBox="0 0 205.447 43.5">
  <text id="Based_on_1169_reviews" data-name="Based on 1169 reviews" transform="translate(99.488 40.5)" fill="#707070" font-size="9" font-family="Poppins-Regular, Poppins"><tspan x="-49.738" y="0">Based on </tspan><tspan y="0" font-family="Poppins-SemiBold, Poppins" font-weight="600">1169 reviews</tspan></text>
  <g id="Trustpilot_ratings_5star-RGB" transform="translate(107.447 1.958)">
    <g id="Group_39371" data-name="Group 39371" transform="translate(0 0)">
      <rect id="Rectangle-path" width="18.2" height="18.2" fill="#00b67a"/>
      <rect id="Rectangle-path-2" data-name="Rectangle-path" width="18.9" height="18.2" transform="translate(19.6)" fill="#00b67a"/>
      <rect id="Rectangle-path-3" data-name="Rectangle-path" width="18.2" height="18.2" transform="translate(39.9)" fill="#00b67a"/>
      <rect id="Rectangle-path-4" data-name="Rectangle-path" width="18.9" height="18.2" transform="translate(59.5)" fill="#00b67a"/>
      <rect id="Rectangle-path-5" data-name="Rectangle-path" width="18.2" height="18.2" transform="translate(79.8)" fill="#00b67a"/>
      <path id="Shape" d="M20.868,25.536l2.81-.712,1.174,3.619Zm6.468-4.677H22.388L20.868,16.2l-1.521,4.658H14.4l4,2.887L16.883,28.4l4-2.887,2.464-1.771,3.984-2.887Z" transform="translate(-11.905 -13.221)" fill="#fff"/>
      <path id="Shape-2" data-name="Shape" d="M124.868,25.536l2.81-.712,1.174,3.619Zm6.468-4.677h-4.947L124.868,16.2l-1.521,4.658H118.4l4,2.887L120.883,28.4l4-2.887,2.464-1.771,3.984-2.887Z" transform="translate(-95.886 -13.221)" fill="#fff"/>
      <path id="Shape-3" data-name="Shape" d="M228.868,25.536l2.81-.712,1.174,3.619Zm6.468-4.677h-4.947L228.868,16.2l-1.521,4.658H222.4l4,2.887L224.883,28.4l4-2.887,2.464-1.771,3.984-2.887Z" transform="translate(-179.868 -13.221)" fill="#fff"/>
      <path id="Shape-4" data-name="Shape" d="M332.868,25.536l2.81-.712,1.174,3.619Zm6.468-4.677h-4.947L332.868,16.2l-1.521,4.658H326.4l4,2.887L328.883,28.4l4-2.887,2.464-1.771,3.984-2.887Z" transform="translate(-263.849 -13.221)" fill="#fff"/>
      <path id="Shape-5" data-name="Shape" d="M436.868,25.536l2.81-.712,1.174,3.619Zm6.468-4.677h-4.947L436.868,16.2l-1.521,4.658H430.4l4,2.887L432.883,28.4l4-2.887,2.464-1.771,3.984-2.887Z" transform="translate(-347.83 -13.221)" fill="#fff"/>
    </g>
  </g>
  <g id="Group_39373" data-name="Group 39373" transform="translate(0 0)">
    <text id="Trustpilot" transform="translate(22.047 16)" fill="#707070" font-size="15" font-family="Poppins-SemiBold, Poppins" font-weight="600"><tspan x="0" y="0">Trustpilot</tspan></text>
    <g id="Group_39372" data-name="Group 39372" transform="translate(0 1.958)">
      <path id="Path_34237" data-name="Path 34237" d="M18.4,6.688H11.375L9.2,0,7.027,6.688,0,6.681l5.691,4.138L3.514,17.5,9.2,13.369,14.889,17.5l-2.171-6.681Z" fill="#00b67a"/>
      <path id="Path_34238" data-name="Path 34238" d="M139.7,161.013l-.488-1.513-3.514,2.55Z" transform="translate(-126.495 -148.681)" fill="#005128"/>
    </g>
  </g>
</svg>
